<mxfile host="app.diagrams.net" agent="Mozilla/5.0 (Windows NT 10.0; Win64; x64) AppleWebKit/537.36 (KHTML, like Gecko) Chrome/130.0.0.0 Safari/537.36" version="24.8.6">
  <diagram id="8gLA5SVwr0PZ9O9djIhk" name="Page-1">
    <mxGraphModel dx="3804" dy="2198" grid="1" gridSize="10" guides="1" tooltips="1" connect="1" arrows="1" fold="1" page="1" pageScale="1" pageWidth="850" pageHeight="1100" math="0" shadow="0">
      <root>
        <mxCell id="0" />
        <mxCell id="1" parent="0" />
        <mxCell id="8XWnLqeAtCPpHr6PN-5Z-127" value="" style="group" parent="1" vertex="1" connectable="0">
          <mxGeometry x="210.0000000000001" y="1280" width="869.9999999999999" height="270" as="geometry" />
        </mxCell>
        <mxCell id="8XWnLqeAtCPpHr6PN-5Z-121" value="" style="rounded=1;whiteSpace=wrap;html=1;shadow=1;strokeColor=#6c8ebf;strokeWidth=1;align=center;verticalAlign=top;fontFamily=Helvetica;fontSize=12;fontColor=default;fillColor=#dae8fc;gradientColor=#FFF5F5;gradientDirection=north;movable=1;resizable=1;rotatable=1;deletable=1;editable=1;locked=0;connectable=1;" parent="8XWnLqeAtCPpHr6PN-5Z-127" vertex="1">
          <mxGeometry width="870" height="270" as="geometry" />
        </mxCell>
        <mxCell id="8XWnLqeAtCPpHr6PN-5Z-28" value="" style="shape=image;verticalLabelPosition=bottom;labelBackgroundColor=default;verticalAlign=top;aspect=fixed;imageAspect=0;image=https://sue.eu/wp-content/uploads/sites/6/2022/06/kubernetes-logo-920x920-sue-v0.png;" parent="8XWnLqeAtCPpHr6PN-5Z-127" vertex="1">
          <mxGeometry x="319.9999999999999" y="20" width="160" height="160" as="geometry" />
        </mxCell>
        <mxCell id="8XWnLqeAtCPpHr6PN-5Z-29" value="" style="shape=image;verticalLabelPosition=bottom;labelBackgroundColor=default;verticalAlign=top;aspect=fixed;imageAspect=0;image=https://miro.medium.com/v2/resize:fit:676/1*fiOou8ZYaZe-Ka8NUyovMw.png;" parent="8XWnLqeAtCPpHr6PN-5Z-127" vertex="1">
          <mxGeometry x="549.9999999999999" y="30" width="246.72" height="150" as="geometry" />
        </mxCell>
        <mxCell id="8XWnLqeAtCPpHr6PN-5Z-33" value="" style="shape=image;verticalLabelPosition=bottom;labelBackgroundColor=default;verticalAlign=top;aspect=fixed;imageAspect=0;image=data:image/png,iVBORw0KGgoAAAANSUhEUgAAAfkAAADfCAYAAAD1NKp7AAAAAXNSR0IArs4c6QAAAARnQU1BAACxjwv8YQUAAAAJcEhZcwAADsMAAA7DAcdvqGQAAKrvSURBVHhe7Z0HgCRF1cff3e5ejuQDLnHknHOOEkRRyRIFFARREFCCICoSRRCzEkQUM3yKoCJBQYKJJDlnjsv5bvduv/d71W+mtndmdmZ3Znd2t/9777qnu7rCq6r3r9TVA1oVkiFDhgz9EEuXLrXjsmXLpKWlxc4rBSY0M6Odx4ABA2TgwIHS0NBgwm8kQ3WQkXyGDBn6LRYvXmxHSL6zyEi+OoDo05KRfdeRkXyGDBn6DTB39Ni91+7k7mSSmcOeA6TuaGxszIi+SshIPkOGDP0CMcH7MH1GIPWDmORBRvTVQUbyGTJk6LNw80aPvbm52X4j6R58hp6Hk3xMST5P72QP4vtZ/nWMjOQzZMjQZ+GETu/diZ1rmdmrP8Qk7vkDiSPcc7KPiT0j+Y7RdnwkQ4YMGfoY4jn4DL0DTu4Awmd6hTxkNCZDZch68hkyZOhz8N474iauUE8xQ/3A86cj4K6pqSnr0ZeJrCefIUOGPgfv9WU9+L4Hb8BlDbXykPXkM2TI0CeA8XcpRAJZT76+UW5P3vMO94MGDWrXi8969W2R9eQzZMjQ68GcLT33rPfe9+GNNBpz/sZEhuLIevIZMmTo1XBj3xG5xz28zOzVH8rtgcd5xzOsuuedes5dMuSRkXyGDBl6LZzg6clnpqz/grxnMR5kD+lnyCMbrs+QIUOvREbwGRyUAy8LGdoi68lnyJCh18EX1/XVVdaeplJDz6UWqqEf/IjdVGsYG7/rFaSRxXj06DMEZCSfIUOGXgUneHpt9Uw4lcJJmKMLvdNicPeFALkjmPdqm/h61zl68aH7UjrqL8hIPkOGDL0GTvC9vQcfkw/nCOnhGC8iK4VS9103HNFVGrHuKtVjb2hYoZusRx+QkXyGDBl6BXo7wcek7OTjPe54WL0QCqW3o0ZAOcBfRkS8IYCfHlYxHfeW0RN0So8+XohXDZ31NmQknyFDhrqHE3xvHKJ3YvEPrIC4h1kO8RQy09UiLPyO/eccHbuk0Zv0j77p0bveM5LPkCFDhjoDpLJkyZJetXIaUnFCGTx4sB17I8H4yEkM8gL0llfV0kQP+hPZZySfIUOGuoUPJSNuqurZQKeH4f0c9FZiQe9x791Jnuu9gT7QO3nA0H1vz4vOICP5DBky1CUgFlaXO8HXm2GO48M5ApEAyMTvu4mtt/h3Ft6zJ39ohJG+eqYR1zt5Eu9131fyoyNkJJ8hQ4a6Q70TPPBeO3Fj6JpjfyMQ8ok8que1EnG+eI8+zp++nlcZyWfIkKGu4AQfE0c9GuKhQ4cmZ+3j19eJIw3yyqdW6o1SyIs4P9JE39fzKiP5DBky1A0wR96Dj3uG9WKI6b0z5NsR+jpxpOE0Qp452YN6oBfyIp0fjLyQl/H1vppnGclnyJChbgA5sLCr3nrw8Vx7OavK+yphFEOaRuLRmJ4GeVEoP/pLjz7/TkGGDBky9CAghrgH39NGl/Cd1On1QQi95bWxnoYTKHrjvB4J1MtbX0fWk8+QIUOPA4NLD96Nbk+SAqTkRx/S9WsZKocP35PH0E13Uw75V6o8eeOtHhsi1UBWcjNkyNDjgATqpVeF0fdeaEcEkaFjQKCsY0Cn9dhY8sZHX0VG8hkyZOhRQO7M34KeJFXC9V4dUq/DzL0R6JFGE1JvvWZ/M8CnifoaMpLPkCFDjwGCX7x4sfWketLwO8Fnw/K1hRN9vTWgKId9leizOfkMGTL0CDA9CxcuNMPaUwbfSb2jHmY9EVJfgPeeEcpBLWmo3Dzlt5cDR1/I94zkM2TI0CNgoZ0P03cX3Gi72cOg1+MQcn8AeUADj3LAeXdSEXldKL8pB4g3/vpCmcjGpjJkyNDtwLh3N8EXQrrnlqH7AIGi+3qaJqFc9rV+b9aTz5AhQ7cCk+O72nWX+UmTCL99btiR9eR7DpQDevQ+fF9rFOvJA8oEDY9SbnoTsp58hgwZuhUY8e4y5oWA4c568PUF8oTX7OohT+jNI30FGclnyJCh2wCx04PvbiNKuBC7S0bw9Ql60PHnYHsKNEL7CtFnJJ8hQ4ZuAUTrw/TdDUgDYkcYjiUuPTWSkKE4fJTFh8t7ChB8TzRGa4GM5DNkyNAtSM/DdxfRQhY93TPMUBnqheh7clqpWshIPkOGDN2CuFfkhrPWRhz/IQwfAnbJUH9I548TfXrRZHciI/kMGTJkKBOQfE8YTMiiJ4kiQ+dB3iE91TCjvEL0vRnZK3QZMmSoORimZ/va7gKkDjHQE8wW2fVuONH6pjkdEX45lFZJowG3PqrQG5GRfIYMGWoKCN4NdHcBYmeIPuvB9x1QjjraQIkyVu1yBskjQ4YMqahxUC/IakCGDBlqhrgH1p3ICL7voad6095woJHRG5H15DNk6GNwo5Q+LwXvrRRDmjDdT56J/Y/94DoE73Pxhfyv9itKhAHBQwgZ+ha8nHmZKgTcxOWxWqBcUQd6Y+MxI/kMGXo50kOYsaGLz0sBI1aIhEH8PAYuduvn8W+H9+JLoZokT9gZwfddeDmkzBQrV+WW986A8sVIQm+bm89IPkOGXoSYFDl3qaVxA+53oV6MX4uJnms0PohbTPxpxOnpLIibb3QDyWfo26DM0IAsNHxe63pAGRs8eHDJMl1vyEg+Q4Y6B1XUydBf5/FrXn2LVWOMUTkGieeL+VEpyg0TVIPkaVDQe0d6k/HN0Hk40SNxua1mOS6E3ljWspUpGTLUOTBo9Fp8dbHvHOckX0uj1hl0d3zoXWUE378A2froTXeCsh03rnsDsp58hgx1AqpiLD7X7r97E3wIvyN0tSdPOL311aYMXYcP23s56o66EvfmHfVc/rKefIYMdQDvoceSoTQwrPTkMoLvv4Bwy21QVgs0KHpTbz7ryWcoG+UWlMzklg96IhiMNKlTLd14cd7bqmm5xNuVdNGTYqFdRvL9F143fC8Gl1qDuhnvppj15DP0GVB9ypEMxeELhnyOnSPoTiNVa8RpKSVdAUY2I/gMlIGemJunDvcGZCSfIUM3AuMAqbvERIexykirY7ieunuYNkP9ApLvzvJQjUZqdyGrJRk6BGW5l5TnugVD8gwp8pGW9GIhkBF8+cCgDx06NPmVoT/D6w3C9E139uipv72hN5/NyfdWkGsRJ5STibght5ctC65jkomBt+ZCHVN5rOLoxXI5CGdlOu3zYDg+bvWjc9e7G6cYsdvePCdfK2Tz8BmKgToC6VLnitm2aoPyyLRRPY8qZSTfi9HSskwGDhgoA6PGK5lJ29LKuP6YO3euvP3OOzJzxgyZPn26nb/+2mvyjh6n6e/Zs2ZJM8PGkI8WhaFDh+CNHofJiiusICusuKKsvPJKMm6VcbLaaqvateXGjtXrK8iIYfne1IJFS2TIkEFa0bSnldlfA4am0s+rxoSekXxbQOzx63IZ0WdIg3rCiBlk3x11hjoKycev09UbMpLvA2DEaMGixfKqkveT/3tKXnjxRXnvvXdV3lNynylz582V2bPnqEvtmXsfWw0kZ8tatTWQlACMpgvXW7XHz98AvR+uK/kPGSzDh48wol9++eVl3LhVZMqUNWX99deTSZMm67Xl1N9WaarjQt8dwMi4VAKqo1fJjOTbAmOKODKSz1AITIV1V2+eMuijS/WKjOTrDHFmBBJu1d563piRW8jMmbPk9ddfl2effV4eePBBefRf/5QZM2fCDHpfCzeknDxDQWTIHcJhqN6NI4fYUFrYSXHgf0imAf8gKnXXwmteyvhDBg+WRQsW2bM83qL3hw0dKo1qgNdbbz3ZbZedZastt5TVVl9NxoweI02DwirofEjB//h3X4BXJY4+TO+/ywVu3X1G8nmgCwyp6wTEZTdDBgd1pbt78/W8RiQj+TqDtz0xZWSMm7FFS2idtshDDz0sd911l7z00kvy1ltvyfx5C4xkW9XhgAH61MC2n/6MUY5RDM+GkN299ustHtxzrwdqOCC+hnM7XQbpD5GRI0fKuuuuJ7vvvrvsueee1stnKB83LAvAi+BL30A13tWNn81IPo90Lx5kJJ+hGLw33x11h3I4bNiw5Ff9ISP5OoOT/NKlrdKkjPj2u1Pl6af/J3/729/lvnvvl3ffe8+Gwsm2pcsYUlcSwNi5wasKyQdUSvKOBmuhsN/60uTVFoa0mpTo95Btt91WNt98c5k4caKmo6EgyZMmbpQR3R5HSH9QwKJFi+zo6AwJxf5lJJ8Hc/FxLx5kJJ+hGKgv3dWbz0g+Q4cgAzBX9G45p7c7Z/4iufHGG+UPf/iDvPPuu7JgwXxbZAfzhYFv72kHQ8dz9OZrg7ZFxEMsHlySEM6S4pU7qjC0v//++8sxRx8la665pi36w4DTOEgW/icIP4Itb3ND0dbgg5olvwQwIk7upDEjnuojW1GfoTOgN48wN19rmqN8pkea6gUZydcJtONuZHbffffL73//e3n0X/+W6dNnSnPzEusNY+CYn9fSqq4h+IH8Hx5WcLV2JJ8GBF+K5PPw1/Uctl7AMECGDx0sG220kRH+PvvsIyNGjAi9NfXY/GbFn7ls60dAe5Jvf6W2gODdkGSoDSj3fL+7O99/ztA3ALUxZE/9rDXNUU4LjTbVAzKS7wGgcQjdNT97zlz557/+JT/96S3y38f+awUT0ofecMcRYg2EiUDvqcKEf8lpd6Aw8bZHuniREioCresGG/JvtcV948dPkOOPP0522GEHW7XPEL9NCZgTbRgERdjPgJ4leSf47lrc0x+B4YTc6SHVo/HMUP+gjnbXSvt67c1nJN9DaG4OQ9R33/0XufGmn8hT/3vajNpi7bmDMAueEFtCcGSVZ5df643wmfhW66kHkmdcgsrIXP3BB39Ujjr6KBnc1CjNLc2qp2QzHh7KkX379HcXDWQE3z2gfjjBZySfoTOgfjI33x2jbd4grbdRp4zkuwlxO5JNbB555BG55ZZb5B//eFAWLVYiSwoIBRIUI/m+gJjkEX41DKB3n5B+w0BZY8pkOfKII2WPPXeTsaPHcNnUgS4Srdj/MbqDBuIhes+P3tzgqmf4bmKW55mOM3QS2FQ6ELUGZZTyitQTMpKvIQop9pXX3pSfKrnfcstPcw7MgKnws7VMqurN2ZY32JoGiF7JnfTEhpy5+2UtS2WXXXaWz3zmNFl/g/VkcLS1X9BVW9SK5Ikb4gQfX8tQG7jB9PUofi1DhkpBvYXoaz1kT/mkvLKGpJ6QkXwNERPRrNlz5NZf/EJuvfUX8u7U943EjOMwXCp52us/JO/D9XaeTo/+ZhMgGgDDhg2RAz94gBx/3LEyacJEWaKt8kKt5VqRPMYhJnhAfLOqUzvEvXiQEXyGrsCH7GtdZyF5FuDVEzKSrzJQpy8oHzBwgBLSUnn55ZfliiuvlAceeECWmrqZY2QIMtBSsF9uxMozZr0522KS5y+gbXqWai+eNgA6bF682N6p32CDDeRTn/yk7LbbbjJoUCD5WFu1IHn0XGh4PtZ/b8gL4lguYfZ0eph/h+SzXnyGaoFGOt+RqHXZpuzG31eoB2QkXwO0KMs3Kjnxrvtvf/c7ufbaa2X+/Pl2jwaAv3zWFQPWm7PN09uW5FPQ9LUuXWZucY1QgdhgZ999PyBf/epXZdRwrUx63XeHr/ZyF3SMcWA+j/Ni+dQdK3e7AtNhEneOpCldfmI3oCfLFwSPEJ9swV2GaqC7SJ4yyyp7ym+9ICP5KgE1upHE5L/99jvytUsulQf/8Y/8Tmh6H21nJB/SGw/Xp2HpS4ZEcO0aYqX9smVLZcMNN5TTTz9ddthh29y9apM8vfeOCB7UM8nHsWaaAxQjeTvqH3OKjKBYYU2hcG5VFxhJ78V3pm5kyJBGd5E88Hn5eim7GclXCUu11wknLVUC+utf75Evf+VimTNnnhUqFOzE3tbsZihFG+guVJTghjP/WA8r8RmyP+WUU+S4446xisXoSbgbNF4YuCmdB4TrRqE3gN7uwoULgw6SHgS/582bJy++8KK88/bb9plhvnXwxBOPy6uvviazZ8+2RszIkSOMy1dYYQVZddVVZbXVVrNPCvOlQfYr4JXG8ePH6+9hwXBpGD6cbmWbh6sI8huSJ4x66cVTFtBtWdByiV4bm8iHVDkrXezagDlk1iQQdjFYG1lBHti+Eg0aJmGks6SCcHsKNJRLNZYtCVF6Tb/YgjLTit802MmbWoMyHI9GxWQf15f4ei2RkXyVwMdjGrSS/fDHP5If/OCHMn/hAs1Q7lS2aj5DIYTKT5Vo+0W+VhkyZLBsvfVW8tWvfVWWHzsmbP2baLwQeLrdRkIR8BPDikGo92F4B2RInJGZM2fK7bffrg3Nv8obb7whc2YpmWtaII1F2mjBsKBDeuqUT18AirZQLdfYtwCwHzdfFkTHq6y8iqy19lpy8CGHyHrrry+jR482N/hXLRNicdOwvbHSXUawI1AOSqXRyRYMbGyQliXNloYB6UZKJ5JTTri4QcLmUQXKdn2osSCIN/olr0vmt6Y13A2bgpl70uuJ44A+SngBwVMPSum0WiB+lIG4serpSx9rjYzkuwgWiPGO+/vvT5NLL71c/vLXu20DF3o8zB/74rp8Tz5D5QhFFA16xQjFVglZKy7GbYstt5DPnPppJfyto4ZA+6JtfpTIi3iIvp6rhr15YPEbIIsXL5KnnnpKbr31VrnzzjuN6ANJhq2PIf8WyqT+DWxQo6PPug5QFe5a9UhZDr3QJjtqADJIe0wN6hd+QFqMS/G9gT332ksOO+wwmTBhQk5P5E0hw0VcMK40Hji3eqHX+cAShppn3NBznx5sPfTiSTOG+v7775ff/va3yVU0noIm36+hi8lrrCEnnXhiWIBFOlwn7VVTFA8++KD84he/yOmz0KN+jbxcffXV5dRTTw1vJBCmEWDvwLRp0+S6666TGTNmJFcKpDfS8YiRI+Tkk0+xT1nz3YsByWZZHYG8YYSru+p1TO5ponfy99+1REbyXQTamzN3nnzus2fII48+aoS/RA1qvu9Z+0zsT/BKEYotTSfImK/xLZWVVlpJfvDDH8iG66zTZvOhGKVyBD8Zose4UwH5Xa/VA8NOmmdMnyFXXHGF/N///Z/Mm8/0EDpK3EDeQU0GT4t1+PSYIxA9MtVk2kSX5oxXGHEHretJijR4ZpVVx8nPf/5zG853Iwbic8KE7DCuyuQyd85cef6FF2TWrFkyduwYWXncOBmnApnilimBeunFEx/icf7558v3v/99uxb32guBxsz6668n119/g6yq6Ro5alQgXVBBks477zwjPqYuQEfhjhk9Wv78lz/LyiuvEhoX9inI3gEaqHy7wsqIAjWVUtWQwUPkx9f/WLbYYgstQ2OlQRs25WLBAkZYO1BmlRDXg0LgflzW08dqofeUhDrFU08/LUcdc7Q89MjDVpnnzp/vNjVDN4GeKY0rerCfPOmT8qvf/s5Iy6sKx3IKOr1J71F2NETbUyAtlh6N4//d/n9y0EcOklt/cavNsbOnQA50zWsI1p6svPLK8t5775lxxlj53t3oLxbWBjyt9YS82X2PPeSQQw6RT37yk3Lwxw6WvfbcS44//ni59957c/rmmXqAx8PLggm1m3gWEdK/cOEiee3VV6085gi+AhAOYdLwocHZkdCbpdH0yiuvWq/Y4tKL4PqF9BAbgSohNKRefPFFefPNN/VpzaMKklsvZQuQbtLCyKFLLZCRfCfAMCN4+NF/aYv7fHnm6WeUVFqleWmLDBo8KPR8TLX1U6D6GqisodKzSW6japuFYAPUyE2Xyy+/XH6nRD9/waI2uVAqRxiepsI50dQjiDu9GIbVv/nNb8oZZ55hi+gGaHEc1NhkWwNbGlUPdq5HrqAn1ioMlIbwO9FCSCu9d/7HLTpK/tCtuQv/D1Q3iOsPYzxlyhR7cwSi4bfNQ2u+QPgueP7UE0/KCccdrz3NvxgJLVP36Bsjt0h7Vn+773457bTTbC2BNVaiPOC8p/OEuJKOAcRDG1K5OEXi12h8MX0ye85sM9pLeLMmqLFsoEOeNb0nAjeZxNeS64Aplemq23lz5wayWBrWWlRCgD0FygllSAtEEBtNCpK/lk8IaZ0zZ64sXLBQFvBqst3XG2WklbDqiegB9QBBB9QnGs3kYbXKPWUlQyfw7/8+Ll/+8pfl6WefkcZB2ntp0N6fXg/ZUl+FqH8g6JwKPHPmLLn44ovlj3+8QxYsCt8CKAUqk1cqnq9W5aoFZs6cIeecc45cc803tVGiccbARTDDnzpz5K5Y8vxeW3f+y4aHEzVEpzkMahpkw+w+nAyc4GPCf+GFF+Too48OPcw2UFLUv2VqyHklcrb2REnXP/7xD5mbEJUZ/nqBlgnKRZs/yknqehrtr3QNufyxX4VBhyP3WWqkl6NUWkEl9bUeSb4QaFhC+NQDGgBdQUbyFYCi1KIt5Pvu/5t89owz5MWXX1ZjFl6VIR8oPKF3yXlbydB9YOh+wcJFcsWVV8kNN94oS5a22oY5zUXqChXKDUUlBqO7AGlaS1/l5p/cLL/5zW+kWQmeXmVT4yDruZvk/toi99sKI4fgxtxqcmNCNyTuQsFVNxwUOPF37Zn3XX655YzkY8PJkfiiU4j+xz/+sbz99ltab5IdDBHc5f4YMdBGwcBG7dUvkssuvdymANg8qkNjHE9PdADyFR0aISfSKXgaknQ42qRNj/Y9Bv6qVJ7c/xgeViEQdq9FktY4beG3lpeknOuvcCMHHEcPFIGXzw7LVp2AegTRM8rIOVIp6WckXwGWKlk88eSTculll8vUqdO0sNBbYcEQhafNIFoBydA9UBOgecEKcRZE/vj6G+SOP95pfMBapHT14HUcKg6olkGuNujRQph/u/9+ue7b19mQcKM2Lhu07PERHy9j/n84C/DSZ0ay3V9hmHsNwwyhCxg4wMid0YPRo0apjJZReuRVOzecsdAjZwh+5MhRKDf4a+LU7lc0Y9R4D9T0PP/cc/Lwww/bfDbGrRjIK/SyZFGylwEZTENIr7kxRNxAeo/Iib6zyKchj/iaS/joUlKmCK7zQebgfjvi8NpAL1iQHNvdrH94mlwCKDXhLySq7d2cjruQt/UKa+BruaYMIywOpkyXS/YZyVeA59QAnX3OOfb+MTAjmKEOkc8X5u5YN3Hrrb+ywp4u8FSeYB/0/9h21EnW+tA3pPfVr31NZsyYqXGmcg8oYMDjC271Yvjv+Hohd45wz/5XryEsDAsjJRMmTpQxY8YogY+0FfHEMwYL0Nh8Z86cOfZcqVDSePTRR21uvhjJezwuvPBCOfaYY+TIw4+QI488Uo444kg78oliEz1nquDYY4+V4487LrfzZFdIHrRPixeYWLqGQj54uPnw82HF7vP3ehFCpHPIp5P3O3pZWroB1sBVoufYETKSLxMvvPSyXPClL8nrr79u813O75jbpWoB6UiYMSsiGWoDNLtM88JEizMitmiMBXkNNgy8tGWZXHPNNXLfAw+HhxQ8t0SvN2tP2PIOY6Ld3ZyYi54FjUh/Z/zSSy+VV155RRobmyx9NufK6JHeC4ZQ06Dug/C0XUmE//kL76Vrf1ZalrVoudX0L20O5wi94KUt6jc6wbU+o0HYs0qqzJ9TltkHYqONN7KNX2iAED+upxu9r7/6quo/+jxwkk/BaAcJPXpNht70XtqShUustxLXm7geMSrBdw14f/3uu++Wv/zpT/Lnu+6y491//rP89e6/mNzzl7v191/0+p/lzyos8Hv/val4lvMvDqMg9DbhOUiDCefhUuJGY88NtbmsFyNVLHRkpI9kWdKC06ISI3kkh1y4kVg5T8p6LqxkdNEWTmp+1H1HRBOOfuNYtkmn3gl1M6x5Qqz8mMJ4qn4pjIZoLcWJ3sm+WFmuXw3VEVSftpDrySeftN9xxenIRmSoD/Aa17nnflEe/9+zZh+am1ulpRlCS2cgv7s/UylT3muH2JnrpodMxX3ooYfkJz/5iVXstubQY9r2WiHgP34tXgR5im1Ty7a1bGPLdrarrhqO/F6OuXZ65/auNX4njQc9Y5HcmDFjZaWVV1Y/hpsQ73Zkoo55Z5v0FEbwtxDwb9bMWblplEIotOCwI7z5xhu2An3RwuRbEl1BGQEWcoIOC0nnUSwi5Wik96Ctjkhb30pfZ4FNoJ74UD7nabLPSL4DzJo1R77whXPlkUf+qQ1nNWa2u5L3nrpW0LyoxtLfUQ2dmOHUB2OBzKdPZ2X6F+SV196ShYsXddG4VhdO8C6+mI3zW3/+c02E9qxt/j2AXi99OP6o00HyvdN87xq/RUaNGilbbLG5HPnxI+SMMz4nZ511tpx99lm2ov0LXwjyxS/68QtywQXnycmnnCyHHX6YfPBDB8qaa60pTYOa7FPJ41YdZw0B5uJpiFh80iSvP9dac03b/pZ7GKO08TEkGUSPv3Wpxn1Zq0yZsqY1cjwN7aDXLG16KxVquMYjKvakP6/HudrQmzN3bhitSBoJ7eLdESy+qlDEzCeS94OzCn0sC2GkQHM8luReIVg0OYafvQtxWu2Pc9dsWjJQF9JkH/fsKaEZCgAb0KJG55af/VzuuOOPqjQ2SWlL8F0meTNUeckZpP6MlE5ML50AT9mTGHGVMKw50DYMueobV9k1VnzrCa56HPTeIXZI3YkHkmMTmb/85S/2Hjy/Y5gBtGKjlVwlr6pW26yGpLEwbudddpYzzvycHHPs0bLf/vvKNttuI1ttvZVstvnmsuVWW6pspb+3tGtbb7OV7LDj9rLbHrvJwQcfIsced6yccOKJctnll8sVV14pHzv4YNl///1tPp7dxliIVxBagYaPHKl+HKx1p0UGK2kXIlQjIxXyAh2su846Mn786jbXXzYBFy0iqpPcmepT/WMkAr0VbDx0BlXypmOEvI7FMrgAuBVLbwOpyqczpDu5mkiGNCjPabLnyLWM5FPwFj72lG0if/ijH0kDXzziQrlGpyzkSrFJmAElbEq0lep+A4w5YptfRDrJSRV1goF/4IEH5Otf/7rlddlEUmNA7pC4C2ALzp/cdJMtXvOd06xp6QRVQEdW2fWM/eHXmLyGHH3sMbL/AQfIuNVWk3XWW0/WXX992XDjje18zbXXlvETJ8rEyZNMJkxCJto1FtZNXmOyTNHe+JprTpG111lbdthhBznjjDNkzz33tD3rIfqi7x1rfNkI5qAPf1hGjhhpH8fJI4lr9Le0VUl+cJPsuc9eMmz4cBk8pMSnOvWy+ZAc/TewazyGpOCGkD9QWd67p/EzmhuUW476Kxbgx/hi7EsshaF3cgly+BPxtT6CdmlNwxWJdN5WphvLfQ0x2SN9O7WdAIvowDPPPS/XXvstmb9gvixuXqJGWHvw1otHZZVXMBRvR1V+q/Za8IXCxiInejrAtmfVEBrUe9s3XH8Xk74EUsMyOS2ZyW5oDDmF3edsBEXJH2JDJ26ouwLewf7Vr35tnwSmEgQ/NV/CCrxuA8TOkDfz2mmQx/PnzpW77rzT9JNLN41QGkPEN9EDS5LC1vL8poK3ylpKyscef5ysq2Q+Ucl7YyX21SeMl5XHrSJjl19ORo8dIyNGjZQhw4YquQ6WRt53ZzRBj4OUYBmGH6S99BFK0Mstv7yssOKKsvr48bK6NhbWXXdd+wQtowSlyiLz+ptttpn8SBvKa621pl0LDTnWp2lea9knn5n7HzV6pBx+xOGyjjY8llthrKyyyioWh0Ll3cx7dMlSrb/ja4WA4UM3bbb/LRftAnBy12vRZRYWAgshdq7gZylpB/XEdi1UsXZcgtwiv04ko56hqUrSGmuD3Nb6TxnXBIdx1FCGggIqVwJ2l7rXl4FtoLzTo89IPgI2s0EZllXXF335y/LGW2+qARyUGJWC1bBsULD4ZOe222wrO+64o2y++Wb2gY5hQ4fIoEFsAUoPrr1B6/tgaFlbnEubrVc4VPUxatQIWXHF5bUnOUl23nkH+xDF6quvZoW2GiAvBmu+Xvetb9nbEk6W3QWGpX14vhReffVV7c0vtAWC7UGcgwE0BlCBQJuaGmWcEuShhxxiH+xZdbVVZYoSLB+TgazpJUPmWtBMwjqTRJRs49/oyQziwAZ7L7+pscmG0Zlnh+CdhAsiUSkETnn/9nXfll132cUW+zXRkNA4MO8+fORwWXf9dbRBcqxsvNlGMlYJngbEiBEjTEel6oNpQG+HFfu5IIuCtwNqgTbxSI4Zaghr8ZhVtp+VgjLdX4Bty0he4QaCCrpw0RK5/oYb5J//+re2gnitiDvU2q7V3KbGBvnKxRfLjTf8QH78w+/KLTffKHf/5c9y222/kx/+4Ady8qc+JTvusIMaVO0daG+WPkJL82LtdSTv5Kjk+w6lC7fHttZSDto9Z4q2/o8J6VX2lkkTJ8iRRxwml379Ernlpz+VP95xh/z+9tvlB9//vtysuvqpXps8eZLpwaY2OLrw2yp9eWB+vkV78O+8+47tAQ+RNjQ0STO9emLV2rnRmnKAgYHcEc6phMUaGbwvznawRnS4KdYDJaqJNDYNkt322F3Gqz5XUrKfNGmyrLDCCjKUDWu092LqL1PSsCBKkG470IhQXQ8ZOtR6/7znf+nXL5WzzzpLTvvMZ2xh32c/91k56aSTZPMtNtf8nSxra0+eBgQNgA7Dim4Xim8a9OLRY/gOeWfBs+ny0f5am85oVWD9XPs/Dz23gNoG5lfa3+ktINboM5Y4JQVy2x7R/7TMdNRor6gM9wGgvQwKLxZPPPmU3PzTn2kvAiODEeYqhaIrBaNVVtWe1K677GxD8V7GhmhvctL4CbLDttvKKSefLNd882r5yU03ykc/+hEZv/rqtj84JBiTeyD40oWY20nnrqZSDgo9Q/IbtXe43Ngxsv3228lll35dbv7JT+S8c78g+35gH1lvnXVkOeZ7tRdo9VbdM/+780472bQJOogJ3jKpg4rdFqpHzQR6p488/Ih9ppV3TdmiuK0RrT58YV0sMXwujeOdd96lDYHEHeRUJN/1rv2x7e1KK68kG228sYxdbjlZhaH55caGHnfitiuoRMM5JOmjZz5h/HjZTvP7Ax/4gOyzz96y5557yc477ywbbLCBkftaa61lr/ExhVGL4VQfCeId8rJQcYJrV3bIX4tPmzgRXoEw1Y3VNz2tXYxS8LjFUhbKdtgB8imlvlCHWNOCsAkSv0G1RgN7EzKSVzg/zJ4zT77yla+Ej2loQalO8Qu+bLThRjJmxNA2fsYVEDJjeHKLzTa171ffeOON9krTCssvHyJokYyf9t8dC3/hQyCQYmE3FYlFPG5wFBa7r25DyzovDNV+6EMflJ/97Bb59nXXyUc/fKAsv/xy5q232WPhKY6QQcEhXHfYAej0WMcnAbrgy4E//OEP5eVXXpGhQ4aqP+6ZSnRaDfjwdynYfdXX1Pemyjtvv20NEYJ37ZUCw+q77LqrDYmPG7eqLY4bzLfFyyjLcVJLSdnQ8parWOhUG2dDRwyXVVYZJ2ussYasvdbaso425tZfb307nzxpsowdMzY0bCOCLzR/boQXHUE4V/FMjjKb/+3M4qMu0+WnADzqnUWuQRv7U4mfGvcyYpkIgzw0fD2ASgLqGfgIVlrPlm3JeXG0zXmEzZFef+U1+cH3vi+XfO0S7TCcJ8ccfYzJyZ862V4VvfjLF8svfvEL202RQPClnL/eDu0gpNXcv0C7jpXIzEFef8ON8q1vXWetPhul72IGY1rdvLIF50EHfUSGNIUroWi2RwhXbaLeJG5vv/2O3HXXn+T222+TZ59/3hYz0etkEaAV1MhgFaOPfIWiB6uu9JFm9YPXn8wvvd52fliLtroJJYNn+B3CSRtInPgcpN/xXgT/s7AqEPNAGT16pOyyy85yrFa8CRNWt2Fchz+bToNxhd4knNffeFM+8tGP2Z7oyoZuw/XhcDLQhtk7Bgt3PH6enJ132VG+cvFXlOiHJD09S5ndMyemi84BnUFc9KhDHnjECwODxT71xxx7rMyfN0+DzgfO3mYB+JH3BxcrrLiCnPLpT9tiO3akg+wbGlmq1DHK01z5WKZ1iG87PPjAA/LXe+7R3tRCbWS2WiOG5IeypdBM5BoNUD4hut+++8k222xt9ZFP6jY2NeSInmF2zqdPn6714m059tjj5LXXXrXn0Svgc7htoIG5vjfZZBNZffXVbfrC1trwjP6z4Xs9ZwThhBNOkBVXXCkXTxRzzllfkB//+EfmRyHgzMq8PsBz6P1LWt+33HJLGT9+vIWVyyo/doAvnHm2XH/99cmvwkBH4UTDbWyQb117rWy00Ub2ZgTrLpoGNcjvf3+HPPHfx4K7DjBQy8q+++1rfpQzkrJU8/h3v/mtPPPMM2GdRxF4PaX8H3PMMTYq57pC/88+85zstutuanfDNsauzzZQ956P2K6zzj5btlL9MsXG2zJsGMX35dkHYYnaHMD0FIuZedbRqNfIH9LItsfbbLut2ScayJSD9ChP6wDvGPVeZCSP6H8vvvSSGdXZs8Ne24EG8oWjMzA6V78oY3yoY601JyfX85KGk7yXS3IHwn/9zbflR9f/WO6860559933tIc2zO7HhFHMULsbjtabV0+tYFOR8Z/tSROSZ3W7gw0VWJ1pzyP6HM+6AP4vRvK4CVMey2zx3GmnnWoLDgdrrw7kQ8o/m06Dkzx2ngq9zwf2ta+UsSlLNUkeMuTTwXvtsYdV+CRlds+chORWDHSHMcvpuxxoYm+++WY584wzAhFFgRckedPFABsKP+zww43k111v3TBMr87LiXp5mqsQGvDJn/yk/OEPf7CGM/ln5BluBWgmQla8dUJZ22uvveS73/2uDe8PHjZYGwutNtxKw47P0P717rvl2WeflSefekpa1H2ch6AYyXuZJXycWINBf8fDt+TRd7/7Pdltt11lxMiRIa6qmHPOVpL/0Y8TV6BtIJYTesnzuvtJPpxf+61v5Uh+6LChWpeXyYc+/CH55yOPBncdoFEbBfvuu6987Wtf04bOih2W1xnTptvUC4tXQ14UBvUUjaHfb3/725bH5C/64q9SkmfL40MPPVRefPFF20eCDgrXyEsWepKj5EM7aH6jJ+LBYla822777eXyyy6zhgeNPOsERegLJF+Tut3bQHm4RivI9JmzZKka2NBxCAWqK6DwUfAmTZokY0aPUgOdFOBECoFOhXUsiISKZ9Bqq68q5593rtx4w42y++67y5DBtD6DW1rU7h+VA5IaMmiwfSlszSlrynbaWv3YRz4qp336VLn0kq/LDT++Xm65+afyy1t/Ib/5za/lN7/6tfxKz5Ff3Hqryc9/9jNz81OVb1x5lXxeCefwww6TXXbeRRsra8lq41a1ykKrmjAx0hwx4VbZVKk0EqZMniyXfPVr8gM1nlttvoU06XWtawbS5kL8wxhHWyT12o6DBzXKttrLs3lqdWuGlXuJdAXLtHV1zTevkfe0AUX8g0GJY9c5sIAMPTnRdAicaPqeevLJxL2KWUmNh4qmOpE8IE/8Hz9hghnPESNHhIV9RaLN5bQYkuBy0hGURJoXLZZmNbAti5fYOe/GmyxcZGVjoZ7PX7DA4kg66M37a2wIjRjKL0BX77zzjvzvf0/L+++/LwvnLZR//+vfsqc2vLbfbnv59Cmn2HDrY489Zs9Q1khju3QUgBGKCnlLo5NXM4mHXU8IgWv0SiEt21ZXiWtpM4tg88/rvzbhITnoTdSGfzRqqBNL0M0S9WeJNnL02Ly4YxFt2KAXb3gXQ5xVQadhP3N0w9f5CHux5oOl2UX9LSYQJSMkjz/+uEydOtUaXb43eiFZvGSxhbdg/nzNB/KCehnrJvmjIadCg52PfPENBsICnVkEyXTf73//e9tmnPBzfln+hDALpQ89eccFnZBHjDQxuvDAAw/aAlx/nbkvod/25GnlUhlp9T308KNyivYyFy4M+3oDCktXwaI5hqsxUtd+82o19vY2uElH8GyJ49FihVVse85f/koJWQ3e++9Pt3lMPlwyYfwE20p03XXWtV3DWHhFC5XvfrshgyCTjrSh3Mz3WDS3LFM9LZKp2pueNnOGGeVntGf13PPPy1tvvGFfHoPgefd75512lk+ffLKsutpq2uhIegUEWFQB5EZ7Dan9CvHUy7/77W1y7vnnqR60IqMb++fuo4SVAD15O0a6bVKDSuU/6cQT5ORPfVKGDhms5BT2ODf3nawmQ5MpCQ+r3HJ1/LHH2oJAg6aVWADvaeSvMN3Uor2wJvnsZz8n2263rWyovTl6kwxIEOt0zONncyiUvHaO2oJtdjH2gHS5McUz4snQKMPfd/zxj3qJe4U95BnrNasfa2oD8jxtzK69zjqyysqryD33/FVOPPGkxN/g1iPbrtdeCOqn6xySs6P+TD+Ktyzq/PSnPy177723xmPNXG/+gvPPz/Wq8aldLzMBdYywqHPsCshCwlHqx3BteAEeC1RTGpTnm2+6yYahPd0FoeHl77bavh4bbLi+TNTGHg0miP/AAw800jagi6KZ2qr2pUW22mor+dSnPmVTGyuvvHJqGq8tZk6fIfvvt5+8/PLLMlhtEMjnD0pO9J7omxHDE046wXTDiIN/9+CZ/z1bUU8+l49IpB+7b2Hl3ZYDnLKG5RtXXyUbbrBByPekntXLx6q6gn4/XD912gwteJ+UZ557VluES7RyhG06KykkxUC7nlfgjvr4x+WC875gRQVfy/HZsyWOB2THz/naOxrYMEDefutt+eUvfy277b6bbLrJZtaDx7W2JUS5WMNuVfJqGxrTAZUmjR5OU9IyIFaeDsBxicaVa7hg29g//vEO2wRlqy23svtDbf5TT5Kwi4ePoxjBoZM80xb/+s9jcsxxxyq5aIvbPcp5GOLYMSKS51H1nF4n74APUkPEa3uTJk3UspDsy97dJK/6PviQQ+Tee+9NVJJ/phDJU1bo9X3tkq/ZynpIfshQ3mFPHk+hYAzKdphHSZLXP+ZEP6l16w93/MF+QzoBscfhGdJFfCH5s885W9ZZex1baf+HP/xePve5z6m75BnCMP/1SqE4p6Geus5LkrxKgxIOBLfnXnvZ9rqBhBrkggsCyeOPh1soH7nmC+BoMLKfQAu9atWR3bOYd4yl2uNnqoXhch/lKIh2JH+tbLDBejJhYiB5bkLyjz32RHBi8W8f74A8yZ944olGwpB8vG1xOs0zZ8yQA/bb30iebZdByP8EOZLHEmp0tQKzTfL+B+wvm266qdW3niZ5nrf9E/S43vrrypVXXmGdpCFDQ7otDDvrvSjXKvZZ8LnKF7QXyiIfXpurJihoVLbVVl89uVI+eDZdUH1ocrhWvCEaV6YB+MjI1ltuqb15NiyhNxIoTOuOGv4BNu/Nb5fgZWVFlx6OP+9P4Q3C70b1tEmlQWXNNSbL6aeeKrvssIOR+xDtYVpF1Io0YEDiAw+5R23gPnpoAcQZoYEyduzyMmLYSKqxOeXIXDwfsygF85VHCCINvcYGLYuWLLaFOz/72c+sYdPGYFUA8o0eEAYyzsd0fhaFOmNXvhDZ+Bn/TVrj65SNAUYMTA2YEUyi7k/EwpAlc9wM6c6fNdtk3uzZMndOOPr5XD3OUWE1ssu8OXODzJ6T3Jtl37pHVxhsD5j/TX+kXxrCcLL+DoKLfIxcL3aPJ80B7paZDs2fBLht0AaBfUpVw0M4d/FrOYl0nr9WSII7hnEhe9tpkbjbZS1jxJPkRPHl/5zves1irXG1vKA8aWMcXfswtg9pdySDmMNXf0oSfITwOimaC58I5jfP50C987pXBkgfeYmE/CosMUIcVGdaZl0c9psjf8l19JyG6Qgdx1F3ia/l8rGt3oLPetTzSmDx0kdefOEFa8xNmz41aXC0j2NvRL8m+QULFsmvf/1ra2lToCssG2UBo0uLvrzqVS7wjfZq6NGUQv4+z1BovbLHvzsj7kcpUXdWOzGY8fVy4WHlYb1teimdhMVAlYIY6SfXXFEY5fvvv08WL+7a50gh+bIX2rXDAPskaiXAsLEj3eBBYUvaUuD1TDanocfH3vQurN8Ie9WHcxP/nZMpJrzXvv4GG8j6628gu++2m60hsLceDMHgQgTUKT4KkyaF9kju484qYhgZ6C6E7A898TxCPGphF2qHpM4oqWvbxaRSxCRZiNAdgRyDlIOcL3pSiOQ7jaLhl1l+ksdZtPfwww/KSy+9aG+DGKxll0gvRb8lecrt7bf/nzz11FM2rFiLmkzloAczMpmTqxascukfvQsy0IUUlJbq/cVIh+Nwl24ITMKtAOpNwbqT9imALII4bdV40gMj5WrO1Bv1u8y6GAebdt6gRPne+9Pkm9dcaxtpsIahUtiit6QX1ClomLP5KE1Ob6SVTXQ8lxMkrRUMJkPLDDGyra31qEtEm5GrRQsXJj1+jSPCULr2XhFe4eMe/nKMhR4u0qK9TBYp0eud+v778u///Efee/fd/Lfak7h7RDwd+ZLq4Dx9rQxodAvld+5a6npZSHq71itlDKyDwlQomJBmO8mlyPNRz8KFmsLDiaU4ynOl6dQyUorwHa4TJPbb84UyZeWqA38c7hdFPY28hrXOMYKVnKNqymY5IeDW4qcndPZY43TbbbfLzJmztR6F0Ti2Iw/HIN6Ad/FRD6t3KXje58tA96N9rPoJZs+aZbusaWmLikr1YZ+2LJD5XYUVzIokVIlqiaPQPaQ4Ctwtr77nngwp8aMKlSepQMmVLoFpm3vvvU9b9C9Zz75Me2SgopdarNQhCEz/sTI6wFOUTln+N8PUvPsN4Zqh6cgQWxjWLAoGVMWMcPrPdBr91j+HPWcP6lUV3ufna3nBeOcJwSTnPvEv702XUCVvEhBDP8ZSGdrEyRPKsVqJ7hCE41IeSrn0PEyfF0Uhz6JHeB6SZ80CwjSpXuycevQZt628CYEXNmyv9cHeaLE7HeVhErAe6JCxlflDDz0sr736mr1mR3zDVJB2qJL6Rf3G/7RwPW4A4DYm+FCfuh/9juQ9y9946y159bXXkqrsxSFv9KoFMtbmyKoO4lxpofFnelA4pNHmWvwjeSaCGRrLoZBXqdsl8859i33NPZ5kPPnFdMDceXPlz3/+s1baphzRI+qgvSTgWSq5EW0XwCLAJWq08kgiV1C0EjeEd7M1BsHoRXHqEO5NoUeC922h10KDIC80LhYxvz9/gfXweR3R8imZh3flpdRVFqz3bw8RmbiGqphfhBF64EFKwDIwOfJsTvLPERS/ckbZ77nbDkA7xnudPBlL7eABFoigBR4ixd20AI+b/S4R2ZxOCrjJX9L/3eMcwh0LU5+n/tJrRiB6yoj5q4j1VxTmRzhS3/guw5ZbbWWLVdkM6iMfOcjebOB10rZlIy2OEKDFTePCPhy8fz9t+vTQCAl3w//qJu7FI07uSEz6hcDzntbuQr8k+bkLFsqll10uAzSDmjFImoG8kZ4/Vk8t2BPbJrffggKdkvSlNkjfbOuAeV8+/WuVxVYihkqDuIGIq6/DfNIbQbSFjTApn4i9kmcShhTx76677rSFZQMGNqi/+M+crd5XicuMw1v6RmydhYbR0rxUiZ5FV3m/Q6pSkiSIDYzYt76xKfm2e1R8celmrhTMR33UBXBwjsvBPYx01zCgUZYsWiJNDdp7WoZu8YRImA8qDnuwiLSPIT2rtddeS/b9wAdkpx22l0022lA23nhD2UiPG260gfD9eU25xlfrcE6S+MfBJsDw89bHhhtuKJtusklb2XQT22lv9dVXtWkJVtWHxlpIsOknkVLIuSMe8e/kWk2g/oY64GtACFzLpzeyPB841bTFAgnaltdW8FX0aNMVdgzk20bMH302cmNhoCvE3OkhKoOhECVCHuE+Aq/kAnfVEYgvuzt+YL995dTPnGYfPjrhpBPlw0rue+y5uxz58cPVvl8iV151ueyg5YZdEy0ObSTxTBHSlQy7a8TZAfWtt98yW8PUVKhQ4YF03GPgD344+fNmDcIQPx0HBPJ3O4H77kCcFf0CJPjRRx6V55573oyIoUa6JiOZG2IXPdA9Wdp3QW7R8mfVcs2hgbEhyM03/1TLiRu05F4RULHJ82qgo7AKIW+Iy0cw6BiyTgRYCKnA+ZmLlxrQIOXFkJ4Ru7dddOGFctZZZ8kpp5wsJ5xwopxw4glyohp1pigqMZbs6//Rj35UPnHCCe0EPw877DCZMmWKjB4zRo1x2MgqQ3VBXsVEGc5VysxDwM50bGDD7ny86jd5jcmy3nrryQYbbGj7K/D6JbLDDjvIxV/5iu08WDaSaDz99DP2iqC/ZVNuGSsEnnXih+Sd7KtpL0qh35E8uO/e+2TB/AVWickANzz0DMPvzmdoDAoHLWT2VAb4Wh2f+zqKa2rq+1Nt7lernm1tyzExE9WFlYdG+ctf75F58+cr4dACL557EBKVthoIZTD5UQZYODpv/rycMWLXxuoUYY0Hf9orzElypztAGtDrKuPG2cZOm266mWy99dayxeZb2Aef2LqVuVJyn7QHwigOjOsqq6xiHzpK9+TZ/GWLLTa311L5WBI9eXr07aDBRYMYOalJGewUiAxmXY9m3js28bhEugSGKZCcb4x0hb+cdvQydwohvo7rYvpFhg8fYQ28lVdaSTbYcEPhI0d8UnmVVVaWFfX68sjyy6ubFe2NkJNPPtnyvqM6EZYys9dIg7z7znu2ORqvh3pjr1rcALFTrllA7L38WpJ9vyP5+QsXyT333SuLmfPUDIuHW4sXwc6BuVy1PPLiiy/IvHkLrIBm6Dyw4X+7/2/hHG0m2ZWzLVUG89vvvvuuvYEBinGIz8VVpXFIsrTRSW+lXGCEwnfniaP3zKsFiD3/V6gQc8ku++0uqwEluK9BVl55FSP7lZXsTZSsCYY8Cfli/xWE+8IwL1/l4/O7NBpcxqm/COf4S0/eXkMs0KgrFoqH0Tn4013zJQ/3o1r+lQN0FQsHDTuVj52FtSE4qrCNLQ1btm+mQbbccmO0wTfE1qZYR02FD/awC+TwEcNl++23l23tQzQdvXqbjz9h8HZNOY3HrgCbge2gvEH2dBSq1Zhw9AuS98KB8Nrce+9NtdeNwraoiTJzx0SqABvm1ePLL79ivc8Whn7CrQwVgixZurTVtvrMwZWpx1rUQ1rXS5Y0y7333Gub04QWfdsCwlnVCF7hBoVX4spFS0uLDS2C1lbf/gh/gl/pmDHvyNXSxkufMi/0P/fKnLf1zS9hhC3U5Nh5eEDqS0ISRHdAgxo+NeL2ZTETLg4Mc8kl4L6FeLWa4YcQGvV5Fz5O1NCkDTU1tAhrGwLBIzwfjuUgGGi+uDhGxoxVGTPatrnlfCzHMWMj4brez0nibuxY25ypo7S1R5LaIsRqvzQpseSuh9NOAE8Sj9rB7xW73zmwVTiLPZlSCY3apRp/Sh05nB87MGh+oFPWYgQkdztIMCQ/Z06Yk7fOWo2BrYmH8vmNVMOu9HmS9wxHZsyeJ79Tkh/Y0GiZl5sfVGViMHLD9lVQLKCHx3DivHnz5D//+bdtDRvv/JWhPLS08CY8Cxjftw9ohNXueT3WTp8Q4TLblnWGkij5mS8f1SkjhUBPBAIoF8QLslq0kCmopWrj8yTvY1VxbM146BE98spQTlqatSGKbllA1GAkY7o1vzAVbc1FCCES9dSPnVOP+wQIVY32gGC4/VoO+K/RyZv19sj5pm6t4aHuW5Y1286G8VMs2LOPHmn9z6UhJ1wrPzHodoT2Hk866UQ56/Nnybnnnmvb4rL//fkXXBDOO5Avf/lC2Xa7rdXgF/98a0EYuQOOUVMr2vGubdqCOOLz8oBeXNJAkYlUGYywkV+QvBG9plWzzvKRYNP2m3K8x157auaEhm2wFaVTu3DhQnnjjddl9pzZ9hZAbexLezjZ07Pn6PP2XeGktrW2j8LV8+qrr9rQK0bUTUcNymBBPPzII1btupJZ/RVUMHT3v//9z847+jpXteBZRZgPPvhg+BGhFllJWFTu5ZZbLrnSMXimRXvz7NJlPfmcsQecBwPvYHU5wvzzxMlBOJ80cZJ95Ig9y2kAlFtWvR61C5VrlerI3BNfleTZtqvnkeA/pKwJDo6KQd1a6s2vxEOexvKxh6qKzeurmL8uuHLnFYKpFnryfCRqk003lc033zyI9iZz5yb6267hJi/kzYorrGh5Wjlcd5qCHLmXB097vaNtFJP0Kqy8arqXaZpNkjvkJdMx1KtyQU+etTiERf3qbpAWGu/07DnGZF8ph/QLkgf03P/56CPJYhqU5En3vk71QBPCmhFL+RymFhA1vKz2pLdk5bATGdWf0djYYLacrVRHjRqVyz3XM3vehd31awNW9D/wwN+tlxygRKO9ZUiGV2SqmZdUZBLLvHC53mIIeO1n6ntT7VW2hsZC29rmDdXhRx4ht/7yF3Ltdd+Si758kVx40YXypQu/JF/60pfkwgsvtC/HYViCxSc+cUTy2o/Br7ZXugr1LbKtqvHkrHJY3FKPWz3Uxr5tnmI9PLuq7gg3SV+FjEc58Ckddkljkd8akyfLGmusEQm/XfT3lPheELYNDt82J45q2ItIMWDPqBkkqTNa65ym0VUipkPOA+w0/7MGiHWheZj8OZwcIeswWqvuyXe9lxYHjdyFCxYa0bdoY6un7DXhes8+nrOvBMVLSh+CF9pHtTfdJicNtck895VKf9yxx8qHP/xhGWxzSJ2rQhnEvkp2wQUXWE8zh25QJ58lfu21122OLkZNKr56OaAxtOLLBY0Qhi9ff+N1WbxokTQvXKiRVsWUKGt8/nT18eNlvfXXl/XWU+G4/nqyvgorktvOQ9amjpRGB2FGuieZQYqnt51v+ryZ+TgPeTxHTu2eKAtxFNLlw362keSEI6dtbnYM0muNH/1nYaXSn+LaGiOJd+0ZPYVywmqrlxge23a+qD4te9BxIj0NCN7n7Csh+z5P8p6BzKk+qj15frXJLs28AQWkMwhh6fP2i2HlgfaO5ic/+UkZPXK4vdpU8LWcDCVBWVYO04I9QPbac1f5+JFHarbRVwm7rQWdV68Spn1jX+x33n1XHn74EYqLgmqDEQg57TlfFVA8lF8nTphoDUTCKLxanogEYYSB3go9+QULF9mqYIuoOzHk44fBoqfIEOYaU6bIGtpzDB+mWUumTFnT3k0P9MGfus8Nkye/E3GkUx5rpY3DshH7kJCxn6s+TLitngfvOXrc8udpmA85ElKx/HPx//2K12M971QaFEn5cLKNg24j9l/obebLlMISpP8VE+KoR4urPhaIKF92/bVH8z85Jr9yEsN+68Pp6+0RnvZcCL9DfFBWbkrFRe+7mFt3mvyVDTLCMgNJI/jd9i9czSF5zK4X8kLh7s2N55/ptT5AnCB4OgHlztX3i548FeLBB/5uW296ByfXOsOAFpIKEQpOKMp+YbmxY+Xznz8zt1K6QZmKDMpQGSybkmNzyzL52EcPku22205aljTbgjMaAEg10NYgBbDjXcvSVrn/73+XRm1J834+w6VUMouXOkXcSBeTcpCUHntn24YVS8JC1zLFgs5l8uSTT1ljdi4jDukXjSnS7rmC+LO2AWNBz4CGTMMglcEqjWEFezDWvrQt+eO3Cb/ycPtLKnPnye+SMEcaOQQf9V/8FO8um5lSBQd95O+F+msP5MAiK1swaH8K/Y8gDPjBn2eYiuV1cj2PqBTwfHK1EhAtf44VJUFCnHKinjshmmuPU070J2kpIiGOYWAezXDNtGjP6Qk/7AIBhBRaemLRa47072Lwd8nzZZurIf/a/nHFEeKA5HacTNJbHty3RIhszk9Fzi/S6X/JXX+Ec5Cc534nSP/mCjp1uN57GuicelvuEH5HVqRPgKHHv//tbxUtvOgKrCDov6OPPkY22XijkhmQoTjMaCl5tbS0yJIlLCxbZCtdycfPnn66faefoerag8q9TO6++27bHANyp5JBrtWHFhxtB44fP0GWW34566V31DD04vXWW2/ZwlL0FeaGAWWxDMOEH3VUTNExSBvZHDTRYX61/EgHQgpSeygBazix5uPw24m2Ul3KhTdoPKzYL1trkEhfg6XJkp1PdykUva/PlyJtHov9Lyes7gRxcbIvZSP6BckvXtwsL7z4CnmqDcB867dWYO59+LAhcvihB5vdbKijglHvoEGGQFSQOqtcm/XcritxQXpUzEmTJso+e++pBT15UBHytfp564RJHPgyXYP27JkmAATPWbUqkhuRDTfcQFZacUX7nSfsYgjPtCxtkTv/eKcsWLDQXgHKjUilyp8bq1iqgc74kutRprIs7B3fYGlH7+R5G+lQJ21B3GLiwyjG4jrg/1LpKHQvPKMJyI0EEr/QQCWeHEM6tBwvi4TfSXnnQyguPF8OSI+9GaChQ/beMLLfxEhvWee2h0FqyktReSCdCxct1DRTBshPFomWDoH6OojRKtxzAfcqxgdL1R/KU+QHxMnCScKqZh2pBYibr8IvFM8+TfJeuN5+9z156513bU6cHA5qyGdotcG7mywQGz1qlP2u4/JRF8BoQ+ppyYO8WmZD8kGXrTJk8CD5xPHHyaqrjDMDCrhVTVV7+bGSogETT17DxHDXrNLjrQbYOLhRdt1tl4oS1NjQqI2Ql+Wee++VWbNnWXy7C53VBs/F4mC6gOkEjBcGl+kENrJhFMdEr5MFboDtr1SeqCqC22C0c42FRICTpvtpnxi13nXSoNNrxRA3VhDW4zQR30GkIREts4NJT04G54R7gxh+VSkVTmEQfyUrjWeIv6bRK0slflUYruut8vh2DZY2DZrgLewywrePzeTejnGNhdGQQmC7WdatQPL5xlP9Aj1QL+IGq6PPkrxnIvL6m69bL4fCEa6hhI4LRiXwFh+t8jXWmCJ77bVXckfDiwxJhjxcL5B0muDD62pxLiqibFvSvESGDR8mhxx6SM6PaiEO1SQqKk8+8WSIhv4XXU6QfrISpJ7RNO2++25KcIOMMGjkBGkL1aA61R6j6XKZ6eXnP/uZvPLyK9abt3KnQrnkqFYtHNPgUoHLtYLpMJy2gxtuWy+gZBjIMpA71yB+emVKZ+YOn3jG/Eue5Voa6ALSxg+MuH8lLP2lsJwY8WoPSQ1nIRQOBbTaM4Oa+CBJEl+kibQUlkFNzK+y41lYH2HEYumoDNY4iiRt8EuBBoKVIxYIc0zEEZ8Du6/HUq/z1QaJHY/j10Eyp73/vjQvCZ+19Wfsf9Ksz5p//E5AfrGWqlId9iQoM8Q7Hec+S/KAZJJxf//7AzbsaxlqBSRIVaEBERa+7r333jJCDQfDzMAMUC8pKN0Br2gIhM48uw9btkVU9bR7hAZN9D8W3JGLLFDju9EY7mrAQswFFMTyLpE333hD5i+YZw7D7SR+Bo+vSyVIPzdA+PAG71u3tKhxUoIPJjXlr/5kF0UaRdbQ0d8vvviSXH311fb1w9xuXehb7we981y41iPQYL3H2wZc45DonG1sjUCs901+cze5lzSqY9H/zA1/hUDa8QcSNZ1ESPuFGNHqv+C2sJ/pdJgrLuT857O1oTdoMqChoHg6kSZtWDRpeS6WjlLAwLPlb1NjeLfa0lAmiIOlVdPujQQX10kM+4qnug/bJPcANGyLr+m6gK64jCge/ec/zdaEN1VCTbJHVHzTJhOuKyBLb/i5bSGsdLmpN5BHHmfP+x7Kne4B2UGW3vmnu6SVIR6kRmBLUL7rzQcweCeecKmoGdqDxXIIpB4qXgcVx6xokpu5ldianWp8pqw5RbbZZpuqL8DzsuOCAQAsbuMVtfYlKcSp69CQkzQOHzFUDjzwgLJGKXIaUiOGe3bo4/OpTzz+eHiPXnWF8W4Hf7COYPPMjLrpodrRK6SCjkD4FT9nZZZ8jGOfXCunrJQboLqj4WJTC3aen3KgXlXSUHCXjELQQEAgjGLDwAlVauOgUuV0DSFd5aN58RJ54YXn232imtjHEoOOQ25qSAWQ/rQO6hHE0fPMGpbJ9T4JsmPatBkyY+YsPVcjl/sEY/WBMocOGyb77beffWCiTyu2E4B4IHUqmpM8BA8olFYYIylYmayShV6d/VQZ3DRITjrhE3qerqZdA34Tiovb6vfee0/efuud8MOueTyrn+MjRoyUQw45JGz+o2F5SNYbScJ2fYQeIUeuoe+l8s9HH5VTPv1p+d73vy/vT52qPXke1nuaDzmDhaexqBt6/974CsIIQJDuAvo24TxcaoNC1zrCiy++aOlZsnixHdNwnbTRjcIaHR0AF2lXUFFldFQ+ciMZKf9D3MMrlWU1oCPg9qWXXgyjas0t0qD+uAxqVLJT0mARMfXTtlC2ESRtVKr79qmvLigLyS7E2v5tlaHamWrROGJPii3CbF7C6K3IKy+/LPfc/dd27ohxsVizURQLP2nk9EZQDnJEn1zrs3jr7bdtNXStgTIxjjtsv70WjtoW+N4IDEilRqc8tNpWoBMnjE9+VxFE1SUBBp899AujuvkOqW622eay+2672aIhe/+7jf4SM5WKY4zXX39drrjiclsjcvTRR8uPfvQjufPOO+XuP/9Z7r/3XrnvHpW/3iN3/+lu+c0vfyPf+9735Itf/KIZ73oFBgyicaATl1L4xz/+YV+gtG/Fd+DW7idOOnJbCPaEFYca2wL1XtWRHPNh0bvGJvG1zXLBx4nmzJ4jTz35pJGnN4ZcsKNhcWCTrWN45JGHZcHChWEqtBtBB+GtN9+0hiz1sVj+MGUBvvfd78rMGTNNHw5TWYlsXUUb1mE9TNg3vjfCib5Pk/xSzcS33nwr+VUbhLa6EpgWvFEjR9irTw35utavQeXzHjwE78QRehuhchYXng/iO3e1keSP+yxcmjBxkvldDVjl1zDI3Xaihu6ZZ56xU5zgtC0itxUhfk5FPadkYWQ+8rGPyvDhI4Je9K6Fi3Buv8OX0qwkcrRzrjHHKrJwwSJ5/Y035Y47/ijnnXeeHHPMsXL44UfIYYceJocdpnL44XLIwQfLSSeeJBecf4E8+uijbV4RjKV8uGb8qMh1zzUdxD8oOtxLEP9Kh9vmnqZtiBJNvnfmd4Of8bMu7EX+/e9/T+75619l7px5smjhYlm8aLEtyFqyGFmirhTBi5yg92IgHXYMh7bgWTuEvGkbmwKIbttzHIuJuaAGgFAX2kBv0xAaPWp0cqE4eDJI+KOc/O3+v8ms2bOVwJdYj5lvIyxUXU17f5rc9tvb5MQTTpTPn3mmzJg2XYZpPoTQ26ZSM6mtJHdyP/llx+hCClxN3yEfb775Frnmmmstrm+ojV8wb74Nyy9tXqp5usTy9dVXX5OLL7pYfvXr39jIx8CBfLGODazIj6DHGJC55zXfjhg2fLiMUKnWep+egDWIk/O+Cc3EN63F5wuOQgZWF16Fl8m4VVaWsWPiSmVFKZH+BXTdosROq5sRjrhn6CQPPF8KC/fJxvZ/tODDMKqKGvyJk9Yw/7qKxEeT+Jf9qVWgN/32O+/YDnjtczV+GqkEbZ/Fb3ba47PIu+y6m3zqlJNlMKRmf/lSZXHQ9JuRtGN0rtWbtVH6w3phYWc8yqr6r9lhn5ZNxKZI1KW9HqjPMBTrHGwx4mh+lQl7QAPJHcl/PAjS9hOyCQgof8iHHX61AT3VSRMnJr8CzC3xtriTzvzzCMPKTz7+hJx+2mdk2623kcMOOUw+f8bn5eNHHCX77LW37LzjLvLQAw+Zbshrjx5lsBBCSlSSNJImm++wqx4qv4KFaBujDqBOcv4XEEIJVaiwX+iHOrbiSismVwrD8xVpZMpH/15/7Q1tDJ4vBxxwoJxy8qflM585XU479TTZc489Ze2115GjPv5xuevOO2XB/AVWXmgEaMFqo3fzO/2nNyzOyYnZADvitjgsfuYilGlo6/2p0+Tee+6Ts848SzbfbAvZS/PvuOOOl8+e/lnL3wMP+JDsssuuct23vi3sdMrr0+yzge5CXuR1mQdhtNomVKutupo2XobZiEVvB1rrs6D9xUKp9qu2qw+GABk29i1s2xafUkW47wGCdoJH997IqgUwEBDUBhusn1ypLej18aGaZm24dBfQ3cfVsHY9jYXKIdd6rnwWI750jNyFlyLWH/BVQluVrqB4lV3EtNDMmjXbhu9/9atfyT333iOPPfaYvPLKy3K/9mCnT5tmjSG3jpSxrsDj3p2gzFD3sEk5lJkQr79vq+28/fbbVG6X3/3ud/Lss8+ZnxAfbuKGe6eR5FtZWYcjFe8geAeCtwmYQrvrrrvk57feqj33X1t+8m78ggXzyy4XNHbBFNXZqFEjw3C9NrJ7O/o0yYP3pr5nva/ao9U+8AHZhxKrBdF6A4g56BfAOPB+NpUPQ4DUFPi/bKm2vFeRFVZYIblYHcS9HM9Dhu7maQ9mkZK9Icne5HbV4IaMI8OIfIHvq1/9qm3lGxYDcR+hCvuxFLQvpGUxTHUkT/tvFesfaViFJDxRA6jfkDy7s9kObZaGkJ7Qe8sjF2f7pdCTLbfaygy9emMNPd+4xoifi0Xg5RLhE9RkHvkKab399lvy4ksvaRlekAswnv/vCKrKqCwE3SXemHQniPe2225rdRIpO/zWZfZm0FKe0cQsoSfMZ7JVX02Qnh7xKy4jnUeyeK+DBoPrz8LVOIWSomEnQ+zkn+Up/li+tlj6h2pvnCVS+bJcPC9wz6r6HXfcSUaPHm0LqNnnoLej/NLbC9GihYGPdXTPq2wDrKdFedcyZgWuv8GNSXcCEsRAMLxWbcQGwY0Co+CLFy+UluYlOR4hp2uZ26SRBTSbb765fOUrX9E2TdgiNR9yeTHIpUWdtjnv+NEO4OHHUnvsvPPOss462pv3jOgSgkaIOQvOmIvubDLaPlaNuFUOa1yoXhjt2H6HHaxhWHZy1GF1ykV5sGmbDuwld3OiKvVzEKhbj5SDAmUBrz09pdPVKquvvpqMH7+ajB4zSoYPDzve9Xb0aZJnz/p58+aFAqE5XUvipTBMmDAxKqs9U7m7G65XhvF8eL67GzgYCYwYr9UQdqjseqOYdApWitT/ZbK4ebEs0J4elafT3nUCjY1Nstdee8pll1+qhmh1vUIvqDDZhz6yCvpIzv1eHl2LPbrg8780OAaY9WRapkVDCb0pikEsfsJpbpQrB879d3nxIq/PPutsGTx4SHj7gCH2LkHLcQuLRNmYSdPByl1FpSOBbWLf1Sh1Fkkk2GXvE8cfbzpiqqlSUJfSUgjoyOq+ntObDq9b2i9udwkUE/wOw+lafohCO+G/cJo/5y+6Fon/UR7pJLAjKiNm7DI5ctQIW1s1ZEjYOrm3o0+T/PwF8+1VkBbtXfo7vk5K1UerFowxoeD0gYJRLtAl+uU1mo6G3GoBMzqanbY1abRIJl+N2/91GkpkGH+IdebM6XapFiXJkTaqnA4dOkQOPfQQueLKK2TcuFVsWFFNoIrGJOqi5Eg+khDbxE102hnYwjyN0OLF4T1lXtUKG/EQFxY4JQFQ1xLxP/4Rw7aIfhe83x4My++6226yySYbm/9dHVolmqHBoj9c70S3wsZDHHM75/HKvOg0cmEn4bEt79777C1rrjmlU4vITBUpSYNywNsY/qqZv+qZt7WdT7w/ze6HDU1Nluf+BonlkUo+XvH/Sm5+j2MBsSH8gQ3m/yAtO1ttvaVMXmOSrLLKSrLCissLn1zOx6D3ok+TPDuTQT6e6bUEZXnsmBFCudCyY9IfALHTg4foewroGgPDsZoNOK/eedH/jUhbZfr0aXrk3eLun55gu80ddthebrzpBjnk0I9JI+RWYAyS+JqhtfPSoHdUjjgwgOyTP27VVeVjB3/UDGNoSKg7O4RZ9kLxKgeks0No2Rs5cqRcdvnlss4669rrhp2FB0fcGZWzn+XEIQGpdHF0ba66YxTSrOuNI3lv89JDhsoVV1wh4yeMb5+fuEtdq1Ro0rHT5/AR4TXPjqCPJPEjCzt2DyDjdddbVxq10RKHDfArFkd5Povt8Dd5jTVsLwnK8fLLLycjR4SFd6Eg4FO5vtUf+jTJM3fJJwltS88ag8rUku7IUkBc+hhYWEcjipESiL5n566CgocNG16WkSkXsTEx0WtqRqSleanMnj3X9mFoGFj79R6FDBhfLuN1ptNOO02u1F79TjvuKMOTr2a1aINr0ZLwid6oT90h3F1aNODQg+JUj2x3Om6VVWT//faXk048URscO8hqq62uBnKcTZsQB1vIpj37piaGPMOrh9bgUE/MX46R4IaVzNRVS+vAQFLFYPfUHeFMmTJFLrvicpk8ZQ0qIpMFll8cC0khX3m9il48DSZbuKdQ7/W/cPSdBfOSzwv8cxmo8RlAYyO5H9wlIcYOOwB1il3l0GUs+Gd61Ps2RK46RrQg2mY2hnzUDHzRcOONN5Grr/6mTOC1Q/WD1zMZ31lqetT0lik8Q7jNLUu1kdds5A5BHn7kkbLTLjtb+r2uOEgLumXI3cqRPk8DiCMjP+RhrM9C4BsO++67r72+t8bkydZwYW8S3nIhPsBfG/Q84mqx/MYteuPZDTfcSI444gh7JXO11cYrya9gu5d6Oejt6BupKAKIiA0uKAzpillt1NDrukApg1sfCPELhoM5wUAq1YYbqZ4E5RgyYmHQquNWlQ8e8EG56MsXyaWXXarEu5+ssPzytpEHvW0zVF0sm65TSGbzzTaTY489Vk4//XQ54IADZM0115Tx48fbq1orrLCikvxgdR+2VKXOEUe0xcJBPoWbJi0XSABSW3mllSzMQGZ2WhyJg8HDhtoq8huuv0EOOeRgG+kI9d1ulwVIJ4wG+TCu6i0JHxIKJJUX9EEANEpiCcPWwdaY4AH+VFBmmB5AjzSmQubF4tBzuxTCYSU8cebc7ibXDRp0o5YFPuZ0w4032tbb/o0D4loJ8DPk2QAlxw1tY6VTTz3Vvh+x1dZbW5mj153TCeeJ2OtoqgfKkw/tA8oG2vGyUEiYahg7djnZWsO46KKL5KijPi4TlZStYWjpTNJaJsgORoEO+shBmoajZb1119UG0ARbeDfKNxAqP8vqGgNU4X0kKW1Bop56+jk5+NBDZYH2NvmUIwVUi5gWh8oKRCmEl38UqsZnnw6fIe1LiIsHLXEzbgqOSLnFJ2dwUijneSp5Uai/vAWF4T3muE/Ik08+ZcZF2S1xEBCHXyrM+A6lJY9wzgIz4nPBuefJ4YfxmVuLgqEyc9k5EHdLi0WH/yBDen2LZP78Bba3/ltvvSkvPPe8/O/pp+WlF1+UadOn6735smAe01eLrNdqdcD+JbHWdOE3PkJUfEt71OjRtuPXKuPGyeRJk2SS9qD4vO/y2ogYNXKUjBg5wt4nHjFieLISOf8REzfOb7zxpn0Fkv3DZ8+ZY/cCEqUlRww1xMzcMR8d2njjjWTllVeyL8YVRciS4IWmacmSZpk+fYY8/thjcv/998s///lPmTZtmsycOdO2X6W8Wmj+n4Y5csQIe21qOU3TlClryPbbby8brL+BrKtGf+zyY6V5cbNtjX3nH/8o77//vsyZG9JAvtsCM/MpiYhepOzh59ZKeuutt56tm7BvxFt4OLbAOwSfCr733nvl7bfelrnz5oYNZxTkkJU5PY+3zyZPNt5kE9lwow0tv/hefQ7qnlFN8pfXW/ns6sMPPyz/eOghe5985owZMkMF/dA4A+RdGH2hIdCo9rNJVlhxRVsDssnGG2uPdzX7psKYsWNlueWWk+X0SK/+3nvukXe1DKLzUJ5CfPEHP9dbb317I4IjI0+Ul4Vadv/0p7vk1Vdf1edmaRzaLxBk+HyttdaSyWtMViJe3d6aIs6PPf6Y/Pe/j8lzzz0ns2bNtIXWzaor7IHNFKn//q0GGpljxo6xLWvXWntt2XTTTWXMmDGy/IoryKqrjrM0sejOvgDo9qNNfpWXd/WGPk3yT/zvWTn0sMNk0eLF2lqkVVx9OMlTif77n3/LiGG1CaenEBcPRkbcCFBpuqvoYByKQisjpLVY43b00cfKc88/b9cYjowR6mqopKXizR2GGzHcrExPIwwJtsoXzzpHjj7qSDWMkH7wt1YkT3w9ziXjrvdsGkUJfV5iBOcosSKzZ8+2jaHYIGQub5xAUOoVDQMwdNiQ0CPSf0OGDJWV1KAz3841epS2xaeSF8OYo23l8RBrCNje2JY/ND7wKWjByZ6GIfF49913LR7tkbjXP3qBEM1qq42zfQHwv2TeJ4in/THuGPp333lXCX+6vDd1qjZ83rXtWIkHkbS4WT4OMMMOcdGrIzyOK620kl0fNWqUxQfg19tK9ujRkcsLPYTUBkBe6AviQGcMYTsI03VTCqxzYTrsjTfesDD5nQYfjsEnYoGXo5SwGFUh3nFPGZAOXPswP7ogTbNmzbJ0eWOQNUw0BHnDAJ+HDB5i5A2JQ67oiAWuvMlCGldcYQULb4TqjYYA5et9bVjRIGqxRZhBT3H5pVFA/tI7RxfEzRof+hzlhDKTBu4oh+QL768D3FGmpmoekxaONHKJA+ng/X5AGaac0tgKjZOV9PcgWyhNvFdaRRsres5UEyMeIXvaluPejL5N8k89I4cefrgRQGNjbb4mlO/Ji/zprjvtHcu+tHd9XEF7aoFdWSS/eIkcdcyx8sILL5oRc5L3ShoO4bxUkedOKZJnd63W1qVy7tlfkGOU5Nkus9YkjzFzvXvcCxkf7nGdO3xohHhB4vaxEaauVDCK/HZoByvAmdJ0x7z7IE7NoNILGz5suBL8UBmphGhhJJJHCNt17Pcw4JSbwmUn7x7w+hpb7Y4YMcx2jiyH4IH54tFXYeiaRXiQ4zztBS9cGNI/V3vh9uU0dRV6qa1GNMG4NxoRQGKkOQz5B3LAHaRBGmICyuWF/Qj/hUZfGMXAD55vHNRkenCdtNVbe8TuSANx98aGg3uQfECrxq1Fho8cYWlB4jA8nsD1FHrLA6xBRGMCgg0Ez1syoedLWgjXRwVYqc/mMpAtozec+3z6MP0N2D+e+JLXzHkTtgvu0J/5qX4QT7+Ovrx8orNC4FkaYTRgcO9ly8MjLV7WSQcb+PhzuCdMpieYCmGOn688kteD9Jz7xANd2iEj+foHiXr8yaflsCOOMJJvSL5IFExg9RCT/K0//5lssMF69knGdqH04rJCKxt4Ze1uUAGLwaKjhI6ROu4TJ9i3CrSamsQIdTVcK5UG7nRI8mr8zj3n7ITkiV9yLxyqDowZhot4u7HH+KQNEPf8OkbP88uf82eDIVcDzLUCaXR/MeAYRo55I1gY4Vb+fiG3HpdS8Oc8zztyD9Ih+RNxujmHzDwOCGERjosRckJasbhfSIz07xj+LP4SPsRUyn0aPOvxLvSc+50G150EEX6DQn74NcLRHzJv/nz77UTs9/3oDQj0FBOxh+Fw93HYLk7KII4fcDeFELtL+xufx79JA245+rk33tARw/JMr8R+p1HqXm9BrexSXcCLCxnlf7VDq33W0z5rqwFrcUuuZ6glICmG2GbPnmW9nrThqDo0Wxmy706QnkIGvRT8GUgLw+zD6/RcGV5liJr5VHoyLja3quLn9Jqc5DvWaXV1EhvsjoCrWByxDiClXLrHjLE0crSh5hEjTDfoycuPp7fcOBSDEaiiUn8qSX8MnqGB5wJhc83T5OkC/hvCY+QDXSDohjl+ton2I4LuGGFBT2m/ygHueRZdkyfVhKfDyzrxJL6e3162uY7ghjRXmobeiD5N8lRYK8AqtQYV6e2339Ewkws1bVDUHqQHA0XLm3OkHkG8WHA1e/acXA+hKyDXbEizSHLp/SoNmKECjd1Ug8oxRrEbztO/QVwnEIytS6Hf/pz7V0zKRaFnY3E31ULsdzrdfo5OkI4Q+9WRgLjOeB2qRBzF/C8F6i4kT/31aQb3s5g/rodYYp3xO41CcSnkdwz3p9SzaSmEQm5II+fkbzoNnLu7/oRuMlE9AxaHhHmY2pM8qzFffvllrVj8CNd6M6gsGAkfJnapN3jFnTFjuhkz0NV4kn1Fs1D95h4k313aID2xkS6G2Ng5PN8w+uXqxf1w/9J+9la4LmJ9xDoplt7YTaXwZz2sSqQawB/KTiGyB92Vt7FuaxkmafPRk+5KW72jT5M8r/sMHjJYcz5fyGoFFiexYpX5ToLp7eXLDUO1jE2twOIyFtG8//40i2st40uWuv9DtPHI70VLar8QsSvpygxdBkD5KUb2tbaNhZCVy+5DnyZ5PugxuGmQLLN3JpeaGOPXANQXXkWh50s70tqSlGOXXgQf5gP1Xhn5VCgrcl977TWLaye5sCCoHLEETYRXeZij5Hd3foqyEqL3oco4//gNuOb30xK7d3ccK5VCKOSukPQWFIp7IaknFCL7WqOQTlgjwTFG2k0xiVHofjWlLyDU+j4KNvJggUVtaD2NVnn3nXfsXU2KRm9VbDxE3zsQXlliVX1g+NrFG++bm5eYgWIxD+jmNXgZMlQFTva+OK+7UWyOP0P10We07OY9liGDB8no0aP0R5ijqQla1cqrtKrMX7hQ3nt/qoXdG+EtfFCoVYvUG1gLQW+eUZRCr4M5uIVh62rjBcNEw7HkTmxVRjG9e3pKSYxC98uRDPWJQnlVqfQU0VOmWRxXjzalr6FPNaUwRy4BrTJ61Mgav/KE30qAavwbmwbJ0888Ey73MlDJfXW6E3pa6hHEiy1brSffTeA1HV7DAd1FgWn9FzLYxcRR6F65kqH+UCifOiM9RfQ0mOnR16tt6Svo0+Ml7NjEu77hAwYB4axtU6AqUO+oJPfcc0/Od4QxhCqHVHU4wXd3Ja8UbpQcGAnkjjvuaHO9lkBH9ED829yUJ5cMGXojYqL3lendAci9O9586u/o0yTPyutJEyeFPZ61QJko5fIRQo7VBKMFVJCnn35a3nlvqpF7S7LQjz9+1yPhewUn7r1hjszzkU+8DhzQKIsXNcv99/9d4683q6xcvIsFJucTl2NHj5bBTXyqMyAj+Qy9HW4HumsxHnCS55ihdujTJA/4IEF3fBeY5gOFdUnzEvsSU/PSFm1cBCJwMqg3ULG7s1J3FjliV4PgW2oObNQeQMNAeePtN+X5F17QBpRqucq2wvPO8w/v2dZ2woSJ9rte8zVDhs4g7tHXu03IUD76NMlDDBMmjLdPDXYHQo9ugPz9gQdsZzR68PUMr8xeoanksfQkyDtGFnznKo58WMJ+K9k3Ktk2NAyQR//5T/sUpz6g2g5fEuhKzHm2VTMy7YddR5Yuky222CLJ6yAZMvQV9ATReyM+Q23QP3ry3ViACIvvWb/+xhvJlfqGk3lM7n6tJ4EeIXSEHnwY1gv3iN0SJVtM0F1/+pON1Fi8q0S9lnr1wsg+EfeSUYQpa6xhbpJLGTL0KVCXnOhrbQu8nmckXzv0aZKnfPLt4FVWWUXPk6/FdQOmT58ht992u1aU7lvE0hdARY/Feu1K4IXm7Xhd7rHHn5B///e/4bOhyfVqIe2f/7aPuSw3NiP4DH0aTvTd0ZunjveG9UC9FX18uD4cd9xxR2WFpWqYlXRr3DIF7LR3yy0/lzfffkcJKAwj1xOowMzF+6Y3MbH2FAibXjJ7wiO8i14qTvPmLZAf/+h61SxF2KV6IFQ+VBMLmDhxojUcM2To68A2+B7/MfhdjpQLwujOVf39DX2e5Clr22+/fe6Vp+7gW8iTb1f/8Y47lOTrq/BS+Wid+6Y3PQla707kvHsOyZeL1157VR5++OHkV/dhww020Lg2VX3koJYo1lDKkKEjYCtqScDYo0INiQzVQ58hecxY3KdzGaCFZ7VVx0nT4CHSomWVd+dteLdKZYr52mU5CQu/lL1MfvmrX9mX6dJvghJ0Mak1qEzlzrXhJpZqwofnOELwDM2XC/LwiiuulIWLFladwPAt9NztrI3w/yabbyINDSHu3ZVnnQW68akOFx8a9QZWhsJANzSEKZeUfdeVf18fvfYHkHb0EBO9l6WOpBzgzm1Bhtqgz2uXsrbqqqvKuHGrhh+Y6ppa5lBo4cSpU9+Xq668SmbOmZvcyxNDIekOUGnLaZk7saelWsAvKnilBN+iLbXbbr/dFjdC9rVA3jwl5UXF/tf4spATNXRnnnUW6BgD7ULjLv5NL62aedpX4A0gyubzzz8vDz30kNx11102cvTWW2/Zlya7Y666HkD5wF7UMr3lNggydA79gOQHyIgRw2XC+PFaYrWfreWp9mUqBEDl+Ne//iX333+fjR6AnjapVNqeNOzkh4u9715hK/7NN9+S6398Q1kNlWqB3CQ84jthwoReZeCZppo9e7b897//lUceecSIiuM///lPuwbZZ0TfFpA4evne974nO++8s+y3335y6KGHyr777isf+chH5Mknn8xtAd0fQPnIGoS9F/1inATjvN2224TheyN5SCbcqwX4aAphQA+LFi2WK6+6Sp597nlpXsrcE5UGsu/+CoPh6inj5MRIr50eEgvrKh3ynDN7vnz2s5+Tl156OdFjbRssA9VrpIGRmWWtsvtuu8kQjbsP1/cGvPPOO3LyySfL/vvvLx/4wAeMqA444AD54Ac/aMfrrrvO9v7vzkZTvYPy+f7778v1119vDSTKLsJIyOOPPy5XXHGFrbnhd39BrXvzGWqHfkHygBa5DQt3M7dCQtOmTZOvfvWrMnPmzB77NKkP0fZUaxzd09hCOA+NoPKxYNES+c73vyvPv/hiwc1qaonmJc02GnTwIYfk5rjrHR7Hv//973LnnXda3mOoyX8aegsXLjSigsieffZZu5YRfQA6mjFjhrz66qvJlbZ49NFHrU6js56qT90N0kmjpr+kty+hf5C8lstVVx0n2267bXKhO4CRhY1Uxcsa5J///Lecf/75MvX9adKgl5UqgrNughv4ngCEAzlWSu4tyT4D/M/Q6Y033SRLNR34wQY4+RGT2mPF5VeQdddZR8MLvznYyJD9qk9glG+99VbTvRM4ZcB1xjU+0Xv//ffbEDX3OiJ63NSbEGemfXxkiPR5WeO+I/1cKeFZGkZpcI+GKqMf3jDiGsdqSRyPegLxyYbtex/6B8mrTcOu8Spdd+xjH4AhdVFFa7gPPPigXHrppfL2u1PtWn8BBtMXM1UCNbUyc/Zc+fZ3vis33/JTaaYnoV5gYoKZyeu3plCjtsXmW8jYMaOSC/UPyIKRI+aPOY+HWmMjDVHR0583b55dZxqF4epi4qMx9SSQ+9/+9jfZY489ZP3115f11ltP1l13XfnkJz9pOgBO/IWeTwsr6Pl6JZtopYGOuL5o0aI2zxTSVWcl9rfSNSu1REbyvRP9guSdCrbZZmsZrJWIQlop4XQWRnBqhJqaBhkz/f73f5DztEf/2ptvJTu15SsMZ2mpHIWf7qmK6T0spBydezTpT86fv0C+/4MfyNXfvEZmzZ4tDWqkIX6kW8g90ePgIYNlhx22V0JsyYXcHaF3BeibVeHvvfdeu7lU8sHzguNrr70mU6dOtcYAxAIZFpOYgOpF2Dzp3nvvlX/84x/y+uuvmzDUTuOF1fGUffQBeRci1bSgkzXWWMMaDfyOy/CoUaPs+ogRI+wefpbrb7kSp81/d6aRXG2gRx9tyNB70HCRIjnv8xg0eIg89PAjNkQ5bOgwGw52g5eWcsE71T5sm3sqObGD3mdL3dACFiWMIfKWhv/gPx6S1VdfXSZPnCh6R90WD7P4nUJIWDKHARZ2T7XA3ViV2yNB9cTynXenyllnnyN//OOdiZHlNbt2mq4haAhqTDSoYUOHygUXnK/HIbamwkKPVVnj6JBvleYfc+5MD73wwgvJlbAuAgMd54X7DWlttdVW1oMtBSebehLSwNoDevMxIOWddtpJJk2aJMOHD68o7rhl5I/Xb3mjYsqUKdrQ28EWLKIn6u6YMWOMhEEhP6ohoeyHqS7PN673RF0GhOvx4lgNeBmsFogb+qpW/Ho7yrO8fQSjR42Qww8/zCrNvPnzkqvVQblVjuHRxYuXyIsvvijnnHOO/ODH18v0aTPKfr4zYG62J1rfVLJKKxsfnvndbbfLiSeeKA8++GCyYKxnDJrjwx/+sIwdPaKqhqgWQM+u66eeekoeeOCBXL5znXKwySabWJ74NQwiQ88QJCvKC81D90Y4+bLWgDqHlAvXISR+4IEHyvHHHy+f/vSn5aMf/agt4IXwV155ZWu8QlDdQbjEiXwjXRw9D3sCWW++d6HfkDzVENln731k+eWX14oZWpDFKiiVKhbgRp5XqkSJR9uyWtkagh+RP77POQffCU+tqcmAgQ36fFggNHv2XLn66m/KcWpEHn3039Lc0iqLl9Cvz4Nzlxjx9SD8LYt+ByHOPVEhIQ8MkusuhscNNC/VNDdrHPX8if89K6eccqqcdc4X5MWXXs4ZM6Y72EkwDNPXGsSM2ISyMXbscrL3PnvZFfK6XoGevacHWExHbx54OWe+nfe9+cgO7mnsOng1jD0dIPy+YMBp0ADSwrnrwKUjoB/K7/jx42WdddaRtddeWzbeeGM75/sFjHygv3L8qiY837xu8NvzvrsEONGXq8+OQBoy1Ab9huQdwwY3yi677porrJWCng5GY/To0WYEWppblLiTxoDed2mPwnepIK+8/Kp87nOfk0996lPyn/8+Ji3alqA94XWHQ1yN/HfH0v2vvbjBoZdTrLfh8WObYRohvPd+/pe+LKd95jNy/9/+rnodYvcdYSOhwlqtJUjLpEkTZa0111KDxu/kRh2CPIagiTPk/uc//zm5k8daa61lBLXZZpsZUcS9ds6Zw+e98L7SmwdezztLIjzPFAYdA4TePXPwVt8T6QkQLvUrbqhlyFAI/Y7k6YvvtceeMlJb4jDJwDIrqVfogw46SM4/73y59NKvy9e++lWb9zxg/wOUCNa0HrpVejW4jVr58NklRqu6oVfqAonNmDlTHnjwH/Kpk0+Rz37uTPnrPffJ++/PyGUQr475sHUhPwtdxfB7a7u7gFHkK3yFCH7Z0nwaZs6cLQ888KBccsnX5dDDDpOf3/oLefe9qZZOVtHjLixMBO1T2x2gAbLnnnvIqNEjNV+Ti3UMX//AUP1LL71k18gPJ7otttjCFo6xaxvlIiYIyi274DnJc79aKFb+0tf5nb7mPcY0YneFnnOQh6QNHRRyV+y52K3Xffzg6PdiN+WCtBCnUs/iJvY/dutHQFzKIXrPf+B+xWG4jt2dh+HHOM0Ad7ivBvDT88b1Czi6eLggPs9QHgao0vqF1rxILllCpR8oRx11tPznscfMKLZogfXCVQprrrWm/PpXvwob2qjW2PisUWXx4lZZuGChPPH44/KNb15tm4s0DR5khMVOaa3qvriS9T6xMwd4HDwf3DRYVlhheTXMm8nRRx0la2vYQwc3qYEIi1QaBzVaA6B9VctfWapkuWRxjXtlidooRujVevANLLQL17EFLRpf0rdo0UJ5+5135Ve//o3NF7879T3bkAUyHzAwNApYpIincWXvXpARQcatvJLc9cc/Cl+dY4qmTUziDK1xFDGozCmT76XgxvrCCy+Ub33rW3aO/iABtrc977zzbDEZC9F22203awi4fjGwrFK/6qqr5GMf+5j1XguRR2fyg9EkyIj4z5kzxxYDPvPMM7YC/o033rCGB3FiOJzRBr4P4IjJhLA9fF6Nw19A3C+77DLbic5BeKTni1/8ojXM6YGnGzWA604ubgo5R9+M1PmmN1xjfp/ePEP1rluHn8fX0iC+xAE3PM8CYPRAPvCGA7sToiMW+iGTJ0+2hhl5QVyAhxubbc7xO9ZVDOLt7/X7KA1pIO34RZj+LH7xOiXxYtMf4jVr1ixZUzsxLDbce++9TQfolzKF7kCpdKdBGGbDko4AI0+sUfqj1rV3330396bHiiuuaOFuvfXWFjZ6wL7EaS8EdOyjLRk0b1RhpTXWR+DFn9TSS2QP70+ceJIWUuZ7QccFAtK9VXucK6+0fFhlrYLZYM8We1r9nj5zlm1A8uPrr5dFi8PwKQpmBr8YCmXBMgy6Xh8+fKhVzilT1pBNN9lE1l9vXVlnnXXNAIwZO7pArElNqEQtLVp5GROvJTQClj6NKyQ/SBs3jQ2NFjYLDDFgzz77jL2v/dxzz9tvtvdlaDk8kyhyQDDAPU7ytqBCReN2wieOk3POOMM0SizaxCTOshpHEYNXDsmjK0iJFeWQJ0DHGEbeH7/gggtkww03NGPJDow/+MEPcn5iGDmH4C+//HIzqm6EY1SaH4QPsfzf//2f/Pa3v5X//Oc/VgYgJQiCtBEOvyEyCGTLLbeUvfbay+Iybtw4c+Ph4u4Pf/iDNVi83nCEGPyd+Bg+zB6TCn65fyeccIItquOeExb+cf773/9eTj/9dBvdAFzbdNNN5eabb5bllluujX7cv1L6Ie6vvPKK/PKXv7SpEUZOiDfAb3+Wc+JLumn8sFhy1113za2niOPqIM484/kZA5Jma2PCg/ABawuuvfZaI1Fv/Pzvf/+TX//61/KnP/3JRoM8PsSD8DhSdni7gAWJxx13nDUWcFcq3YVAfB/TThbhUTYoE8QNf7gXlwvC4C2H7bbbzhY/7rLLLm0abGlkJN8W/YbkAUkNw+Mic+fOlWOP+4Q89/xzOXvNPVVJ+FEAFJrttttWLjj/fBm3yipamAbmqJunOMcvevAvvPiCnP7Zz8mbb72VhJtAibBUGA7PFpoIreqfxY7KxDVtYaygRob5VYz2Bhusb63elVdeUYYNHyZjx4y1OOB2GRP8NUKrBgD5zNfe+LTp0zV+DdY7eeKJJ2wR13S9Nm3aDFmo93nHnTpHskwfHNtUwvg8oLsrKfze2Bh67IO1937TT26UjdZfz8qLjd6AkC1tUeNoYvDKIXnAx2d4zcsX3TkRnXbaadZ732ijjWw9CV9VO/roo3M9O9c1q8Z//vOfmyHntbO0eSg3T3iO+FIOGFngFTd+c530IB0BAqKHzgdiSAfPYsCPPPJI+c1vfpPTR+xXOr4x4rj7OQvq7rnnHtvgxp91QuPt4q985Svm1t3TYLjppptsRATCA4X8jYG/jFixayMNKIjd3ZUTX47Eh1GOiy++2HrTjH6gi/h5ziHFtG7ZonfHHXe0/QMc9ML9AzzolgYYIyGMJlAm0umIw+Eez5Avl1xyiXU48K9coAuI/fOf/7zZCC+DxNvDKaYf9H/UUUdZ42uFFVZoF0+QkXxbtG0O9gtAlq0yctQI+dhHP6K9HCWf5E5pBKP1j388JGdo747VyIOtMUkhTGSAVi6VhsYBssF666iB+rpMmDBew9PL6qIzRc581gfDPL5WBBXi8e5778qj/3zUDM7ZZ59ji/aOPvoYOffc82x4HEPFVEGtwVD7d9RYnHDSSfLxo4+S07TyXX/jDfLfxx+T17Q3OX/hAhmgBoF4I4mmLE0BndVMbYChoUdxyCGH2Da2oLfYCozlT3/6UzOiDowkBo+hcAwkQ9gYaHqk9BIdbkwxuoy64BfXMJSxlAtGamhIHH744XL33Xebf5RbSMjJviMwhEtP+7vf/a4N85M31TbcDE1DbByLIQ6TuDNawvB3uXj66aftY0C8MltotKFcMDpz7LHHGrHSSfH8AZ4/5C0k15GeaASyUdKbb75pUxpnnXWW6QE/06MEMTwc8oLNhiBbH14vB/j/jW98Qz7+8Y9b+DReKwHlkzJOz99HWDpKa39HPyR5LRRKMxSLgz78IVl3XfYjTyqKXQ/SHsxtMqQWjM+pp35aLv/GNdZKbmAz+gShEvBqWItssvFGcvXVV8mIEcOSVmremHaInJd6godJHMHAhkbb2IdRAdvqVf20ldVaOY895jgZ1DRIwwuNklqDIdbjjztOVlppJRueR0eMIhA3XhdkOiSkONKupcWlPhDynJ5Qs03LQC5Nmhau1k8s24PyhlEHGOn0qnpIdYMNNrCeHz14CB8jzrw3BByDcoR7SBlj2pXyQ8+QkQLm3Sn7Tu7A6xvTCMSH+HsavH64G+oXUwsMH/tQM+mg0WAN2cR9fF4OcIswAkb80mn18EHsL+4geOLSEbFxn7ltep680siz3mv18AFpp/GFUJ9cFwA3xAXy5llI8ZprrpHPfOYzYT2LhhGTspcHj38c9xiM0tDgYAqH6UXsh8cNP3kOf90fPxIPjztxYZdBFh9TXvx6MVAGbrjhBhudIQwPB73gP6MBTEcwqsKIEufxCAFhEyfCfe6556xxEZcpj2OGtuhXO97lCixmW8siv4cMGSz33HsftcGMuUv41RahAIfry5TE+R73M9pK32nnnW1XtOBncDEQktMfK6+wghnUfzz0iBXOUAWCH6UKJXHkfnCTEKP9yz9DgW8cGN6VxWDSi9977z3198BkJbv3nUuH1Wmol7zDPkqN7habb64E8xdZtIBhYg+L+GOw8umw8+R3R9J9YMUExlTTo78O+tCBsudeqseBA9q2goMq26PGUXVDWMyAYjwhS+aQMdixO8oIm/kwrUNDzOdQAdM9N954o7kPZSWAXi3z4gzDUq7KBX5AFBA7K/jpfeN3Oj+JA4upGHZm/QBTA2wwg3vmj4GngefodTLywDoByAkSY00NpEi6EXQAQTphANzRuGGBGc9BGOwVQPjoguvM8TLnzTXuxXG97777bJOgOO6Ewed62faW4fqYCIGfE396muieuec4TwBx4xqjKQx7owvmnNEL+iDN6IP0EC/06n6gZ6bESAMjNMQJeNxxF7vFL/9sroNGCg0Q5uEJg3TgD8+jJ/KfdQC8bslvFsTFfrv/xIuFlEwDsX6CPAGuhxg8Q4OHTZe8POOOMkZZo9G555572ieRCZsPim2zzTamZ3r9pAO9kde777672VXyl+fxx+NndlEbBIXi0B/Rr+bkQT65FAgWys2QY449Xl5RwxSrQtvHyVke+fuBFCDyxYsWyHbbbyeXXvJ1WU0LOY950bJCp8eFWqGuvOqbNrQ+sBGjGVyUWwgJl011BmisfKOdhuRZhuSZL+Z9buZSR40aYemiErO6PsSg/LAqQat6SaVr1ErWqD32y79xtfzoRz+yOWwaGgHhWN8VTo1NaxgKHr/6avLt664z4zuoKbwGmUOi+3aocdIw1DQQMYyFwHUMHUby9ttvT64GnbNA7Mtf/rLNybJ4CYNJrw33kAhkzDx+XPYxkCxGY84Uw00elwt6ucSDBofD8x4SYV0ABtrjAvlC0oRPmWU192233WZ70RNPb3yw6h8CIF/wjyFweo88A9HccsstNs/rICziffbZZ9tcNiAc4PHhCClB2MTHSR6SID6sJWBO3n8D4kxc2L8ekonJBDe4daDDH/7wh0ZKsX4BDQuG8Gnc0GPFX/wi3riFkOmpUqf9K4HA/SFMCA6bEq9Z4DpHyoQ3DOixp+fk3R9vbAB0Qd6w3oAGFXGhnOAGkmUdBI2eeDrIccQRR9jHt9AJcXCdAOKBPyz8Y2tgfns80RcNG8oMIzRMKcWLGnFHw4+8Zl0Ho0zEh2kCfxuDeHt4lBfuk9dxHPoz+lVP3kDGm3BOwR5qr6v87W/3S4v2zn0eW6uLHWNQaEw4T/6H6N5++x2ZOWumVZBGhqu18Lba/DzGQY1mQ6OsppXmL3/5k1WQEDwVMjmWEGN13JnkTjRs63vaojwK9KmnniZbbr4pTtWoNNtIA+ce51oAb9lTnt68plgNw3j57W9/o42L8JpiiG/bnk49wfSjGWR71OuvxoYB8pnTTpNt1OgMVqOUW2znsAcKSI3hRtuNcRoYNUiBRVmQLPp2tyyswrCymppygrHlHm44Z06Wld5OpgDjTqOCXigk7Aa3HNDDxtg7KcUESQ8NYoNUIRGOkIIbdobOMdr0aOml0kNk7pn07bPPPvaMEwDDufS+eRaCZjgfEokBaRMmbxZApoRFoyUWD580E1fEy6v35Lnm+sEdvW57uyV6/S4u46SX584880zTo4N08Dy9XtbQEC/XA6MqLCQjLuiBIWvsEr16etK8lUAc4jJAmPRuafx4/GN4o5DGUron73H2Z9AnCxqxYcSJnf5oUHFETxxZCMm6AN4QSAMiZoTDe9ZxXEg38WZtBQ2W+B6NG1bpkw/owcNDtwjET9yIE18WpHGETtAPeuK+++e64TdlJM6T/oy2paKfgKKQryoiO+24vWy77TayZHF5i0CsgugfxAaZUbj+8Ic75PIrLpcFi4JxA9x3rL3GJPncGWfYsL5zQ0fi8Pjm452/yxfS1t9gA9l7n73tasuypbkWfM2hQVChTBuqk9W1gh704YNMJ2wy1BsqmeuaqGJkMHJM4UR2qO6BUaX3y5sNgLx33W+++eZmDAHu6FW60cUN5AlxxoCYGMalV01ZKhf4Te/fyQT/3QD7608YcMgC0sVQQ+YYcY7EE2HFOyTIqNBhhx1mow3cxy8aKggEDjFg/CEjjH0h8Ax+QqK4TQvESk8wTUydAelFIGOmQWKCB+icMHmdjbJGwwvCh9ggNAjehTwhbuiC9SFO5DEg7zvuuMMaQ+nRAtJSTuOMZwgbouXVNBpZ9JBpxBAPJ1vyiLgyuuHlxdOLQPJMSxQrL4Tz73//29xy7nGlAePlgMYaaabxBvkjnCPEgTxkCJ+pBBpAjICQbxlKo1+SfBotS1u1kB9vr8XlKjrva9s726XJUsusPYNA9PRkWPTmj3IfoU29n/Yq9lWhZ6+l3J4vB5jrYLLz8GuLFy2RrbbcSkYMH2FhUNk7inO1QJqptPR4tapLox733GMPM8BU4koIoidgPaNEVzS+Pnv6Z5QQVmjfg69zsODuxz/+seVFDIwgxtANphvWGHx7nZ5RDPTCiBPvo/u8cDmAbDDkcS+K8kjvbv/997f4QCIYc4w25cTrG0eeQyBx7jOMy1QDw95O5F7X8N+F3mwo9+3hhAJB4i9HiAEhLI5pvQF/rlLwzFtvvWVDyzSmgKeN8Hm9kcYJ6YHYGCkhTtzHvevD3ZNv5CGL2yDDNKlB9L/85S+NZNPxJV3uXxpcxz1+8t195t6JF2Ghexo+Hi/XE/qn0cF8ueveQXkh/zmmy4t3OljrkY4jvyF6GhS+3sL99fgjXKe8UIZoFBFXylUchwyFkZG8oqlhgKy37rpyzDHHmLFgIxf66YiWwsRVe0BsWspMeG1t2rTp8oMf/tAKHk/7vDngjE+VfvELX5C99txDmpeUT4DpYmy+a7yQ4VpBNtcKOhiG1agStg+V17ICUPGo+GEnOK2MXFNZY/IasvJKK4bwiWkJ/fU0iN+ihYu0obRI9th9V9lxxx16HcED3vZgIZb30AH5Q88LI45hxPCSJ27cHfSSIOBCZYU5boZnixFoDPxkISpxiN0THgaZHjw9anqB5fSc8ccJjiFahmrxh+s0QmLpqKwTN9wVgz8f+9PZcsvz7ObI/HfcyCXevOVALxRyR9B9KR1wD/8ge3rXTL2k3XOfaQpe6yuVxjQoD5AqQ/SM9kCcjDKgc8idcDws/PU8Je9oEKT1gxumfiB5jwduELMTmn4aDw7XNdNLvEFBmLhBuI4fLu4PQpzwD8Kn8ZGhYxQvYf0MfGHsoA9/2ObJyu2Btqo9oKgjvL5G0f6PGrpf/OIXMkgLq11PxEEl+eIXz5E99tgtuRJBC3c7RHVpoDIQLqzA21w9veUlss46awcHEagotQJ+e88jDof0r7zyStpLmWy/mauvZTy6CgwGaWDo9IQTTpQhamjqOb7FwGIkjKGXW9JAOYMUIFZ6PLHRpvwA3JF+FlrhJg2IimF7DLEb7mLAT+aN0yBMen74T2MDYsNIlwPix/M8Qy8yNupu9MtFpe47C8Lg9cHYhqA7SJXGCqMYNLw6IngHbsgjjiyw87UODsLjbQYW6ZXTGItBntAQpIwwHO896WIgPxDe1ACE7dd4DrJ2Yo5BvLjGVFgajMLwWh3lDD9KhZ+hc+gnJE/lpuAVNlRcpQc3Zswo+dKXvqQ9hlW1YLLQKdx3A+HCBjCsdue2fYGOh/UfRohe9G9uu01mz19QkORZ3LXiCivIhRd+SQ49+GPagg1bN1IJYncgfpZjE0avdZmKxoMpAT02NTVoJV3etoqVZdpb0+tpf2oBKjZwnYRzO9jcGdcWaQWuZ6Dzsdqz5Ot3a621pmiOJ3fqH+if+FN22JQkbViZ26TxAjliOBkS5RnPKwfXIB16mJ6nDvz0ld0dEQjGGkPt5OblgsYGvXGIhLgQD0c6LoVA3CE44ubxc78hznL8AMSL9MRSCzB8Hq/yBx538oORDHrL5RC8A7f0dJlaiXvDDhphrH4Pi3rLr/3Eg2Fy8p+8ofFV7Pn4Og0U4uP54HlA+AzJp3XLs+QViy4JMx0GjUOmI37yk5/YVAc69N4/KJUm7pW6n6HfkHwMCiCFMpb82SYbb2C7MdFr9nul4M+ZaGGDYp995hkbQiumXMokw5dnn3O2rThlIRIVo7m5hCHVAJYsaTYCZ8OZIUMGyZQpk+WrX/uqGuBmadD41tJ4lQOva8zbUfEHDQ6vLNUr1DzZUCU9JKDmwo69AW7cGCKHXNPGjvfKIRRI1YkSuEEGbqAx8CyKw3DHwDCzuQ7z8ukeZBoQDcO1aRA+8cBvyKGSIdZSxjvXME6luxC4j1tPL6iEZCsBw+but8eNMEk/Q+L0lp3kO4p3DNwzxM+CuDRowNCLhhwrAfEiP5gOQDqCpwe35GWh+LuOYztE3CmDjGLwTQLPtxjM57NokxX6rAXhvXzKHO48zzJ0Dv2Q5IFRciQJ9JTydMThh9lqYDMMFEi9VUyA+WAVgCOFulGuvvpaWbQk9A2R+JkgrTJYKz49qJtuulHdf1P2338/7fWM1+fVhb3WpZIsAOSZVVZeWbbbdjs5ShshV15xhfz05ptl3w/sI0MGD7LV7N1dGeLw/BQdYMysskcVva6Q6JSP/Zx37hdlqRpJy7teBMomxp0tPjm3sqo6d6PoH6LxxW0QNm7S4BoGmF4WDc/Y2GPI2biEkQLCSq8WdxAeBtk3sgHEA6En74vLvKeIdBaEBcFX0ot38AxwEi6FzsYRsi006oGOaeykpyoqCYfhdepWGoTHq4bkpacxBnpKC/C8R8qB5x1lhMZBIX/xs1A54zkafOywx7QFbtw99/CPfOH1vBNPPNHWieCWVxF9YSXuXV+cZygP/ZTkC4PyA7+OGjnchu3XWmttK1TJ9HdecFuojFkBZGiqVV5+6RV5/ImnQgPArgZx2G91T8Febrmx8sF995Krr7pcfvu738i9995jX4i68sor5KqrrpTvaW//97//P/m/22/X8+/IF84+S/beYzdZbvQoW9zHX08hX9mo5PwOn+/ker1WRNtbYFCTfOGcc2TC6qtqHiQ3ehl4ZY5NY9z4Yawx8gwLs4iKHnq8QImyFgvAyPIMeUbDNu6xQ+z4DcmzoUqx/CRsepEI/rohBpBaTPCVgmdiIa5IOpxy0ZlnKoGTrevXQd6QFxBkmlQ9baWAn+iQdQ1pcI8GGHrhPI1idRG3hMs9J9FieRzDy1kMfw4/i/lBWKx54k0QGqHoIw6fNHDOkdEpPpfMNyRYHPjggw+aboGHEUuG4uiXJE91KiaOyZPGy+fPPFMaBhZu5bbGjiNQ3JjPX7psqb273FJkDV9cLGlYUGWonkPUCKy8/HKy9267ygHaS0d222lHWWPyRBmuvSI3EDxfr0V7rDZaWJuQ7rXUBxg6bbKvsvFWQoPWAAgfFMnSugQkwgYwLI7DyGEs3fBC1Ow4d/XVV8u5555rH0ZxYQc4ly984Qv2cRLc8OnWl19+2fwBHDG8AIPLcGop0NtiTtbj4v5QXiE2N+iO2E0lcP87g842DNIoFXemLUB8n3rgBJ+eEikXpBt/GJ1Jw0neSbJcpN2WSle56Ch80sBrlIxAHXzwwW3yhGcRrlFuOKJPFpYyhfq5z33OdjrMUBn6CclTiEiqFqiCElzEwPUO228vn//8mTJk6CBZ1toiAwaqgVGhG9+qlGy72uXAALw+xetrMIcy91/u/rPce989ts0rLhGqgFWDpGBbBiQXEx/arRoAUHtToxZ+WgSKQnHuDlAhqYBeMQsZhVBx9aQnIlgMTHm0LpVGjdsHP3igvS7Z2MTuhOE2eq+3KJcCRB7vU+8Gkvxg8RKbpPzsZz+zb8Zfd911NjLE8dvf/nYbobdEY4Bjentb7xUyz/zoo4/a3HwxePgOP/djJXPxxeCL5zoLdBPHsVxU6xkIvrNxoE4BiDwN/HTBb/efZ0JdzJN3fB7f82ug0LWOQJjkTUfP4oaGCut2vva1r1kZZWdF5usduME/TzPnbLDEW0ts2sP37in/sR3KUBxBixnagWoyeNBAOeKIw20Ysx1SZQv3XnVDwWuVuXPmymWXXi7vvfd+uFEB3L9C0tPAYJeqyPUKRhcmrzFZe7DnqOHQwp9EP7GJvQosTGKkyA06qEV+4CfkSqOBOfdCi7uIA/OtzL+n48A9hOtxXCsFcfCRhUpB2E54ThydBX65FEK8psHTDuiR+vRHZxoqhAfB+5B1DOqjr1qPdczvStJbKl3VgseR8sJre7xW9/Wvf90aoDS8eQsDoCOE+OOeUSqeZfTq1FNPzX2VkPu1jnNvR0byESgqsVBdBg9qkCsuv0J233U3aWY4LGll0j23fe71PGxME54JLKyVRVXLvu7vT5suZ5x5prz22pt2v4VX3TqEeVIRiFNcwWsFr1C9pWKRE3w8h/yZPGmSXKl5OXbkMBnahLFJ8qwXAcNHD4YVyORBTBhxGehKeXDD6X4g9OT5alk8Z+/gPr3UQkPRPoxPPDsbH8gxPQdcCbysdpXgQZwG100sMckTruuRNPiahULxiP0oBl5P40MtaVAemA7wnq2nF8Tn9QLXCfH1xYRbbLGFfT6XPfaZPmK3Q4b2cUcjBuGca7wuyCt3fFMenaLbDMWRkXwKVIm4WrCIbuSwQdb723LzLayCLlODk6uQ1EkVLbZ5ok/A9rbNLc3y+BNPyNcuuUTefPtdSrgU5Pku1kXiEhv8DIlOlrbIooULZPnll5OLv3yRrL/OFMsyhulDXmu+2ZXeAYiUHp0vuIuBIfT5b1a0I/SuSwk9Kp5BMKDxEChlPVfOFbwzD2mnjSru8Yd3rkEcL4iJRXvei60UPAPBd+ZZB/GrFtlRx0hLMWGxoxOSw+PP9sPoj9+MSsTCNa+/uE2nl3uMBrA+Ig3y21/Lc6lWemsF0kccKXOUHfZ14PVAVt7zRTo+csQaEt74QD+eh+gY/f7rX/+yb9lTtrifoTgyku8ADQ1KylrfJk1cXS655Gs2xGSV0eqg/peqjAFcU2HuXgsmHf6HH3lEjjzq4/L3Bx6QltZlublgg9XHdhcydAHBiIT8GzlqhFx44QWy1ZabSQsjMGRN4q63gbLHnDs9a4cbTLZ9ZZ93FtTFEi+8SwsL73iTxD+reok2Rtl0BT+ddACNC77K5kQVg7BpULCpSgz8oBfPML+PAHCtu0H8IL5KQNo9/XGcuUZaIBtf7BaTPMPN6REN1yVbBDO3HLt3gahwg1sntBjEnw8G8UpjGpAkr+fxDAQICvlRj/B4Em8anTQUKce8IXLooYfaR4rY59+JHqAnfj/++OO2XqQ3pLMnkZF8GaAMUc0nTZ4oV115uay3zjqmuIbWcMMqsRJ3ayst9qUS1ubRP9SekEmDtDQvk6nvvS/nnnuBXPK1r8sLL7wki2mBpsqnUpD9lYI/QmHvyjBmpcDQ0NOr1GB2N/jUbavqtlV78bxydOmll8iuu+5ijS0zKqrf3taDj8FipfSwLXnin+Jkgx8+L4vstNNOtr1tMWHLWb5whvCtd36zkhm4AQaQGSTDKntIPiY+DC7v1LOYinhwz+8znMqGOj6s6kRWClaf1B3uCQv/+V3Osw7qBXEn3hwpt+WCZ108PQ78iuuc68cBUTHUnL5OWphH9p68i6cLIZ2e1kJAj6QnDfKdVyBpaMXhEu9y9dXdIJ5pHXna6d3TaGHzH8rzSSedZI2AWC/ojgYnaxQKTSFlyCMj+aKgclCo8pVEO4Wy8cabyJcvusi2pqUCtS2mCexb8jybF7bBXabqnjZjhtz4k5vloI9+RL5y8cW21/3sOdq61wJebnWM3WGEihmFaoNKWYmx7CnwHQL2zcfwnXnmGbLf3ntJQ6MWdeZTeimxu7GmV8wipdh4UwbIG8idVcq8i0xv3IXfxcTvQxQuH/rQh+yYNsKEzRfPMLAYZIf3Hgk//QxgmJ9erC/aK+QmhqeNI2nDf47FEOsiBoQICRBeR2HGoD4hHn4M96eUn3xpLn4Od/jlekB/aXCfMJ3o02li2oM98WMQBvWR+WymCRhBqCSd9QjXK8I0BD17GqM0Ih2eRvQIwWckXxoZyRdFe8PBEDu70W28ycbyve9/N+xOx+tyGISlYVe6tlWsfY+RFd5URubrf/O738pJJ39Kjjr6GDnjzM/Ld77zXXno4Ufk5ZdfkXffmyrvTn1fpr4/XaZNnyVTp02Xl155Ve697365/sab5IvnnivHHnecvTdKZXcjUWvCr2sjwmtyquslixfJmNEjtRH1ZTnwgwfYrUZebdRs6I0mkPwlX+nhsI1t+lU2SJBeHEOcLGRiftbn5JF4Dj6W+D7PuPCt97333rtdXmNUWQvAdIH35mOBbIqVDzbUId4Qb6HeaAzSiz8MbV911VW2GQrkSDoL+U+8GLL2xgbAHeGw1S73iV9HiNPiJF8peGbHHXe0uWTi4P4B9MZrYAwxQ+TEOY1CYTMKwGK05557rk0jG3d8k56Rg3T6QbG86G6QFuKCEGfXC+eeVr/v8N80bkDcaHJQH7w84U+GwshIvgLQk0catVdI5brsskvNsFLxWGlPEUWon0j4TWXNV1gA0fudefPmywsvvCh/uftuue7b35bjjj9ePnjgh+SDH/qwfPjDH5ED9fjBAw+0PZ8/eOAH5dOnnipXfeMque322+Sxxx/Lbb7R74Gh0AP7CKy04opy0YUXyi7aAxisvXqqvxkSPSK9DW4EyWtINm3QIAH/hCnDnE6GlQiIf/NqU6FRG4j64YcftnM30A4+pbrNNtskv9rid7/7nb3fnJ7PL4Znn33Wpg1YRc3re3ynnimKYsactTIxSAPkzkI1GgvxyEMxkBbE0xWnrVwQLnPI2267rZ07/Bw98GYEaxUY2fBw4rAIn7g76MHfeOONloY4/RAfw9neOItX9jviOPQUiCdfyfve974nDz30kKXb4xWnm2suDsrgY4891mZ6Ch3ghl4+9ynvncmr/oKM5ItCC5v9nxcH5YkFXWzN+K1rr5Xxq68eNqnhholWRJujb1/wYn8cbJ4zVHtTCxYukoEDGsxoz5o5y1aOIgsWLFTjGO4xArBoEQt/tMKr/x5ECCuJKacqIQU9hKii1hIh3ZZYq/DDh4+Qyy+/3BpF7GxnJrFAPvQmYNRIG8Pl9IjThhDjznw6Q5r06NILvyoFRtlfYUrDF+DFjUuPD3FkEZ+HH8eRcnzxxRfLr3/9ayPdmMTSYGMe9qZgDhowHMvre+wN4EP+MTDy9JxjP73usSMgUg7JVwuMjByoDXP0GPdA0Q9p4UMsP/zhD43oC4G4kxbswDe/+U3by51pB56PbQoL1GiMsTKdMLnfWcT+VhukmV3r2GVyjz32sJGZF198sV05BunfjHpcccUVya8A4kqes8jR3wzJUBwZyRcBBBl2w+PPOCQHevMobnBTg0yaOF5+9MMfyD5776WFT42MCn1066drYbTKo8JiPBO9Q3uAzvwAJW39T5YqcS+Yv0iGDBmmvrLSdJA0NjQZqWMklixhd6dGrfi0YNkulr3AB8vSlrBKHyJb1koMiZWFIANaOY9j3XV4pSwulhxZqI0SQq6l4XCExtUyWaZGnO/qf+c735YddthOdaiko/dMIxoppHCcg9Qz3Lj//e9/zxnHWLfMw2PwMXqQfCXpKeSWMgdx0JNODwFDTKzsZ+gY4x0/z3N8m54v2oE06WCwzzrrLDn++ONtt7177rnHeuy8DkVvnSFpRiTYvpRhWvzDf4TfjCJA1oXKFb1nf4UP+HP0IPnQCV975JOmTz75pPWkIVoaEt/4xjesEQWhAvyOJe45VwKmOyAzj6v7xRECv+yyy2xfdnYkRJ9MR9BbpUFCPFl3wdoI3o7wBlUcF+bgTznlFPuMLyM4kHxn4XGsFSBh3m0HDK0zMkEj/IQTTrBzpjEAeuE+DTnegWeqhg/VsOCTsuR5SuOTrXFZ6EnDtlCDsdZp6k3ABmboAiD8CRNWt97jfvvuJyNHjrICFgpZeQUNV/Z9+vJtc4Jg7AmqLgt1N0SJ0Yylavh32mlH27p1s802EdbY9TVAeOz3DRmliYepI94iYD4eg9pZYooBuUNSLF4kbAfGlnlupg3SU0WEC9lA5BAuhJxuJNAjZdj+9NNPtwVqkDpz2BAaO5+x5gBDngajA2m/YkDyLNCK4aTAuhVeF+Q+YR100EG2lS/DwDQ2+NBP3CDx55A47eWC59ADm7tsvPHGydU8qKtMWzAicuaZZ9qnjlnPsNlmm1nDg9+82njXXXe10SHPud+MFDCSSOMOXXd29Ka77YbrlcbMDTfcYLvcMeVAOfjIRz5in5rdaqutLK94rfP555+3OELs/izrSGhIMjVFmUe4nqEwMpLvAqgf9KTZMIehYYwUrWsKJQv07DO1NnSvRKz9bRe9kHhAwdQWKj1vFobpkRX4Jvp7mRZclpIFUSOaCE/zaOWNgu4BrxMyrVANsgEk0xbNJYI+IXb7mlzTIDnq40fJ5dozGrfKyqYcDTpxx9O9H+iRXh69m9goQ0yQEEYRQ1doIVdXsNFGG9k8O+G7gXX561//ap9VJT4eJze0rNb/zne+YwQE4njhloYKbiE6RgbovdEbIy3c55z7hMtviI8eq/fm0sA99xgBoIebdoO/CGHRyIA48ZtwmQKht19s6NyBn+6vnxcSB/4zwnLRRRcZgYNYV3GjAn3Qe2VKg9EKGk/EEbjuiT9Heq6MhNBAYh0Cozc0AuKwHR5eHG5PgLDZQ8HTRFw9PuidcsTrhQzpM2f/6quvmh7cHWn3eXxW3PNZ5IkTJ5oukPS0Uk+nt96QkXyXEAoShI4MHdxke92zgQPGMRgtKBp3LgnslIoZiVVUsgRJ3etFYBEi6aaXXRWoP+jQBe0MUsM2Yfzqcv5558qXzj9Xll9uTF5TFm5K370YGCxev4KMHBg8yI3eDKvhOXZ1Lj4NjCdz/ZRjhxMw0wb06DHSxA8yApzzHCREPdh0001zBtoRnzu45oaZI0IPFX+OOOIIm3PHoJPG9POQHHGkccG+5ixC8zi7XzF43sNjqBtSLRSnQijkzv2L70HiNG5YiMgmQ/S8ySPiRXwJm3OeSccPuF/cY1qEI687nnzyyTYawVawEB2NGsLifiF/6gGUGYbnyUfKRqF4xvH3suRAF+iMtNKDp5dPo4EyQV67m3rWQU8iX3szdBqUK6/e9OjpeXz3u9+TffbZWytyQxGya2ss7Jd1z9WtSxFwx6We0TaFnUFI5bJlS/V/PbeuPD2bVpsi+cY3rpRDDz7Itg7m8764pRHQ9XDrDyw68x4w5IAxw2D6wiuMnRv7agG/GD4lHMJ1ARA3veK4B4x7jx/PsBEP3w4/44wz2g37F4L7D5FThxjuxqjTI8agM1pBGiGBNBF4mJ/4xCdsbh+3pcIjHPwifUxx0Mv08F24jx/p64j74eeO+BrP0zBh/wB69LwpQKMn1mcpcB9yW3311W1DGKZB2OCIqQlIHp0W68WnUSgdsX7K8cPBc+lnS/mHHiij11xzjS2+XHPNNSsKj947nSamNmjgUB7QCekv1OjL0BYDtGLWO1fUNXx7WsoZRS1W5pw58+Suu+6Ub3/7O/LOe1OTCqkGWu2T8XniLjypFYUrkfGK3TBnbwP3XOA8KdjX/+AHst2220hLc4sJaOCeumtVx8tYDFglEP9Slcpj/sKLr8j+BxygbgfLEnp+RLhCBLIOLXPCMyOl10cMHyof+9jH5PjjPyFjx46xNRGeB6rZcBKhLxgAdMDuXjfddJMtVKNnhz4wdBhMiINeHXO16fSWSj/3yFMkNtAOiBQyZ6Eai8OIAw0N5kTpAbO4jE1zIGAQ+0GceZ5GAKvpWR3Pa3AsKmMEgOFYf9fe99rHeENgDM3jp2+GwpA0pI0bJ8hC4DrCAj/0xJQCYTICQjqIO40h/CIc3yyINQ2QJvc83pA+w8Z86Y+4kwZIhSFyeufMnxMvj0s6TviDAPxCDwzHsy0tawSI3yuvvGLrAbiHEC5ppo7hN/pg3h1dsOaC3iv64Jy44g4QTiGd4B+9aEYqHnzwQdMHjUXcowPSAHkyEkQvuVxQ/liTwUJQ0kO+05hhXp23MnitmLxKg3CZdmLXRBZuoge2psUPGoz46yB+pJ+yQBn3csCRPCD9NM7cHrmuAY0KrnPMoGVTldPeMmYoGzHJp8FcPaBCX37lVWZwmKuGvY3Ak+/RswWuXQBRdtjl5Ly3kfwBH/ygGuRBXSZ5zgYODEOba6ox+txnT5cdd9rRNrdZosaTOFkvX8HbC2kUi2tvQoumE4LAQEIKzCUjEB5DwG4ACxm1UunnXkckD0lAxi+//LLNXxMuzxE2xhbigSAKPY9pwQ/IFRIj/vjlR1bMcw9iw1+A8aaxAmlwjt/8Jo6eFjdZcdo4R9ABYUJsNEogZx9xIC3c9zQTBvrzRoSvHfB40zBggRg6Jw8Q0g3Ze08St+l4AK57PAHPOuGSfn9bAGIjHN/0hThQxwiHI2SJDrhOXIkz92J9FIPnH4IeWOGOTogX19AvaffV+bgvB+QZcabxRFrIe/KPeKIXeu3EvRB4ljSTdsiddJM3/EYcTtSI6wR/KevowMu653usa3/W3fR3ZCTfRZSqFmiWeshx0eIl9t7vVVd9Q6ZPY2OHQGGmfnMXfscoh+S/eeWV9vpePZH80888Jx/56MfUkPB+d1Ou/VIMliaH/YDgRZoaG8x4DB06xF63+fiRR8qokSNyr8MB019y3kEwvRakEVLEOGIQ4yqLgSVP6NUUypdieQW454RXiKQBYUEIhA1Z4o7nMKCEiXCt1PMO8hKSwy+uQypc4zdh4C/+YNQhNzfUpdIAPB24xx/8wH/8Js6ECQjP44NbiM3TEJOmu8E9cWNhGP46cE/DhGcAz7nEiH+7nxwhOgQ/iRtHvw9Is+vZGx+EVUgX6d8xiD+NC8Lyc8oR564LGgzecOBaOXC/eN6fIW7oFH84R0qB50i75w3xouHAdcT14WUBf91vR7G0e1w6ikN/QUbyXQTKK6VA1y5zxixGe/PNt+WWn94id955l7au50jL0kDMA7VnaizFMUE5JP+Nyy+XfT+wT12R/P+efk4++rGPWZp5578UyXOrDcnji16EyAc1Ndp715/61CdlrbXWlmFD1K9EoaWMW18ERhUj6OmPqy26KKaPUnriHnmKdETSHJ2M3E+OTkalwonB85COg3TFJI9gnJ1AywHPUC55JtYLwF8ExGkh3oTDMZ32jvzwNJdCufpw4C/kxnMePudIMR2nf6eBf+gXfeOnhxHD9QA83HKRLjf4E8epo/gB4oNuKQM0yjwOfsR/wimU/mIgHhnJ55GRfBdRSnl2T/+jbFI8qV5oG3nm6Wdt16t777vPCniuALNBjiEMQjtBBpJXA8tFzpPr37jiCtl3n/ogeaIGntK0ffRjB5uBgeSJr99rC624xFMVYpUYV+q2sYH55tXki184x0i+EWOs15tpNPCtAJ4sEoe+CgwhxtrTjc68x1OqCpfSE/fI07SxjhH77ed+tDxL/C8VTimQLow7x8744XFwo57WRWf8LKbPzqaxI3g+4n9ax8BJPo2O4uMEin5j4J+TfRxmpaCX7eWmkB/l6otniWM6njHK9QtkJN8WhWt2hrJB0SsmKBdy4hz4b+rF+husK5dpL5yduHbeeScZMSIsVIH0TCD0RLQaJOIodK3n4ekmzrztH+Lux7ZibrRy457XD7lGz33yhAlyperlJzfdJLuoXgbxRTluKxi+p7JXUuH7AjCCNAQ50nBCMN5uWF0nhaSriP3CoCMYT8T972w4xN+HaDvrB/EpRvCg0LWO4OlNS63gOo11640vJA67kvjgBj/TcIIHndGPI342jpdLuXC3xLWYFPIvDiuWDG2RkXw3gyKI0imLgwY1yI7bby3XXnuNXHTRhbLLLjvJ4CHF92EuVnzxqzcX7oaBDbLpJpvIeeeeK7+77TbZe5+9ZMyY8lf7ZugZdNWo0ljpCiBDn6ftClnVO1zPleq6q/lTb4j10JfSVWtkw/U9CDQfl1UW3r/08mu2WxhbXs6ZO1cGaDd2qba8GweFV4fYaEaftFfHRo0cKTfecIOsv+466kZk0UI2HaERof+ps2oP12NM6TXRsi6FBQsXyy677iLz5y9QQ669NHXPtAO9UT7N25CsO2hqHCRbbL6FfPazn5UN1ltfe/Laak+mYiO19HtQRX0+3o0b512tuvjV0XB9LUC86U36qERnQVmE5DMUB3pmUVstwOJDbEI1gG3oaqPPQVnOhuvzyEi+B9FG80bKelRhNI0dxe7/29/kzrv+JM8997wsWrI4P3TXukwG6/muu+4qX7/kEhk+dKiSeassViLgeSN58xKSzw/NdRWE7atcS6FFWxxXXf0N+dktP5Pm5qXSvJSVuAzcs2ipQSZPnGg7YO26y66y9lpry5hRGn9tiyT8FY7JeQbKSRiuj4e1udbVqtuTJO+LweJph0oRzwlnKAz0SwOxFshIvncgI/keRlB/ntEgRIyv7ZSnvXbeBX/sscflt7/7rTzxxBP2CtWgpkGy3jpr2y5ay40ZYyvRIXRIHg5w3/C5alvLJii3Nz991ky58YYb5a9/vUdmzZ4jY8aOlfETJthXpXbaYUcZPmK4zbUbuat7RiaMv/yYIQfKSF8ieYgHg84RdCYdxJ1X4DKURkbyGTKSrzMs1T/Qat360CfHrpNJs2fPk6XNLdI0iI0ywlxkkwr2mQ+2LNGKwpav+oRKeCbXj69SLpdD8gRl0rpMZsyYbceB+tyIkSNlSGNDbgMhQNostklEozcIMySgivYVkifO9OJjgq80HcSbMki8M5RGRvIZMpNat1DDp+TYquzXoqd8c37E8OGy4gpjbHOIwYMxcqxwTpxDlr40P8fofs51u9BNIEwISWTF5cdqnJe3TT2odKSloE3PxT1DXwYNFaQrDRSMeEbwGTKUh6wnX2dQE2jHkCm+0I5XSPR/iNyuR0hyr3UZ78P6ZinBFUP4NBMCtD3np11AeT358BfOQ1wGpGJONAumJ0M7kKd9oSdPfOmtIaSlM6D8pXc+6wixrjobLs9748TzwI+dgT+L3pGu+FUKWU8+Q0bydYY0yRts6L5ckg+/AURbjyTvccxIvjxQRfsCyUM4TvCdJVvfgrYj+HSAEzPois6qoe9CIA+oU0gtyL5WJE88yYuM5OsfGcnXGfLkGCEi+XZIHDLvvWSxkjwX/JpKnuT1YT/tBNz4cKQnVcrQehpAPvR85L3EFUxPhnagivYFkve5+Jh4KwHxpffYUVzx27dI9XDi83oD6UJIVyVkX46bWpI8RFpOg6sjeH5lJF8b1L5mZ6gIkCF/LLnLidblooTIdRXeRR+oFY72QKtWwNYBfHjVfiQSnHcWbohAR5XR08Cfp4EnXUqmJ0OfBGSDdJZoMdz0HMsheMpnuiFRDiH2FIgn8SXe3phLx72QZMhQDjKS70NoaOj485MZMnQ3nMQ4ulSKcntmTvB9AVldzlANZCTfh2AtfMEQVt84xL0LN9oZejfIR8pMR73jroKy4r34SgkeYq9k7pewipVN0onUO3nSUHE91WtciVeleVkK3VEO+ysyrWboFDoass+QAUAE3kCsJilkyJChPGQk38fQXS1/751l6P2oJfnid2fn4inLWQ8vQ4auIas9fQgYxO5aUdoV452hPkB5If9qmYfuf2fCcILPSL5+Ucuyk6E6yGpPH0N3zjn6MGyGDMXQWYLPkCFDdZCRfB9DdxG8IzPgGTpCpWXEe/D+HnYlz3d3+c+Qod6RkXwfRHcZuozgM3SEzpQRyi/TThlhZ8jQdWQk3wfRncYxnpfnmBF/7UC+VlvH+FnL8lLpfDpxgeDpwXcmXrVOT61B3Ltzyi1D30dG8n0QbDvbXYuVIHm2K81QW7jRd5KvFtHXmlDwv9zFoE5wnSV4wLNdeb4nQZw9/t1VfzP0fWQlqQ/CjWV3GTqInr2nM/Q+1JpMKIM0Osspi05yXSm3PNuVkYCeREbwGWqB7AM1fRSsfPcPglQrizGapQwnO5N15CZD5SD/aESRp0i1QD4NHTq0W/KLeLOBUnp6x0EcSn34qDNxJEzCixGHjaTvVwNxXDs65wipu1QbpK8WH6ghrt4oidPVGZAP8ceLugriln2gxiHy/xfie2dOIO5wAAAAAElFTkSuQmCC;" parent="8XWnLqeAtCPpHr6PN-5Z-127" vertex="1">
          <mxGeometry x="19.999999999999886" y="50" width="226.46" height="100" as="geometry" />
        </mxCell>
        <mxCell id="8XWnLqeAtCPpHr6PN-5Z-122" value="&lt;font color=&quot;#ff1212&quot;&gt;&lt;span style=&quot;font-size: 17px;&quot;&gt;&lt;b&gt;持续编译持续集成持续部署 (CI/CD)&lt;/b&gt;&lt;/span&gt;&lt;/font&gt;" style="text;html=1;align=center;verticalAlign=middle;resizable=0;points=[];autosize=1;strokeColor=none;fillColor=none;" parent="8XWnLqeAtCPpHr6PN-5Z-127" vertex="1">
          <mxGeometry x="9.999999999999886" y="10" width="290" height="30" as="geometry" />
        </mxCell>
        <mxCell id="8XWnLqeAtCPpHr6PN-5Z-124" value="提交PR后自动构建编译项目" style="edgeLabel;html=1;align=left;verticalAlign=middle;resizable=0;points=[];fontStyle=1;fontSize=18;labelBackgroundColor=none;" parent="8XWnLqeAtCPpHr6PN-5Z-127" vertex="1" connectable="0">
          <mxGeometry x="29.999999999999886" y="209.99666666666644" as="geometry" />
        </mxCell>
        <mxCell id="8XWnLqeAtCPpHr6PN-5Z-125" value="将项目的docker实例水平扩展&lt;div&gt;分裂出在不同的服务器上&lt;/div&gt;" style="edgeLabel;html=1;align=left;verticalAlign=middle;resizable=0;points=[];fontStyle=1;fontSize=18;labelBackgroundColor=none;" parent="8XWnLqeAtCPpHr6PN-5Z-127" vertex="1" connectable="0">
          <mxGeometry x="309.9999999999999" y="209.99666666666644" as="geometry" />
        </mxCell>
        <mxCell id="8XWnLqeAtCPpHr6PN-5Z-126" value="CI/CD 验证" style="edgeLabel;html=1;align=left;verticalAlign=middle;resizable=0;points=[];fontStyle=1;fontSize=18;labelBackgroundColor=none;" parent="8XWnLqeAtCPpHr6PN-5Z-127" vertex="1" connectable="0">
          <mxGeometry x="579.9999999999999" y="219.99666666666644" as="geometry" />
        </mxCell>
        <mxCell id="8XWnLqeAtCPpHr6PN-5Z-96" value="" style="rounded=1;whiteSpace=wrap;html=1;shadow=1;strokeColor=#6c8ebf;strokeWidth=1;align=center;verticalAlign=top;fontFamily=Helvetica;fontSize=12;fontColor=default;fillColor=#dae8fc;gradientColor=#FFF5F5;gradientDirection=north;movable=1;resizable=1;rotatable=1;deletable=1;editable=1;locked=0;connectable=1;" parent="1" vertex="1">
          <mxGeometry x="-170" y="1050" width="1250" height="190" as="geometry" />
        </mxCell>
        <mxCell id="8XWnLqeAtCPpHr6PN-5Z-97" value="" style="rounded=1;whiteSpace=wrap;html=1;shadow=1;strokeColor=#6c8ebf;strokeWidth=1;align=center;verticalAlign=top;fontFamily=Helvetica;fontSize=12;fontColor=default;fillColor=#dae8fc;gradientColor=#FFF5F5;gradientDirection=north;movable=1;resizable=1;rotatable=1;deletable=1;editable=1;locked=0;connectable=1;" parent="1" vertex="1">
          <mxGeometry x="205" y="1650" width="870" height="270" as="geometry" />
        </mxCell>
        <mxCell id="8XWnLqeAtCPpHr6PN-5Z-98" value="" style="rounded=1;whiteSpace=wrap;html=1;shadow=1;strokeColor=#6c8ebf;strokeWidth=1;align=center;verticalAlign=top;fontFamily=Helvetica;fontSize=12;fontColor=default;fillColor=#dae8fc;gradientColor=#FFF5F5;gradientDirection=north;movable=1;resizable=1;rotatable=1;deletable=1;editable=1;locked=0;connectable=1;" parent="1" vertex="1">
          <mxGeometry x="670" y="800" width="420" height="230" as="geometry" />
        </mxCell>
        <mxCell id="8XWnLqeAtCPpHr6PN-5Z-81" value="" style="group" parent="1" vertex="1" connectable="0">
          <mxGeometry x="-170" y="-110" width="1230" height="190" as="geometry" />
        </mxCell>
        <mxCell id="8XWnLqeAtCPpHr6PN-5Z-55" value="" style="rounded=1;whiteSpace=wrap;html=1;shadow=1;strokeColor=#6c8ebf;strokeWidth=1;align=center;verticalAlign=top;fontFamily=Helvetica;fontSize=12;fontColor=default;fillColor=#dae8fc;gradientColor=#FFF5F5;gradientDirection=north;" parent="8XWnLqeAtCPpHr6PN-5Z-81" vertex="1">
          <mxGeometry width="1230" height="190" as="geometry" />
        </mxCell>
        <mxCell id="8XWnLqeAtCPpHr6PN-5Z-12" value="" style="shape=image;verticalLabelPosition=bottom;labelBackgroundColor=default;verticalAlign=top;aspect=fixed;imageAspect=0;image=https://developer.apple.com/news/images/og/swiftui-og.png;" parent="8XWnLqeAtCPpHr6PN-5Z-81" vertex="1">
          <mxGeometry x="150" y="80" width="171.43" height="90" as="geometry" />
        </mxCell>
        <mxCell id="8XWnLqeAtCPpHr6PN-5Z-18" value="" style="shape=image;verticalLabelPosition=bottom;labelBackgroundColor=default;verticalAlign=top;aspect=fixed;imageAspect=0;image=https://veriakademi.com/images/cpp-qt-programlama-odev.png;" parent="8XWnLqeAtCPpHr6PN-5Z-81" vertex="1">
          <mxGeometry x="351.78999999999996" y="80" width="201.33" height="90" as="geometry" />
        </mxCell>
        <mxCell id="8XWnLqeAtCPpHr6PN-5Z-20" value="" style="shape=image;verticalLabelPosition=bottom;labelBackgroundColor=default;verticalAlign=top;aspect=fixed;imageAspect=0;image=data:image/png,iVBORw0KGgoAAAANSUhEUgAAATYAAACjCAMAAAA3vsLfAAABgFBMVEXv7+9ChfQgISTz8/NfY2j////19fVPr1NcYGVXW2EAAABYXWL29O/y8e9SV11UWV51eHy/wcKztbamqKp8f4O4urzm5uaKjJBLi/VOU1lNjPUyd+k8gPCUl5lqbXI5fe4qcOQcZNtVkfbGx8kUXdUOV9GAg4YuffRduWMiad/c3N3R0tPc4vArceSdn6KqrK5qof1dl/cATMkWFxuFsf3I1/W4y/Fkvmtyp/+UtPIhHQ4KDBEaEAAfHRnb6N3n6vBDrkrV3vBNqHCtyPhQskKNqeYAScsmevYkYcUaUbAJT8TS2OQQR5UiLEAgGQAALniIms00NDZGR0gKEh6qtM0QBgBJZrNDgeEANashHQAtXs0uRnEcKkoAPsd8k9hEbK8vPFNhg9dDctcnkDmRyZRZo516w4Gr1rA9lUw1fMfD3cRas2x2rX5Hl6IveNIXMBhQQ082YDg8ja0gUCMvHy4QHRFIon47icFLoU43ezqbyJ84UzlRiFVQqXtUqZa0yPaQY545AAATyUlEQVR4nO2diX/b1pHHQT/4CSAunqBI8aZISqDMyxItWZFoRbG8ySbusdu4aWu3dtrEcY/dptlumj38r3fm4SAuS6Ao2JGF3+eTWMJF4KuZNzPvADkuUaJEiRIlSpQoUaJEiRIlSpQoUaJEiRIlSpQoUaJEiRIlSpTovZYiy7Lyrm/iuknhTnf3D07kd30f10vKSbVfrVYfHSTclpCy009VKqlUqp9wW0LyuNrenwC26vY8ad+iq5+ajMHaqhvbp4m5RRX66Po6UGvcaT1MsEUVYkMPbWw0NxNskWVhA2rb3QRbZJnYkForwRZdDBujtjlNsEUWYjOpdc8SbJEF2KomtWmCLbqUnUf9O//y8ccff5JgW0L0Xz/97P7jLx5/cf+zn/z09ru+m2siwvXS929ZOkpndPqu7+g6iA5uHd5y6fBuJ+F2oWgnffeWV+liwu0CESNtGVkaZJldukPe9X39yEV+xmzt8LCXNfRO6a4J7u67vq0fuWiNGVu6Tm+b6rHfDwuJm54rZl3p0m1HeZOjcUVuSiilS1+KLHEONfSwY5e5xNKiI4R0V7jtUg9JHtauxtxoPpOpD5Z8AJKtZ0oRP5/0yuVi8Pq0l6nH10BTHlu2NOfGRhHb3Z9fkZfygiAt+ycgWVXKRDsHDuV5VQ9spxlBzcaGjfwbIuJv3w6YWzp4K5e5Pj4Vry59liZExZbTeL4cik2LDZuyhz56OPJiy+LG9L9fxYfSnsBLvBbiRedpCWxgzlo5xJpjxSY//AUSynqxsUzu8edXUdLrKi+NpOgMTC2FjcuGFTWxYps/+SAE2wCxffHLndVH/shIFHpU5dXl4vJy2EjYtePEpswqiO0w78VWNLFdQQ8SrcPN05IgDQMQCGYIJHybHxtsXxzKMpo3ArHznTixyfsVVhKUvdgyGF3vT3+1MjYyAB/lSAdabT8gauSGw9HA/fyEDEbDYc4AKB5shML2kZnEEKoX8+ZBYR9I9Wx+mM/qNE5syk6l8usjltu6qRE0tqPfTJ+erOqltCZh8kF5XnNyKJrXtDzVe6ooSZJaHzh0aJFXYZNYzhjUwkaKmlijRgG2az08kA4K7DyxXM9aJ9KCZEccopdUDfZq2jBObPJppfL5Y5akubGxVO7+p9OzZyubm8SrYCV0KAlO9krzkjQaIAhNFHihbPMkPUhV2EahXByoNjapZqgC5n54ATosQ2AWNU3iBbVknkgLgoWNDkTYzi4h1kkvPmsbt9fXzd6PuitrY8XV/U+m0+mK1oa+VsemylB5zU6tAJtQEyQh3+kUC0BKszYXJF6ShtlOsaQKal60sInCEJpHvlSqg7XRmsoLWi3b6QwFkRczJqyCIDJs2CLwWibX6YzqcHopLmzKSaW9XvntB4zbzy0/1TWT2k+m0+7T2Wrc4ImkPPOtuiDmrGcAbGASGQ5aMEJzKi+aR+Q1XiuZGwewn7ex8QCqCM081Tl2dElnx3BD+Jmlaw42qEd4Mcv20rwqCHxM2OSDdqXSnvzuiIWFtDbMZvO82WV59Nm02+1On6/mpbqdeZCcKNTttgix8ZzlYSXB3IH5ne3HRIfCYoFNtZs/XbNIsTNHGmsAHGw0L/KafSgSjgsbNwFja0/Gt47MLrbDdPrQ6ud9/EkX9XS+yuXpIs/VF6kbYlOdBg2CrGZt5J0TSUddYHNyF/Tu+gIE4BIwTNjYCByap669MWFT9ioVhu25xc3R0f2PGbXu2etVvBQCqO2aUGPZj88IOc8DFoR1OPPiRaIGYdDB5pTpGI9dRRoZaKzBtLDhryLn2qvGhE3ebTNsk/aT3z12U7v/mWlroBcreCneuWp1haH98I61MSsxpZtc4B/NWPyJbDtFbLZzM4t1l+yAEa3WxjZyRWtzbzzY5u32egq4AbzU50ePj2xLu/+pDW1z82yFAguSNqHH6ZZ42zNZJPVhw1AruBPfjupEUjvtxb9C3c0BLTjnYMMUMU89e2PBpsyQV2odZwOCPv/1rQ/S6S+OfvOpwwy00vQjcEapbAsaedPGQrEhEncxNQjB1vHVqbQmYBS2sZUYxMXemBIQeb9dSblUGY9fG2ddNzTQnUtjg1QVUPG2BLsz8U3Y3OXXm7DVPdgA1Ii4sY3ix6bsoI8utN4ej3fk51MPNPDSvct6KcYyvr4QmB57rDBsijsf5ha4PNgMrG/dH5AxeVnYhpKnE5l1IsSA7ZT56ALbZLwrK7MzD7RWazOkwCL68cXXx6eEjGshTB/MxDaIDVJVV9VqpnN+bBxRzUTNOVVjSY0dEoqixxj1eCKpPPb6KCQiUBMoUxe1FmqTKMfHr46PF71a5PjLtd9feEOYffLu5soo82WWnoZhQ06L8EqASBAbHuOKlVjo1l3prl5epINmmhMDNlZY+XwUclv5WdcDrdXq/uEB09ZXXx9bd/Fybe3ehTdE6oKY9zRFGXMoJhQbJihq1gHUE0KwsVTM6chldW7OXSX0oODgyGJvHNiwsHJjq0zGuPxFOTnzQGttt775aM3Sg6+O8VE+XFvbenXR9fEZy54uXSiwWNsU7qTYEqod1olGaE0LwwZgJF60jzEEwawZnCoBzFkqcGa0Nvh4alK57fHRdfBR1vjLLQ80UOuPW7YAHEf/9OXa2tcXdljbrZNL4Hn4IOHY0C/5cs2glOvURSkT0rbBwRCPy6UBocSASt76szilPNTvsL/IQdU/UgUpEwM2ZS8QR/fZDvlht+WGBtj+vGZju7e1tobULm7ZOE7kRd9wldV+hWPD4kjgJRVaJFUQC0YwAcFj9Dp2tInsOMGq2xc9INivxIsqHiGUO7UVI6kC8m9jhVXQRzEvmXqggf7ygDF7+f3WvXsIbu2ri++G5Mqaf/CSdGCbAdjK6qJl153jiJHB3h5BkMo1OihrdYbN/Ne5BFcrY98mHtSz6jaaUct25ZvTzL2i0LldUssrYFOUk9nrvblvfe287Yuj47HVAy4/2XRDazabrQ+xYfuP9H/+FewNuG1F+FTSyWaDUwmK2awBZpXNuvKIbLZon0M7pTo0WOCpil40Tzf8l6F6PgOumBkO7MEE/Ci7nKVcrgB7Czkcl8APu6QU+XS9j9r1rNuDwirgo1Z+przu2syaCO3One1vISh8j5PfvmfcHhxH+CMSEjK4ZG7z7nL/QihGWkpcmwOXUXC/Z1oMHKK4LkHYfyFnRpcyn/RNMNWqezwlxEeddX3zzdbC0lB3XjwAa/vbd+n/wkYO7e2yt3NdpLSrKezkQIesLrocsbDyYMPCyqYqP2/Zloa2Bnr0d/TSly/x/8gtUki4xpIP+sySxhNcKbrrlElQWLUDhZWzc2/TNjQG7c5G87+d1I1xAzd9N8/zljTvs6ppfzxBSH2nKlfGAR91DbYo29tuaKDmmhsb5G/vtbkpM8RWaU9s07LCgnLi9VGrsLIlP9y2oW2YevSHB15uD95nbPJB1Z1kpKpj2doeiKPu9wooJ5seaI2N/jcfee3twYXF1TWWH5vz1oVJwEc9vWryk6YbWqPRePRHL7a1H95jczOd1MNtJpuFlc9H9z3nyQfbNjUGrdro/9nnpREKhWsrayW3nxskbf446n33hzLfdkEDbNXqE18s3XqPsXHyfjXAbU+e+3y0PRn7phbJEzS2RsOGVq0++tCLLWLGy/J1sspEd6ekiHO6vE8h5pZ6NJsFfdRX6iuzpgca0P72Iy+2KKULodkSr6oCloiXfAKSzeWwgCV6qff21jPJp0Fu/fHE76PBF6Y0N9zQUD5sW7//+tXx+eiIUVfZyJUgitkLO+jCRQua2b3BS0L5qhaYXCx5EnDT9WCuGxhDlnc3vNBS/b87QWHL7D7CH74+50Fw0A47xiRV5Pmy3T+OI81L3D/tsalK2HPrTIx4C1LmAXPD7Nfro7sBY1P2HnmgQc5nFVjfm70gaw8YxXvnfLSO3dJDA37I8QJvLa2gw7K6zNoOC9vbtjZO9ich1aCPhsxik/seaHgeo/aPdPofWMz/8OqHP7388stz8hA6lHDeFOut1usCL+rW1qWWxNjYiFEqvNW1waycP99HQ2ZjyQcNL7VUnxVY36UP/8fscoP4eO5wKcHhZGfCWlk1111dFlu8C8/CJI89zz+Z+ONo2AvblJNHPt+ufmN2Vn73v4Bty3zy8x4Ehy2dVozmrM7Y6NicCV5vaNJI3K9LY51ujsYT/2B82HQFJRhL+lhg/S39V4yj54UCS4YbmzU2zcbmpdpte+mAp4/W9QtasmFgvhdubYRyhmFw8dqfMl9fIKiM/bnuvuwdoVEUWeZmz7dTfmxYYJnDV1FGE3B4z5dpkeFwWBCEDPxTA5clefaPtW9QG9ozX6hRklRVFUsGddq2Tm1oWx2kgwUN9quZ4uX7vSPIxa06mQQG4w9mO5zsSNmZPXxxdjbt+rGloMCyOsVfRbhbmoGczftmDCJKEmwUJEnCafW0Ljmz6zlSVEVraI/WyhIOPwlCeXi7ZGHLqZo13EUHdTbjHv7T+EGcYcLFLRAQ9iuNfr8KWcjuw4e7zyYvWmzuTLc7bQTM7f/McjTKgJ+5IlKQcm5PIqqG+a8AhoJjcTgnyIXNHhElBQ0OqZdKQEcdDm1sojX/g2bLEJalQqkH1IRyrK+QUOZW+9b2B4TJvmWGjf7GnWaziePJLYatFcD2LRswPTdZc4kN9mp8HgfaLXU6A5z+Muh0OuZ83RBstKbxYmaAbdmgLkl13osNJ0kIQg7bRa4IFldedmH0UlK4MctDgj7qNP3VRsMEZ2LrTgNemmJdbVtRBxLoCG1LUusj21cha8GQQM2CNhQbW6VVMk2UkJ7E+7DhYui6dT2WDwpXiSkolr8Fk7Z9+9dqtbGB2ExrQ3PbCJjb/6+BrUUZJTVFjZ4qYUmqDe1cxZ2AhGJj84YWjod5shsbrlUWnTcKEF3ixVGs8RTrhSr6qBtEe7zv/BzAtunHhgXWV8t8JKHGkEdykt12X4hN98z9I1nNiw1nUI4WVHFGeT3m4kHeafsLq/a47cEG3BbYgl7a34qQsHkETdSABcay2QdyETbkJLg5+JwUqHqmluj+6WAxSNkJDCIsjM32Uhe2ZgDb60v8ZQnVa4tZVRdgo3lR8MzA7XkiKVve4JlrGM8MXY/kg4lvUtvYVXhhSLCwmaE0mLpVJ5ebN04xGWEt+oXYhr7VBTXJgy2rCZ7X4by5+LpCBXx0v53yY2s6Gcg0JHW75OoOtoyM/XARNv+ijKEPm/jWsSl75/loGLZAgdWI/p528E3Xb9as7ghOKnmW1dNSwEm9axMgRMTspMxHfRNm3NiqAWzBAms9MjaIBG5ugrWK8U3Y6MgMCb5p8sSb7io43dzzMWLsIWEeyHX33S1dCLazYFCIunxeL0vuTCHU2jLCYp6qtaaPTcNfcGDL9jx5Wx3OcSUgRc2zVisGKbPgYHw1gM0Opd3p2dPps8AITjXYgR4uWpKc5X0YEzSnbXMiJS41s39ma9UyZmLmWqCA/QHevM2z7hTzk5BXZVyp5N1AHN3dr/adXtzqInHb7J6dvXi4p8hyIChUI34amo3A29NrdcFam4wJBnNCRDGS7IyfYDlgFlcQdDXbTOlQCxRXIi8V7JmWOONeu5JXMb1ZOwEfnezI3Mnp7iSFs1Qb/f4GFqSbm60Xzw725myedGAWSaofdfk8VKTALcveZpKFmtta/d0Br8tDuBiYw1FCRseFRUZGsrCxxQdajW3VS5rgx0ayZV7KDOCi7CxejfktmsppYDAeHQ47JZX5yd7s9PTg4PT09exkzslOx6VyEvDS/ahBweoB6ZV6PC45sB8PWEJBxAY/0ZEFqZTP9zRBzTlT6ev4igbcKkpiz5uA4GVHAFvLDEfDjAp/jJhdlJP3/T46WRgOzsE3Oyl9k/Hlig9bqh95+TzNsUIe+xMlZ3wZGnncqJnJVkZjvZaCpHWMsvXGNgJbBbZVUAtkKKomNk20uymLoohXBPuUtFzM1JQTv4+Gjlj5JR/4W7f+aeSMF6oqQdVA9eGim5cYNV6UeDPzIHkeDlDxLRWDjPN+QFqsw0mqWi9SOspkMC8jxUzGedWAPuRVFfbztdjfqxxI2iqTKKlrcBbJMgWWQrlBNtsxCPVsJLpuDwKwAwY6VdgrnexDCDU6RTiNLIZe3Ls5SowOXJaLf+BUGQd8NNIC25ARrKUKLBK6QMF3wPKnXXjZqxEUVgEfjXbi64C53aAvwgqJoxGfPjCJ5LLdINdR/qYNfDRimRQytfDmfH2Yf+JpZRI1/1L2AuZ2g7Ad+H008nenKX5jq9wcJ1Vm6z4fjRwPA6sbolbz74PmKa+PRn92f4HVv/SbQa6h5APXk6+320u8dtIbFG5SIAUprrx1fX2pb4Wcp1zcqjfrezgVzuWly2WsyjzlVKb9vRtlbCBz3LPa6E+WfXSFO+j3WXfmxtmKr6u8blJmOIuoub57enKJr/OW57OD/e3t7vRsxddVXjfJz3CA4OmJHHy7RSQpsvwrHMyaXvF9/cil4BjBSq82VWZPEduN8lJlb7vZWumdiWCwL6bdzbA3k72/knebze3uao+snDztbm5vX9UtXQfJ+PWj3RVzLvk5vlrlBlUJUCFVN7ZX/QIEZWe63WzeoJoU6/HGxkrvbGaXedbaaNyk/raDfqq/VEUVKmUO2KJPn3kPNO771yhfRrhg8Aa1bfDAypUYCQ5BX8V1EiVKlChRokSJEiVKlChRokSJEiVKlChRokSJEiVKlGh5/RP9EYQv06D+8gAAAABJRU5ErkJggg==;" parent="8XWnLqeAtCPpHr6PN-5Z-81" vertex="1">
          <mxGeometry x="582.15" y="80" width="171.16" height="90" as="geometry" />
        </mxCell>
        <mxCell id="8XWnLqeAtCPpHr6PN-5Z-26" value="" style="shape=image;verticalLabelPosition=bottom;labelBackgroundColor=default;verticalAlign=top;aspect=fixed;imageAspect=0;image=https://blogs.purecode.ai/blogs/wp-content/uploads/2024/01/23d807c8-692f-4f0f-ae13-83423dad1ee2.png;" parent="8XWnLqeAtCPpHr6PN-5Z-81" vertex="1">
          <mxGeometry x="787.24" y="75" width="169.47" height="95" as="geometry" />
        </mxCell>
        <mxCell id="8XWnLqeAtCPpHr6PN-5Z-49" value="&lt;b&gt;&lt;font style=&quot;font-size: 17px;&quot;&gt;&lt;font color=&quot;#ff1212&quot;&gt;前端Frontend&lt;/font&gt;开发平台&lt;/font&gt;&lt;/b&gt;" style="text;html=1;align=center;verticalAlign=middle;resizable=0;points=[];autosize=1;strokeColor=none;fillColor=none;" parent="8XWnLqeAtCPpHr6PN-5Z-81" vertex="1">
          <mxGeometry x="20.000000000000032" y="20" width="200" height="30" as="geometry" />
        </mxCell>
        <mxCell id="8XWnLqeAtCPpHr6PN-5Z-63" value="" style="shape=image;verticalLabelPosition=bottom;labelBackgroundColor=default;verticalAlign=top;aspect=fixed;imageAspect=0;image=https://miro.medium.com/v2/resize:fit:720/1*_bJ2z2NRfTncHAv5UjUxwA.jpeg;" parent="8XWnLqeAtCPpHr6PN-5Z-81" vertex="1">
          <mxGeometry x="956.71" y="75" width="142.5" height="95" as="geometry" />
        </mxCell>
        <mxCell id="8XWnLqeAtCPpHr6PN-5Z-99" value="" style="rounded=1;whiteSpace=wrap;html=1;shadow=1;strokeColor=#6c8ebf;strokeWidth=1;align=center;verticalAlign=top;fontFamily=Helvetica;fontSize=12;fontColor=default;fillColor=#dae8fc;gradientColor=#FFF5F5;gradientDirection=north;movable=1;resizable=1;rotatable=1;deletable=1;editable=1;locked=0;connectable=1;" parent="1" vertex="1">
          <mxGeometry x="-170" y="341" width="1260" height="399" as="geometry" />
        </mxCell>
        <mxCell id="8XWnLqeAtCPpHr6PN-5Z-92" value="" style="rounded=1;whiteSpace=wrap;html=1;shadow=1;strokeColor=#6c8ebf;strokeWidth=1;align=center;verticalAlign=top;fontFamily=Helvetica;fontSize=12;fontColor=default;fillColor=#dae8fc;gradientColor=#FFF5F5;gradientDirection=north;movable=1;resizable=1;rotatable=1;deletable=1;editable=1;locked=0;connectable=1;" parent="1" vertex="1">
          <mxGeometry x="-170" y="800" width="820" height="230" as="geometry" />
        </mxCell>
        <mxCell id="8XWnLqeAtCPpHr6PN-5Z-80" value="" style="group" parent="1" vertex="1" connectable="0">
          <mxGeometry x="-170" y="90" width="1240" height="190" as="geometry" />
        </mxCell>
        <mxCell id="8XWnLqeAtCPpHr6PN-5Z-56" value="" style="rounded=1;whiteSpace=wrap;html=1;shadow=1;strokeColor=#6c8ebf;strokeWidth=1;align=center;verticalAlign=top;fontFamily=Helvetica;fontSize=12;fontColor=default;fillColor=#dae8fc;gradientColor=#FFF5F5;gradientDirection=north;" parent="8XWnLqeAtCPpHr6PN-5Z-80" vertex="1">
          <mxGeometry width="1240" height="190" as="geometry" />
        </mxCell>
        <mxCell id="8XWnLqeAtCPpHr6PN-5Z-2" value="" style="shape=image;verticalLabelPosition=bottom;labelBackgroundColor=default;verticalAlign=top;aspect=fixed;imageAspect=0;image=data:image/png,iVBORw0KGgoAAAANSUhEUgAAAFwAAABcCAMAAADUMSJqAAAAOVBMVEX///+msbehrbPM0tXT2NueqrG4wcWzvMH09fbEy8/n6uvx8/PP1djIz9Lr7u/8/P3g4+Wst7zZ3uA4tS8WAAABkElEQVRoge2Y3ZKDIAyFSQooYkF9/4ddWq2z3Ys1PZqLzuRccvFNJuSHg3Mmk8lkMpn+KPda5JKIbzromgJrwQsxEbFXYT/QDT4osCttqgrwuAWeFNjTyibOCvBuY48K7LwlJSqwt6zosJ1vcL62f2rOea08HwKnvB5dMVyWSIGb5luj5aU08H50L6fQnvnVNRziVF0dYvh1NOONmruds8JopvcTCmg3FRKIO2gQ9HyMhumziE3hDrBvssDDArClSUHYbhTBsW6tsox3CPs1/44CnyD4IoLPENvdJXBGqrApKWbFRREcHFvd18JlaQHfdKILJXBTi0qRCFukXtahWF6GIIqcodB7ERudXKJaRF9fwkXUViiQmSKENwHLSLifm8LnD2pZMT4z87kTqGI4cqfiK0WmujR0rNSFI0BxqMMeRvK+YNjtHicmnLDp8YB+ypDW/9N+0qXXNxY3N8eXsR+xv+w+d+NQypR2WxQuMKQjPX3huI/WIa0nl3y59JNf3h1nHRav8ZtjMplMJtP36AdEIA1iFQvhPQAAAABJRU5ErkJggg==;" parent="8XWnLqeAtCPpHr6PN-5Z-80" vertex="1">
          <mxGeometry x="177.81" y="51" width="92" height="92" as="geometry" />
        </mxCell>
        <mxCell id="8XWnLqeAtCPpHr6PN-5Z-3" value="" style="shape=image;verticalLabelPosition=bottom;labelBackgroundColor=default;verticalAlign=top;aspect=fixed;imageAspect=0;image=data:image/webp,UklGRqICAABXRUJQVlA4TJUCAAAvgYAdAKfjuG0jSZIrhMk/v/nufXRNl9JwG0mSIuWh//6ddnHaM+NsO2wjSZGq7hnyj/Vwav7DlICAgCEIsu5Yrwv9WHcRmBAYJIcZ9bwcBDog/mEfK7mi5kPfQACZYWAbNeu2gdzMP3Tp72H6zWc39g8CUTpMjalM5VwOCGJQnew3/bqzxv++Wuub7Q6CIBIEsS32YQhjSNsFaWlQhC0NcWnjIPwFoFBBQMIiABUEAlAACiABOkAEQ+kuJEjDBZeBEUAEAWqXiEHabWvHVl3Ztm3btm339FQHuf//4e3uufX04nBfEf1n5LZtJAvoEnRmdJr9BfQPSBJTUwyQlgAgOcUE6XbSMDM+AsYQjzEPDX+sAzNPDDEHZD4ZzVdSbNTgpLeRiuvoBA9v2EnzweWVNngspbjo6XN9v4vbZTtpPLxmh3XZKiZET11pujlg5iVrccAQ66oKYqavpHIKGtbSdOg6enhHm2939hr/5Bo+CwMsjaeRYoJDOWg3TcGg7K8Eg3LQbpr8syRYNOHceSjUXI9+B52Hws9JGPeU0OSfcnCfRAhXg9Yfp/qcvZQFMntsQPBkxU7q+3o6uxgAvNZB5tHRX0TxUb3dMiO5K4COAbJDTJQJoik2ygxMtogFQPi8DlIPQhzFx8aR1EjuSsLMUoW+PoW11QaoyYiNi66qNkGdnbT93N3X572cED23Y8Bvb83ae0x93K0S4Tx0rc2fBm8NIoVJsHhW+xP5rUFQb5p+K3zzbzm6v/7q5SaPJa4DwHsdA+5H3G0h5zIjuavNyfcboWGGuI691gkt2N0U/8TyNlJ0dRftpP3t+ekBYGZWW/f4wPy4WhHIwqvUSEXzcd1OMvNyc/TJTyIgKzvHAAX070cAAA==;" parent="8XWnLqeAtCPpHr6PN-5Z-80" vertex="1">
          <mxGeometry x="392.37" y="40" width="120.17" height="110" as="geometry" />
        </mxCell>
        <mxCell id="8XWnLqeAtCPpHr6PN-5Z-4" value="" style="shape=image;verticalLabelPosition=bottom;labelBackgroundColor=default;verticalAlign=top;aspect=fixed;imageAspect=0;image=https://upload.wikimedia.org/wikipedia/commons/thumb/e/ea/Android_logo_2023_%28stacked%29.svg/640px-Android_logo_2023_%28stacked%29.svg.png;" parent="8XWnLqeAtCPpHr6PN-5Z-80" vertex="1">
          <mxGeometry x="611.4" y="74" width="112.65" height="69" as="geometry" />
        </mxCell>
        <mxCell id="8XWnLqeAtCPpHr6PN-5Z-57" value="&lt;b&gt;&lt;font style=&quot;font-size: 17px;&quot;&gt;发行平台&lt;/font&gt;&lt;/b&gt;" style="text;html=1;align=center;verticalAlign=middle;resizable=0;points=[];autosize=1;strokeColor=none;fillColor=none;" parent="8XWnLqeAtCPpHr6PN-5Z-80" vertex="1">
          <mxGeometry x="35.00000000000003" y="14.5" width="90" height="30" as="geometry" />
        </mxCell>
        <mxCell id="8XWnLqeAtCPpHr6PN-5Z-62" value="" style="shape=image;verticalLabelPosition=bottom;labelBackgroundColor=default;verticalAlign=top;aspect=fixed;imageAspect=0;image=https://upload.wikimedia.org/wikipedia/commons/thumb/e/e1/Google_Chrome_icon_%28February_2022%29.svg/640px-Google_Chrome_icon_%28February_2022%29.svg.png;" parent="8XWnLqeAtCPpHr6PN-5Z-80" vertex="1">
          <mxGeometry x="924" y="60.25" width="96.5" height="96.5" as="geometry" />
        </mxCell>
        <mxCell id="8XWnLqeAtCPpHr6PN-5Z-132" value="前端项目 处理website chrome端需要部署到服务之外，ios, windows, android均通过其应用商店审核发布" style="edgeLabel;html=1;align=left;verticalAlign=middle;resizable=0;points=[];fontStyle=1;fontSize=18;labelBackgroundColor=none;" parent="8XWnLqeAtCPpHr6PN-5Z-80" vertex="1" connectable="0">
          <mxGeometry x="30.00000000000003" y="169.9966666666665" as="geometry">
            <mxPoint x="-6" y="-4" as="offset" />
          </mxGeometry>
        </mxCell>
        <mxCell id="8XWnLqeAtCPpHr6PN-5Z-8" value="" style="shape=image;verticalLabelPosition=bottom;labelBackgroundColor=default;verticalAlign=top;aspect=fixed;imageAspect=0;image=https://neon.tech/postgresqltutorial/What-is-PostgreSQL.png;" parent="1" vertex="1">
          <mxGeometry x="717.73" y="870" width="167.14" height="130" as="geometry" />
        </mxCell>
        <mxCell id="8XWnLqeAtCPpHr6PN-5Z-9" value="" style="shape=image;verticalLabelPosition=bottom;labelBackgroundColor=default;verticalAlign=top;aspect=fixed;imageAspect=0;image=https://upload.wikimedia.org/wikipedia/en/thumb/6/6b/Redis_Logo.svg/800px-Redis_Logo.svg.png;" parent="1" vertex="1">
          <mxGeometry x="692.6" y="650" width="217.4" height="72.56" as="geometry" />
        </mxCell>
        <mxCell id="8XWnLqeAtCPpHr6PN-5Z-85" style="edgeStyle=orthogonalEdgeStyle;rounded=0;orthogonalLoop=1;jettySize=auto;html=1;entryX=1;entryY=0.5;entryDx=0;entryDy=0;flowAnimation=1;" parent="1" source="8XWnLqeAtCPpHr6PN-5Z-10" target="8XWnLqeAtCPpHr6PN-5Z-9" edge="1">
          <mxGeometry relative="1" as="geometry" />
        </mxCell>
        <mxCell id="8XWnLqeAtCPpHr6PN-5Z-10" value="" style="shape=image;verticalLabelPosition=bottom;labelBackgroundColor=default;verticalAlign=top;aspect=fixed;imageAspect=0;image=https://quiksite.com/wp-content/uploads/2016/09/Nginx-featured-logo.png;" parent="1" vertex="1">
          <mxGeometry x="910" y="456" width="120" height="120" as="geometry" />
        </mxCell>
        <mxCell id="8XWnLqeAtCPpHr6PN-5Z-11" value="" style="shape=image;verticalLabelPosition=bottom;labelBackgroundColor=default;verticalAlign=top;aspect=fixed;imageAspect=0;image=https://miro.medium.com/v2/resize:fit:512/1*doAg1_fMQKWFoub-6gwUiQ.png;" parent="1" vertex="1">
          <mxGeometry x="917.5" y="872.5" width="125" height="125" as="geometry" />
        </mxCell>
        <mxCell id="8XWnLqeAtCPpHr6PN-5Z-59" style="edgeStyle=orthogonalEdgeStyle;rounded=0;orthogonalLoop=1;jettySize=auto;html=1;entryX=0.5;entryY=0;entryDx=0;entryDy=0;flowAnimation=1;" parent="1" source="8XWnLqeAtCPpHr6PN-5Z-18" target="8XWnLqeAtCPpHr6PN-5Z-3" edge="1">
          <mxGeometry relative="1" as="geometry" />
        </mxCell>
        <mxCell id="8XWnLqeAtCPpHr6PN-5Z-60" style="edgeStyle=orthogonalEdgeStyle;rounded=0;orthogonalLoop=1;jettySize=auto;html=1;flowAnimation=1;" parent="1" source="8XWnLqeAtCPpHr6PN-5Z-20" target="8XWnLqeAtCPpHr6PN-5Z-4" edge="1">
          <mxGeometry relative="1" as="geometry" />
        </mxCell>
        <mxCell id="8XWnLqeAtCPpHr6PN-5Z-25" value="" style="shape=image;verticalLabelPosition=bottom;labelBackgroundColor=default;verticalAlign=top;aspect=fixed;imageAspect=0;image=data:image/png,iVBORw0KGgoAAAANSUhEUgAAAfcAAADKCAYAAAC45gngAAAAAXNSR0IArs4c6QAAAARnQU1BAACxjwv8YQUAAAAJcEhZcwAADsMAAA7DAcdvqGQAAHUPSURBVHhe7Z0HgFXF1YDPNooUUQHBSlEsqKjYO3Zj97dHY0liib33mGqPRhON3ahRo4nG3iX2iKKAimIBld5BOsvuvv98895ZZi/3bV9YlvPB7L1v6pm5c+fMzJ07tyCjiOM4juM4LYbC3NFxHMdxnBaCK3fHcRzHaWG4cnccx3GcFoYrd8dxHMdpYbhydxzHcZwWhit3x3Ecx2lhuHJ3HMdxnBaGK3fHcRzHaWG4cnccx3GcFoYrd8dxHMdpYbhydxzHcZwWhit3x3Ecx2lhuHJ3HMdxnBaGK3fHcRzHaWG4cnccx3GcFoYrd8dxHMdpYbhydxzHcZwWhit3x3Ecx2lhuHJ3HMdxnBaGK3fHcRzHaWG4cnccx3GcFoYrd8dxHMdpYbhydxzHcZwWhit3x3Ecx2lhuHJ3HMdxnBaGK3fHcRzHaWG4cnccx3GaBRVqMhwzGT3PhHOnfrhydxzHcZoHKPUKVDznlX+celCQUXLnjuM4jrPMqCivkPKKcpkzZ0743bZNG2mtpqCgIPx2ao8rd8dxHKdZUF5eJq+8/LL8+8mnZKW2beXwww+XnXbaSYpLSnI+nNri0/KO4zjOMoGn6tnxZXaMOWLECLn00kvl4Ycekk8++VjatG0jRcXFwc2pG67cHcdxnKWOKXYz8+bNlZtvukm++vJLKSoQ6dmzl/Tq1dun5OuJK3fHcRxnqVNg/4LyLpBnn3lGnvnP01JSUCQFOpCfNmWKTJs6NevZqTOu3B3HcZxlyvjx4+Suu++SBTp6V20v7Tp0kBkzZsqECRNzPpy64srdcRzHWeowFc9rbxk1/x04UL4Y/oWUllfIwf93qDz/wvPywIN/l+223y7n26krvlrecRzHWepkn7VXyDdffyNnn3Wm/Pe/b8re++wjjz76qHTo2DHrqSA7fe/UHR+5O47jOEufgozMmj1LHlNlPvijwdJplU5y5VVXSfsOHXIeFB961htX7o7jOM5SITtaz2pspuSHDRkqL7/0Uti0Zr9995V+/TYLbrE/p364cnccx3GWCvZaG4p9yuSp8sTjT8iXX3whhUVFsu3220urVq2DH3/9reG4cnccx3GWGiju8vJy+XDQIHn+uedkUWmpdOzYUXr27OlKvRFx5e44juM0OUyzh9XxmQqZO3euPPzg32XKpIkM46VN61aysir4eNQenzt1x5W74ziOs/TIFMj7778rL7/yihTpT1bDFxYWhf3jXbE3Hq7cHcdxnKUCCvvHH2fK9ddfL4sWLlQbFs1lZP78+TJjxgxfRNeIuHJ3HMdxmpywAr4iIy8897x8+MEgKWZkrrq8WEfts2fPkvHjxuV8Oo2BK3fHcRynUUkbgTNqnz59mtx7372SKSsPW9MwJY/fstIyGTVqVFhoZ/govmG4cnccx3GajDBi138VmQp5/vnnZOjQodKqSFUPulsVPu5FhQUy8I2BMkdH8Pxm4V02bDg49cCVu+M4jtOoJBfD8WvihAnyz8f/KaXzF4SvvjFFX6EGxyL1P2zYUBk4cGA2gOJ6vWG4cnccx3GaDBQ9o/G3/vtf+XL4F1IQXofLKvVCdTNFX7awVO699z4p1SPT9dnugav4+uLK3XEcx2lUwlR8bk6d44Tx4+Wpp56S6VPs++wZZuSlIucHJV9SVCxvvf22vPfeu+pq4bMq3qk7rtwdx3GcRiY37lYFXVpaKi+/9IoM/vAjqVhUFlwqyrOKu7BQVRBaHruKcilfVCp33323zJ0zR12x95F7fXHl7jiO4zQ62d3oMvLdqO/k2WefkcmTJmWn6NWeY1DeuZE7FOnvEjXv6uh98Ecf+aC9gbhydxzHcRoZpt0LZN7cufLC88/K++++K4Wqx9HXYbEdyp1jElX2c2fNlieffFLmzJ6Ts3Tqgyt3x3Ecp9Fh5P7666/JA/fdHxR2WDyXcwsj+GjUXomGKS9dJO++84588L/31U/2lTin7rhydxzHcRqdjz76UC6/7HL5buTIoGhQ5hgbsacpd5wqMmXyvYZ59JF/hIV4Tv1YQrnbBajOLC3S0jZDr9Ce6TiO4zjLBppg3levbJPVbtLECXLWWWfJt19/rUqmQkfsqtTVPp6KT5uWz2QKdIRfKIsWlcprr70mL77woixcsCC08+xeRzppTX7WPuuWNVV1BccVjeV25E7FMOM4juMsK2LFmZH58+bK7373O/n0kyHSpqQ4ONdWudKeo6gL9d/MadPltttulXfffUfKyspyPohnybhMDWSn8Rcrdky2U7DiKfgllHusLGMFavaxe1OTTD/NOI7jOMsWmmLa4wU6yr7zb3+Tfz7ymJQUFobNaUIrHf7UrFxRwEUaLihjDfvtV1/LFZdfLv97773gXlO7b24ciWPixIny+uuvy/gVcHq/QAtzxerOOI7jOI2GqRCm0lGkl196mXzDTnRqh65lSj5LzRPFwScBiRNFrqeLVElv0b+/XHblFbLrrgOk48od8VUFXq8jLFP4P/74o/zwww8yctRIefWVV+Xrr7+Wu++5Wzbpu0lWoBWE5U65I251PTfHcRyn6QgKI9cOB/Whx4rycvl48GC5+tdXybtvvS2ZRYtUMTPKxj+jd9rsmtvtSmUUtfPYlWcqZO0ePeTIo4+WQ//v/6Rv342ldes2wZ3ZgimTJsrIkSPlI5Xhs88+lxEjRsjo0aNl+ozpcuABB8jjjz8uxSUl6nvF0R0+cnccx3FqjW0ZG0bXoEp40sSJcu0118jDD/xdShfMz77TnlPOWfVcO6W6uCOQxToPUK7nbdqtJJtstplssumm0qFDBykvK5NZc2bLZE3/u+++l7Hjx8mcOXOkbZu2UlxcJHPnzpVjjz1W7r3vvpw8tZOjJeDK3XEcx6kVKN+gb/UPioPtY+fMni233Xqr3HLzzTJfz4MKbSStUkU9qXJmuRxpFhcXh9/oa56tl5VXqPIvl9W7ryFHHHmEbLPNNtJ+pXY6gv9Sttiyv+yy6y7ZrW5duTuO4zjOkpjK4Mho+AEdFV94wQVSOn++KhRVv9g3wYtYpqhQz0EGlHvuvEyT67X++nLrbbfJTjvtLK1atcq6EUBBzsUzCSsGjX8FHMdxnBZNUKhlZfLSiy/JhRdeqCP2OeFTrih2c290iDPEqyYMwvWoprCoUFq3aSvnnnuODNhtgJSEZ+tZr6bQkadJZGrGuHJ3HMdxqsWUI6ZCR+e8O/7+e+/K2WefFRQ7r72hRhlLF2SyI+rGwtKtHH2HyFVR5+wXVZTLZpv3k4MPPlQVfVGYfg9+C7NSLA7XmFI1f1y5O47jOKmYYl1sss+4Pxw0SH5z9dUy7vvvpaRSaXLMKdFGVKSVytlgAK6CZLsQhcLXY4866mjp0rVrcDYsXKXJ2a8ouHJ3HMdxagU7wA35+BO59tpr5JOPBktxASpk6U53axdD/2Zfw2PlfpfVu8qBBx6YdXQqceXuOI7j5AUlasdhQ4fK9dddK++9+ZYUlJerXXlwW/pkp+l5PW7/Aw6Q7t275+xz8q5ow/QUXLk7juM4eTHlzhaut912m7zxymuyaMFCqagoD1Pj5r60IE2bZC9uXSJ77bWXlJS0Cr+RBaW/lEVqlrhydxzHcQIslENB2odW0JEoS7aWfe7ZZ+Spf/1LyktLg2oNC+fC8+ylq0aCfHosUyHW6dFTttt+hzBSR5bKxXRqVnRcuTuO4zhBaaIcUewGKhKF/8brb8g1f7wm7AhnoPiXxQgZvY1cfFim78Yby8orr5x1iHDV7srdcRzHyWHT2hjO582dKy+9+KKcd/bZMn3yFClUhZrU6PhbmmST01F6UbHstffe0rp166Uuw/KAK3fHcRynCmxQw4dY7r3nHjnvnHNk9A8/ZJVFihJd6qNkTZBvwK28ysrSu3fv8G67T8MviSt3x3EcR5WmKkg1TMO/9967cuUVV8j1114rk8aPF1Wf+o9RPV7sWXvu2TZmqZLdY75nr97SdfWuQQYfty+JK3fHcRxHYZOaChkyZIgq9evk5RdekNkzZmS/8KYj9qwKX9qKfEmQgJ1n11xrTem0cidVYtrJcO2+BK7cHcdZruF5qz9zbTgoyPFjx8nNN90k7771llQsLOX7rmEqPozQVYk2h3JGBKRoVVIiRcW5Kfll3+dodrhydxynReAKvmEsLC2V2269TZ579lmRsvKsFlWaW7mGxwH6r6i4WAqZkg8frMk5OpW4cnccx3HCZ1JPPe1UOeGkk6Rth/aSCaP1LM1JwSML/xbMny+LFpX5yD0Prtwdx1nu8VF7w0FJ9urdW84660zZboftRYpUPURKkzLOTs8vY2IZ9DRceb/8S+DK3XGc5Z4wVdscFM9yDB9hgZ49e8suu+wmK7Vrp7+aX7lm18ZnN9xhej6DeH7pl8CVu+M4jlPZQWJ6futtt5E11147KE2bFWlOSh5JJk+cKLNm/eh6PQ+u3B3HcZygJMPUe2GBrLnmmrLKaquG6W5T+s2HjBQVFMrnn30uY8aMrbJdrrMYV+6O4zhOlWfqnVZZRdZZZ52w+5uN3O247Mm+kjdr1ix59plnZMGCBTl7J8aVu+M4yzWmkJqP8lk+iUfo7dq1ky5dukhBSbFqicWj9uZRwiqPjtx54o5yHzrkkzB6r/ySnZqKisV7H5id/V5RcOXuOI7jVFGCfIylU6dOUlisyr2ZPdVGPtsxb+rkyXLWWWfJp58Ok4ULF2bd9Z89RbD8rIi4cnccx3GWoG2bNlJU2PxUhM0woL+LdQQ/4vPhcuovfylP/POf8t13o2RR6aIqCh2/K6KCd+XuOM5yjY3OVtQRWlNAWfIBmeZYpuFaMzrnR0WFFKmInw8ZKpddcolcfull8sgjj8ioUaPCjnvmf0WkQDPeoJwT3J7TQFp05if219hYupZGmhxpbrFdU8rnOE7TkHY/r6iEkki0fTWVSdz2WVlOnz5NLrzwInnyiScks7A0NzGPStX4cr+WFSZjsu0uz1RIYUmJrNali2yw8cay5557yiGHHCzrr7d+eId/iXLQ38s2J01L0W+U3HmdiSsF8Nvs7NwMLFG4jUicTpwuJk7XZDOSMjWljI7jND7cs2ZWROL2DOzVsLg8kmVjYbC3dhI4YseCtI8//liGffyJVJSVqX2F2qu7mmWtEi0vJnv2WC6FBYUqoMic2bPl+++/kw8/+kjeefsdmTJ1ivTq2StsylOgfkI+yLP+Y2/6lkqDR+4xREXFssK3qLOVRXtVhYXBYG9+GorFxdHOLT2wdMzd0gfzC7Gd4zjO8oK1XQHOozYMt7idM7A38+yzz8qWW24ZXn3DH3a0n6NHj5ajjzpKhn8yRLTVJFT4qwk0CwUf5FQTzgW9Uyil5RVSXFIcXuGbv3CBlBSXSGFxoSr33nL+eefJYf/3f9Jx5ZVDWIsnWTYthUZ/5h5XDo48tzFFy9F+c2wME8fFuRm7eGB2JhskL2hLvsiO47RcaNMYWS9csDA8Z7b2F/K1aVn1XBBGto8++qi0bds22Gfjyg6C1l57bdl1l52lIvEqHOGWJSYjVOavqFjar7KKnHnO2fL+oEEyZNgwufzyy1SxF2lZZOS777+XSy+7TI499lgZ+MZAKSvLfnCmJbf5DRq5EzQuHIuKisUGA0OHDpUpU6aE1yriypYM1xCIi4pYpD214uJiKSkpkTZt2oT3NDEray+NI/b4AdImjOM4zvIOo9bShaXywP3363Gh7L3PvtJ7vd7a3hVXtrPJ9pbPpM6bN09uueUW+frrr+Wvf71dOnToEHano00187c7/ioXX3CRFOu5BtKUGBEu27YTuQKapyCPKvD1NthAzjzrLDlGlXe2o5KRadOmyRm/Ol26desmG2/cV3VAK9VLs2VV7QQcdMjBQTc0lh5qjjTJgjrMZ599JpdccokMHjw4KFZG1tDYhUlaKGrSwNCRoJKuuuqqYROGtdZaK5h1111XevXqFbZVXGmllUJHAJAnmQfHcZzlBZT7gvkL5Mxf/Uqefupp2WjjjeSc885ThbaxdOjYIQxuaPMWLVoUBlkzZ8yUcePGyccfDZZHH3tUDj/iiPCueCttOw3aRPzeddcdctH5F0lRaL9Vleaeay/N0TtT7+G77VE7jdJCsXdcpZPste++qtjPlC222LKyXQ/iqf8Zmtc2bVpr/vkITnbgyajdBoTQUtv+Rn3mblCAn376qZxxxhnyv//9L1yUpQUXCsOFM6XPhxDovfXt21c233xz2X777aVfv36h54Yf5LVwYJXIfjuO4zRXdDgVpuTPOeNMeeyRR1R5LZLua60p6/XpI126dpHOq3WWTqoE58+bHwZZY8aOkR9GfSffq5k1Z7Ycfcyx8vs//EHW0IFPDH7vvutvcuH5F0pJ2PGtPPsFNv2zVJU7f+hQhCTRJTpiLyyQdXv2kON+9jM54cSTwqDNqUqTKffPP/889AbfeeedpaLcY8UcY/YcUfQdO3aUDTbYQHbYYQc57LDDZJNNNgnT+KbM4/A+de84TnOHNmvB/Plyyimnyr+feFwYj2bKdcCiCrCgsCgMdDDlFeVBJZeXqZLWNrpClTUj8fbaJu6z335y4YUXymb9Ng+dBaAdf+D+++TsM3VUr2mUl5epXi9YqtPy1h7zl/a4nIFYUaGst+EGctFFF8tP9t9fVmYnPW+rl6BBr8LlgwsyefJkeemll8KKy6VNrNBNYXOkJzpfbwKmpHhs8Mknn4QtCzfaaKMwnZ8MZ78dx3GaK9a+ddVR+rx5c+WLESOkECWobtr6qaIvkwoUM0pd28Dsa22ECaGlfFGZfKVhWIjWs0fPsJCuSDsFRDBm9A/y5FNPhY1igopVu2yrmP3b1FS2w2oqNH22w+29wfpy1dVXy0EHHSTtO3So9OdUpUm7O9brWtrE6VrFtyPQI/3xxx/DI4Pf/va3cvnll4cdjeLpea8sjuMsD9BWMTLfaaed5P6//11+8YufSyn6UEe4KHL0MM/lMwUVUq7/RBV7WBpHM1mhf1Thl5cukhGffibHH/9TuflPN8nMH2eGuGfNnh38lWnnALJN69JrG2m3rT1ngeDKq64iv/nt7+TQQw+TNm3bhrz7qD2dJi2VZa0grVJYBcGgwDmaAp85c6b8XW8IFv8NGTJESktLwwgfY+FrIvZn6VRHbfwYSb/1Dbc8k8x/2u/Yribq4z9JMg77nebXqUqy3Awvu/phbVmBKjlmIK+74UbZa6+9ZZG2YXzRLYMCr0DDayeAJl/PCzJ8U41/qACO6lxWJrOnzZDrrr02LM579+23ZY4OgtSFOXH1RuimVaQsnuO5Pu20we+M5qNj59XkpptvloMOPjgodMyy1jHNmaa9Us2AZINhlcHs+c3U/MsvvyzXXXddmKpHsVNx0hob7JImrmC1qWz4qY0/oy5+jbqmsbyQzFN9y6Yu5POfJkt95HGWhPvKqT2L615BWB1/3vnnySqrdQ6Dc0bqOGVVeNZffB68hPD0BQqkfP4CefLxJ+TnJ50kzz7zrPrKtnEVzAI0MaQfZFNlzjQ8ip11A6t17SrXXPNHOeroY1yp15IWr9yrI1bMPIt//fXX5YEHHpDvv/++coo+SfYmqGqSpNnVl2RcjRn38kJNZcDvupZLQ8uxJpmc/MRlVZtzp27Qrm2x5Ray/wH7q3pkxF3LZl7LPEzjKyWqXMeNGS1vvfmmFJSrkqU9RM03cacrjNxpl1Hw/Faz+lpryBVXXilHq2JXx2Dv1EyzUu7c0GmmOtL8pp1jqDRmgB6gTf/gPnv2bHnuuefk8ccfD9P1sf+6mOowP/Z4oKlMHH9jE6dTnWlM0uI3U5N70hhpv5PXpTpif7FpDNLibSrTENLii00+kuWcVu7x74aaFY2OHTuF6etu3buHx+qoy5oI0/fBJ4o8ExbRFWu7qHq+Utk2dUnaXu9BEu2UrLHOOnLm2efI0cccI0W8w15zNpwczUa5x0oYuCHtPD7aeQxKOsZ+x3Gl3eA0KIa5s6Me2zGy+Y49d8efNT52DhavhU3+jondzD3t3H5besAxX5rVEYdPI7a3OM0kyeeWz39jYvFbWsn0kvZp5/HvtGsYl3fSPQ0Ll3RPs6sLcfg4HrOP3eLf1ZH0V9twNWFxcEyWZ+yWJLaL/SdN0j3+nUaaXyNfmKaiSto5o5bBVP7jPOcvHHMek/Z2Xmu02WMzl/79t5Ld99xDCnJKMRtPLr6UOENzGawZCGXVedaEwDhUKt9GIYhTNX8VFdnNzkiya/fV5Ywzz5DjjztOOnTsGLX/jShDC6ZZjdwNU85cdM7TlHdszI4LT6VeXAmyceQDP0l3frNy/q677grbF+LH0sAtjjs+j93MLkmcVhzO4NwUi9mnKZo4jJFMN/4d28eYPfFZnNjZ79jeiMMYafHnS7O+xOnWJm78WbkZJjPh0+KI82ThOcb2MbGb+TeTL0xNJOPjaMZkNvtkPpJ5SvNnccUkf9cFwpJOEksvKZMRy8SR1d7xb5PTZDM3iM8t/VgGC5cvTFNj6ceG59UMFhYsWBBGyGoVZgdHjBhRacfM4YwZMyrzQjjD8hjb5SXnpWvXrrLHnnuFjWyySpNHjbhoPFnNyo8IrgltXe7a5M5Jk9+NXoJESLy5a4M01nlo2769HHf88XL8z06QVVdbLfixdjjnxamBbGk1E6zi2oXEUKG5KQB3jFV0czN3wJ3fdiNYxUlicRlWcTgSnufvb731VmXccTycE39MHJfFnTSWBucx5h5X4Lixw47fBr9xs3CYpDx1gfB2TIsnTsf8Gvi3sk5zbyxIgzxbOcTpgpWH+TNjxLKZP/NrbvG5lTHE9mbSwF8cLp+/6iC8hbNz+x3Hh5vlAYObHc2kyWEyQmxfHwjP/UF8FifxW7pgsuQz+OUYyx7D9ba4Ic6TpYWJ/dg5slmcaXE3JZYvtoXlk6maQfn7Aw/ITTfdpK4ZmTh+nPzq9NNlwIDdZNTIkTLow0Fy2GGHys9/fnLYg6NMwwSlH8lsea0R0tYD09j9+m0m6/fpE+yA+GoVx1Km8voU6bVTc4iWxfkXXiir5RS7U3eW2Q51VvkNu4AcuTmJg21jd911V70BBgR79kbmiOGVNT5OM2nSJPn222/lhx9+CL+5ISwesEYjDfzgRnpJ/7xS0r9/f/nnP/8pa6yxRnDHDUy+uEEBSydpD5aOxW9+LB6LG0wujrFcYOEsrZjYf+xudmmYv5r8mzx2Dvw2+2T4tDgaAvm3OJNlEbsZyBOXVRw2KV8su1Gdf4jjTObdSIapLZa/OLylgR3uVmeSaSR/m5xx+Pg3JMPUFuIw5W5xVlc/Y3BP+rHfcXwx9tvyABaP+cfEMtnRiM+bChal0Va99trrQaH//ve/lwkTxslBBx4snVVZnX7Gr2T48C/kmaeeClvFXnTxxfLoo4/JqO++k913310uuPACefKpJzWmArnzzruCzHGdqCkPoZRyZcUmYuecfba8/sLzNPaVYXHOnjd9eVRHfP14la9Mxdl7333lnnvvkc5dugY/NeXXSafZbD/LBTR/1kC0b99eLrjgArnooouCoo/jIQ2+asQ0FrvhMb31wQcfyH//+18ZM2ZMZa+3urRJB/c4bQM7tqq99957Zf/99w9b15q9HeP4zR7i8xgLY+cQN9BxfNgjHz148mkffcCOsuDLRyZTDHHF6YDFn8TSS6ZPOqRHB4r0+Y0B0scwouIRCLIgR5xGvvQaguXHjnEalgeONOy82ohBdnNDZpMXE8+MWJyQtIvTqQnKyPxzrEtYw8rZ0kfuZLy4kTeuD9eJPNso1dIlfxiuDcbyS3wWd5xHTF0hPMbkI+44Hos/H7jj3+IA4gCzjyGP5NnqJb8heW0Ja/JYHGZn500JU+AjdTR+wQXny7Ahw+TPf/6z/POxx1SZ/0cHpZo/HZkGRasG8UrVfwlT4Gq/bo8eYRr6s+Gfy3HHHSfX33BjmL7nY1gYK5/qIMehbPXIoOecc86WgS++JAVMzVfJO+dNWxbVYdcmgwh6yq9+22wtD//j4fCRL3IQJGzi69VSaRbKPb54oVLmflOZzzvvvLDBDPu/54Mw3Owo+ffff18e0xsJJc8udNUR3yhxA2rgftRRR4WptNVXXz2kYw0Gfq1BApQJNyGdinw3IOHi/NlvOhGrrLJKZTjsiGfs2LHyzTffyBdffBGe/5MG5dC5c+fwlbuePXuGWQWmrmjUCAfJfAB25h5jMlhHCcNsCIbFhTwH5DVBmxFhRgMZ6FwgM8/1MMjQqVOn8DGe+Fol043zniZnGhY+GcZ+cx241shLmdGgjR8/PsiOIsAP8tJZ5DqyvSbl1r179yBzUiaLj7JAKabJajLFYId/ysO+V1BbLL5YBuAcOwwzU9Qx6gJ5JY/Tp0+XOXPmhOtDXqlDKHPya19HpL7w4SSuF9cHu7iumZx1kRdMLlO6yGKza2Cyp8VrYZGDa8BXyziPy5sj5UCeqY9c2wkTJoRzyoJ6iR/KmnyRxx6qHPkKJNfZ4rT4jDR5GgLxw9dffxXS515888235FennxY+0LJ+794ySdsmNoRRtR72kwkSaDCO7NeuGQ1HLZXwRLygqFh++tOfSg8N+9VXI2SHHXaUn/3sZ9KmrdYrDZMtHyJJz0/Yg12PzGoycn/3jTcQNJisdwuzZNilRSi3AkyhlOs5H7u58557ZM8998r5yNLY12tFodmM3CFbYRffiDTGKPdLL720UmHEF9ritSNuNDJsRHPHHXfIM888Exq+OP1kGvY7tjOw47OJvPvOFD3gx/xZOBoQvon8yCOPhGPaiDrG0qJR5LjLLrvI8ccfHxpkym7ixInaOLwZXsv78ssvQ6eFxhv/NH40WjRmKBG+csdHcDbbbDNZZ511QhzED8n8JKEhprFkAeHw4cPDDn1M46E8TKnbKAkDpI9hpMQ1QRY6JzSsvbUh4kM87NXPOQofkCMpE0fyGsto5ZLmBhYHmB+UHLKzlTDXHcWOMuC6Izt+AHm5LsiLkkO5b7XVVuELgZQhChBIg7J+/vnn5T//+U8IY3LFJO34zfWhLM4///zwcaK0cIbJhTv+7Bzi31wDrgn1inuKvDIzRefDrpFdHwxh7BpxfeiMsamJ5Rm5yO96660XlCDyWlpgMtvR7PNBPvDLc+J//OMfocNB2thbByINwmC4HgcccIDsscceQV4Lgxv1nq9Lcm15e4VvQpBnOqJ0dKm/YHWRus91JG9cV7Zj5f6Nr6EdjTS7ukL4eXPnhuu+y647yxFHHCXvvP22nHH66TLmu+/Ugw4UNPrsODQd4oAgjx4r9Ni23UpSpqPthfMXSL8tNpcbbrhJtt1uGynUEX5R0eKZxKTsFhfHMaPHhJnPl597VioWlYUFa+YODcl3w0EOvW9UhlZaDy67/HI57/wLamw/ndrRLJW7YSN3U+5pFdEaSbDwNHKM4K+++upwpNG1eOM48sllfnBnBMD+8yjfNBnwgx3pcBOhYJJ+klgYjlTko48+Wv70pz+FzgyjEh4F0FDSqKOgLEwSGkIaR5Q8z+rOPfdc2XDDDXOuWXfCWXpg5yj1QYMGhZ35Pvzww9ChYDREo2llmpYmmOwGv2nQkYVrRicDeWiwt9xyy9ARScoBsQJIxpcvbcCdcuFRzL/+9S954YUXgsKj4bcGv6bwKARkpez4OiCjpPXXXz/kg84BU6k333xzqDu1hTRRok888YTsvPPOS+TXIN+xm8kaXy/ywWZKdPJY3EnHi+tDp8XyGMuWr8wsDeK2zg0jZZQ812i33XYLnTHsLTzyES42aeAfN+R48cUXwzcamGnCztyqAz90AM8880w57bTTglzYkT6dBfab4ONTjNi5tthb2aVhsnKfUueoeyeeeGJ4rEYnh7BgdQ6szGuStToIP+LLEXLggQeE8/PPOzdcu7/f94DMnzM7qPRCRqdaTiajYXnBLs4Xo3dk40tuRQVFUtKmtfTXzuh22pFvo0p/px131o7ELpWyJ+M0Q115Wcvw8ksulR9GjZSiXAfDwi1bNL/a61lUkZGDDjtEbrjxRll33R5qv6zlaiHoRW50tBJnhg0bltERaUYrEDW2XkYb38yvf/3rjPbUM3pj5mKvCvakh+FcFXs4akOYueWWWzLaeFfKwNFMMq2kMT86GsicfvrpmenTp1emEadpMujoIqMj6IzekEvEhYllwI/91lFV5pRTTsnoSCwzY8aMzO9+97vMmmuuGdwxqmyCieNKGmQ89thjM6rsKvOPgbhsMJTL22+/nTnppJMyqoQz2qiH+C29pElLzwzuyfxip4ozXDtVlplLLrkko52IjHYaQvrIhzza6FSR1WTEzvyYvRlzUwWXefbZZzN77713RhvxKuVZV0M4VSoZVfCZt956K6Oj9owq98zvf//7TKtWraqNFzdMnH63bt1CXbB8pUEeLP8c4zxidPSbuf/++zN77bVXRkeiGVVMVdIzE8ti7ml2yGcy2vXiGmlHJNRZ7cRkRo0aFeRFHu04VV6D6rDrQxjtYGV0lFyZZposZswd071798xNN90Uypy4VIlnnnrqqcyAAQNCHUJO/CG31dO0+OyIH+3EBP8ce/XqFeLn/rX6Y+Ucn9cXrjDl8MXwLzK9e/bKtNNrtWrHjplVVPb2JcWZdkWFmQ4qU/vCrOlYXKK/9f7IGbOP7YJRf1n/WdNe7doRVu/XzqutlvnvwIGV5Z+sZdibW7nmcbbe88f/9KdBtnYmQ2EivWVg2mu5tNHr1HfDDTIvv/Si1qPSXA6cxiD/vNlyhOYjd5aF34xE6LkzitSbvs69VIuTESLT1oya4jgsTvxhtDEJI6N86cQymn+M3oBhtMhIklHa7bffHqY2zV8cP3HHR+CcZ6j77rtvmAoHvbFDGI4mD+dMa/7tb3+Tk08+OTxqsIWHgD/zG6cLZp8knx/yxNQpz/tu1N44IzNGs0yh4x93yz9yJeXF2G+O/LZ8E5bHFYwSX3311TCii7HwSaqz59oSp3asKmd6LD3LXxppbowQ09KJMXfyRzqWV1U24THMtddeKxdffLG89tpr4REJdZD6EcuTlnY+Wa1crbypb/hlap/8UpaXXXZZmMkh7/g1/9Vh/gC/xGuYfRqkjbvJa36pM6yXob5wLyRnkZAtJpkGfjCWX47cu8zgPfjgg5V13fyB+bXfdScbjpmQ7bfdVsr0WpXOnSdlmlZBRq9vcF1cVpYfw+wNziwP/CjToypvTUV/a3ylWiYb9llf+vXbvFJ2DZANnCMuA/0jbduuJHvy2EPbRL1QwXvIb32z3GgUyErt28sRRx0t2++woxRQL3MuTsNZbpR7fAMkMTe7Qe3IDbfddttVrqBNuteEhWFhFQrXbkzszM3O49/5iGUAftMgMjVMw/bXv/41KEAwf5U3qRKH5ZwGlUZ/iy22CMYURTIdlMawYcPC4wUUByt544aYNPBvYYjH0oQ4riTmFh/j9DnyqOLKK68M6yB41IAdDbX5TebPjrE9MtLYM037hz/8ISwyNJLp2TmkxZ8Eex19ynvvvRem43luz7NbC1cdhLXys98QpxuDO/ZxGXPONRo4cGBQ6vfdd59MnTq1ih/CJdOoDeY3Lm/D3FB6Tz75pPz85z8PU+FM/QPusUmStIt/p/mPwT3OPx2Ne+65J9RRHhkB18TiwS8mLY3YD+dm7H6dO3eu/OUvf5Fnn3021CFLFz9WxmZXFwg/X+/beXO1vAoycta5Z0lhK57va1mzMr1SVOTR34V6VH98eJW/OsZWJ7XHr92D6htZbDOXogKVj3+Z8DcsyMNl5ozsBlv6pzIu8osJ4XP54lhUXCQ9evXMPssO0dKp5Li4LJsacoacIVuaLLKV6/mW/fvLoYccEh6RZXPmNBbLjXKviVDRc0duEuB5Hs8TUe4NgYYn+fzbTEzydxLcudkwdiOinFkIhNLiOaM1SEBeMNhZ3HZOHBxZLMU+ACwiAgtj5YDMQ4cODUqLBpyG29w4AueYxsLyEMvCc1PWEjBzgPLELplXOhzm32Syc5QTawP++Mc/hmft2Jl/C5+GxYPJh10TGv633347KFebZagOkzVO25RodZi7XUMWxbH2gU4LsxF09IgTN4ydN4SkjMlrhB2zBryT/fDDD4fOBWnGdS8fFkddwD/5p+5zf77xxhuh3FHsFpcdTY6aMDntaHKRDrNWzAowksfd3BoCZfbmwP/KvdopYcHfhx99pHpaFRjNqorAVu1meOZeUVYe1JemHP5mNH32T5dC7WirjEl5zF84Q149KyoskE8+/kR+c/Vv9DhYRn37rXw67NOQL2ufIBlXt27dQ3sYyjJnliZZaXKzL/qD9Ffr0kWOPOoo2WjjvtlrUunPaQxajHKncpixG5ebmtedWBFcm8YhSbgRNBzTtjQOjCTAbhxLByztmjA/Ns3KDclreyyo41WiOG4jGTdulh8W0LFanulgMDf8c2SEe9ttt4VpZ6aww82lWJwWL+EoL4jTqg/ElRYHDTcLBfl+fjwyNWPymCwcATs6B3feeWdYWEa+YreGYGkCcdKRQ0YUHKPphpBPNpMdSIPrj2KPp8XBZItlrC9xmpzH8Zkbx++++y7MIPGmAGURh2tMTAZmDcg/15YZpTivdsRvbeVIhuE3R+5dOrl03ug8mR+wMPWBenznXXfJ2WefLddcc60OxHVcrvGxSKxMTblGTewoeNvOlXNq1iL86Tl3JHczXmpE636hjtKf+te/5KwzzpALzz9PztQjsx7MMEJaWfH65+ZbbB5kY7OYZaVJKz8MozJsudVWsv8BB2hbuHgW0Wk8lnvlHt/MsbIwe6ZXmfaGtEpfE4RhZIXiNcVoaZgyrAsW1uRjtPjuu++Gtwto6LHH4Afic0jas4Mfr/sAv82dIx2S+++/P6xkpoNiaZpytN92br8NiysN3GJjdmCy2ZFys/gZET/00ENhlbt1lsDStqPFBUyrMrPBtLV1aiy++JwwaQbS7IzkbzpBrBeIOxG1JS3+fFAuH3/8sdxwww3hla+4ftnRzuP81pc4jljG2I48o+CpN2y/TP0ECxubmojTSGLhqQ9cWx7dWFpg7hytHMwYyd/A7/i+5Dd5Ih7eCGGNAesYGgPSWX31rjqaLgqzSpMmTtJ0KlRhV6jyVuWO4VzTrtARd5lq00xJiay+1lqy3Y47yJHHHCU/OXB/6dK9W/BbG8htRvNTWFEun348RF5+/gUZph3e8kVlSzx+jGm7UlvZffcBFEjOZumSlUhl0+TLtUxK2raWQw7JfrUOmZLX0Wk4y71yp1IkTWzPYrMuXboEOyp9WsXPh8XB6BrlGI/k0uKxtPOBOw0NjbgpPH6jvOL48GeyWpwczdhvdnHidTOm5i28hUFW3vNHifJqF+lgjGR6kGaXj9gv4B9jHSxrUO1o/jkygmc2gYbWOjTmRtjYP9BJ4XkpHSwwd8tTnK/qSMtTnJYdLc7YLQ1zj/1YORixW9I/jyd4FsyIPVm3kiYNSyctX0mScaTFzTlxIQuPiFgEyStdZp8kDhtj8eZzN6gr3AfUf+vYAGnF6Vk8cXyxe6zM8RPXi1gO0qDTxgwB51ZXawvRZI3FqeVC2pVRqD0H/W3x8pvR8kJNb7Vuq8sFF10kDz78sNxz331y/Q03yZ/1PnjksUfliKOOklaqgPEb4gh/q5Zh9lzj1UOFDv+LNA06Fit36iSbbLpp9pXTEA4/ubD8xChshBM+m6r2dcl3Y5FNUdsG/dtZB1x77713pRwcl4VMLZkWo9wNzuObllXzKL/6wM1BA0Fjh3K3Z1rJNCH5Ow27UTmaMUjHZDfidPAb/+bIu9Rs1GFhiAPwa9PxbARixGnakXgIb2XGc2yMufNMlEcbbE7Doj2e7dNZsnUMJhNhLA6MEadnBn88I2QdAA2thYkN4I/RPRu34D9WAPlIxsGRRyDIByaPuUOsCCB2awyI164vcE594v18pompX+QVrIzSwI+VsfnnnPrNWyGbagPfr1+/sHNhvPNenJ/YLra3dM0wimbGh06VrTKPySdjbSFtK5NYDs5NhiTYmX9ztzKx6wsWPhkH4VgYi4KnXpG+kfSbn8Vxz/pxdrh+P4z+IUw3EwUx8rlUsGtFzL16rycPP/SwXHLppbLDjjtqx7x32Php7bXXke223yEo+etuulFWX3utMMoPz+NzWnnJfBCvtRPqSxV9hY6GNQiO6n9xXSaO8E9/Tpw4KVfPcQieg5+lRSg3lY8OzEEHHBBmVO16Oo3PYk3SgohvBja0QMHXB6t03BA8p6NBaMqKiNzEbw13fLTGyxokFO6ee+4Z8hdumijPTHXyDJPn1LUhe8MvjgMlSrwodDYi4uM5LPiiscfwfO/II48MjRPyEo4wFofFkwb+LT2mfXkkQafJwlh4i5fROg0oo31+W/7zYfGAXSvCYFh7YW9Q0DFi10G28aUDQxlbeTc2sUykgVxfffVVmFVh0yJ+m6kOKzeDes1iSt6AYJaG6W2uD50GtkxmgxpGc8RLOAwdHYsjTs/O7YicjKifeuqpKm8mNBbIYPkhzTh96yhikNeuC26E4Td+MGbH0fwlwc3Soz6h4Klz/DbwUzOL6/ZkvW5//P3v5K7b/ybl8xZIkUZFFOhc9RWUPNPPGVXU3ddYU/75+D9lwO4DZKU2i+uaycU5nbETTzpZ7r7nbtlEO2goQWYFQmo52dJk1FhkpuaJHfHGjxsvFYty96G6kT8Mnce5c2bLPXffpe6LQrmFfOTysjTQ3Kj82XyzmI6OaDGr950mo2las2YANwKGhWYoqrpi4e2G4iaxG7upIC1LB4XDCAwFfsQRR8hBBx0kO2qPn3fZ2cmO7TVp2GMIR3ieX/773/8OnRFupurkxi02hGckuN9++8mtt94qV1xxRUgXRc5ufaTPjl8sAOT96D59+lQ2VBCXWRqWDn5QHqzgZySFHcThsaMxZtcz1j3UhIUjDxgDBdG3b18544wzwmI+Fothnn76abn77rvl2GOPDSNf8hFTXT7qAvHYdcCwUI31A+SL33bN47znA3caZ9aSsKsb8v/iF78IjSUdPq4THRg+OsKbCaeeemqwM2UYlwsQn6VtjT7nVoasBWAle9r6iIZiebX82yJT7ll2C2QHvcMPP1wOPfTQsEXzmmuuGV7nsvTpUFpYO68J8sHCM5stMRlqC/5ZRHeV3he82jlv9mwp1niK1b4EVasihOlyjVavZpg2/+lPj5FN+m4S5FRpQzycY4iPI7KQ/912212uv+F62Uo7oBU5+UxG/KXBrnPP/ecZufqqK7VO/0fee+cd+ejDD+WN116T/2jn7EGt82efeaa8oh30kqJiqSgn7xowF+/SwPJr16hDh/ahfJwmRAu80dEbrdF3qKsv7HzFDnBp8VdnkFtvuHDURi/sYDZy5MhcrIvRyhrMhx9+mNHRYOUOYPUxhNUbPOyqd9RRR2WeeOKJzPfff5/RkXhm4sSJGR3tZXS0l7nooosyjz32WNhNTRupUN4cteEKflWJVe7sZSYtPUzsh/TZ1evggw+u3FUujp9jbKZNm5bRUXxmjTXWqBIPJl9adjTDLnmPPvpouMYWL+XJkfR1NJrZYost8sYZG+S3a2Z5wey0006Z559/PtQFyoi4yQ/p6AguM3bs2Iwqwsxmm20W/FscZtLSymfWXnvtUHZx3TBj6X7++eehjJPXiHpG2mnxYvCD+2qrrRbqAHXC4jRDfuycvI4aNSr47dKlS2U6xBHnMY47tjc7dosbPnx4ZR5igx1pvfzyy5lNNtlkCZnzGUsnPpJ/dqz75S9/GXYgpO5Pnjw5GO0AZrQjE9oUduyzsrLwmLR0koYyP/744zOjR48OssfXqTZoJzNz9a+vyrRr0zqzUm5nOXZa61BUGHaSW6mwINNO7doWFGZaq0wrd2ifee6Zp0MZVZZbLj0rv/jc/Lz66iuZ/ltuGXZwa68ys0Nd6k52wRQFP63Vb6f27TK9tA727dMns2aXzpkOWlat1L6NhkWu9iojsrYn3iB3WnxNYUgLGYoy2vnJ3Hj9dVomi3Kl6jQFLXLkrvmqPNp5fdFGIxwbGk9tYTOHAw88MGxmwgc1+LgHiwJ5PsXzbtwYMTOSp6dvcmkjFwzv49tCNaipDGJ3jswWMNrj+TojOcPKwY7APuqHHHJIGCXyDN7isviSmH0cB4v9WGnMCD0ZjqlTFp2xujlfnDH40QYyHDHaSIZpd8pyr732CtPylieTgTJjZMvsiHYCwwjeqE2aNRHXH87JExsKMdWNrIC9yVwTXHNmc9gz3Z5ZgoUlP3aOG69AHXPMMbLttttWrpOwtPKlRziLFxl5h5vXyKxsgaP5qS/J8NRzvnzGhkf77LNPkJ13s5mlYPEo9ew3v/lNeJxiZWfUJIvlCbl5xGYzQfE1qA0TJ4yXv95+u5TziE5/aylmHfilp0VMhmYqdDRfEEbzfKxlYu6RUnKkGqdp5ybngAG7y1U6Eu+oZVJe2TfJD5+P5bOxZfMXyqTx42XUN9/Kj9NmSEbTb632yKK5z0XDefZfU5HdrEfLVo+c5WyDKSkqCGs55uY+6mVGuzlZ8ZxGocVOyxs08FScJDXdzHGlAxrNmsLUBrt5jficNHit7YQTTgjPu20rU/PDkWlJlBSPGmI3YBEUr9Txyk9tieMgfToNTPnHSjA2BueUDY0vU6d0PAiPqYm4XGloWZlt770bxM8UKnlJbjFbEyYnaaDUeb6OUjTS8sIzTx5F8Jy6vms00rC8WnpcI5Q7W/9aGQDu5rc6mHr/yU9+EjphYP4Jb+WPsd9cRx6dEIbOGMRh4nPgdxwHsPERj3psAySIw9YHwsYGOSl/HbWH6fdkJwwlzP2wzTbbhDrK9QLC4sf85cPSATpY1C37DfF5dYwcNVJmTJ8RNqUhSVLV1MNf1DeW2LOojUV2Zapc3xg4MFz3SllDTFmZ8xnq6z777CtnnPkrplWCslw8OZEkloJGXcPr9TNCunrER6UvjbMp0b6NslheLf1wSvrFBUXhQzsoeMonuIfyz0rnNA4tUrlzcxjcxBjDbp7aYDe8NXaYxiBO3254oMFiZM7zU5Q4JGU1+c3EjTDPclGU8fNpc6sJ5GDWAEVI5yEZdwx2VjZgr+TFMwnVEeeZzhcr+lHinBv44TeKnYaxtvmIoeOBMmCNQlJmgzyaPChO9uhnRGx+08LUhWR4ZipY+c8KdHNDcZl8NaVHp49vJqDozC9hzaT9Zv0GHTaUZtKfYaNyDOfJES3P3ln8B/iJ46kPlpbFxedomZFARrvXLI3YkG9G7nRYLB4wedMgnB0xcf5Ip7aQFvK1KuF1Mo1P/+W7WpYmSu7dd96Rkd9+W2mXE7lG+Hb7z3/+i/Bp4vIK1GPdytvya+kuTSrKtZNI+ajclFMoKBbUqdHMyMK58+TmP90SNjCya7j0pWzZtEjlbo0G0EuPX+Wpy81sNwZhaFTi0V9DMNnA4geUCouIUEb4wS3Oi8mTNIAfFqixAQnKPbavCfwiA1v1Mo3NeXVpGiYbnRIa3Pj1uHyYW3xk9M5qeJQ4ECf2PFpgtBh3zqqDMBYv8EjDlAWYe2wsLeAaM3NibwGYfUOxsgQ6MfZhIEsfYj/5oHwZsfMqYqx8Yzntt9nZuU1tW1kY5i/GlB8GuTA87uH1PYvP7OuDxRHHRb6of3Rqk508QG7zTycMw+je8oM/3KrDZLZ4MPHvmsDPR4MGhU1kNKDqK+2U5dyqovHq3yC5/pmonaIxY7LfVMimh0PNqFdZvVt3Oe7446WopDUCaHS1DNwMQL2r4LJAy2uBZqasuEgyrVvJwkyFzNd2+asvvpDrr79Ohg0ZmgvhNCZV7/QWCAojHslyc8XHfMQ3PA0Io1obTTeExTf44vhpREmD5722ajuWL/Yb21tcgDvKnVEwytD814TJQpooNlbEm+KAOL0kcdqMvBghxjLVBtJidJ5PuXPt8FPb/BjkB+VOfqoLa26myJi16NGjR+jI1TXNNOI4iJ/RL68qJqlNmVEHeQ7NIxnyZ1h5VQePGuLvLOA/mWaaDBYvj02YdTAaUjakE6dFXNR76pD9tjxZOhaGfJMX6hqYXztPI04L4jhrS4V2OL5UZfQnHW0yItXQ2ZGpRcGJmvAz6xxMsNH/P/wwpkp+agsdmB132ll6rtcrjN7rFnoZonJnigql/Wqryk8OPED+cO0f5ZFH/yFP/edJ+esdt8txxx0rbdu3k48+GiwPPfxQuC/sGjuNQ4tX7oz84j2X61J5zC9KnYbVpp3rWwHt5rYb3OLhSKPLIjZ73muNt/m3dC0sxHEByp1RcOy/JvBrio1pbNJPxpvE4jUZ+c3rc4SvKSzgHsuGUrdPmxIn7iaTjdr5DbWRC4iHGZDabmBk8XKtmUHhehBfTXnJB2EtD3EcXCNbQ1CX+PHHtaEeWhiOVi4Q59+wNJiVIF/kL81fPswv18YWNppdbWVPg7AY4uK+YjEdMmJndSAm/o3CwxDWRvmEicsiDYvD5AeTIbYziI/6xy59A994Qy6+8EIZ+fU3wvwdip194zXhsDd8eaF2RtWwAU3WvuqagfbttTPC4rJcOonsVQvXrf+W/cM780tKuexBJitDTIU2CxWq2A876kh5+ZWX5cGHHpaLLrpEDj3scNljz73llNNOl1tvv0Ouve462XijDeXDDwfJK6+8JAsWLqhynZ2G0WKVO5UEQ4NkzwoNc6sJq6w0iCgKU2b1Jb4BMAayoEz4CAwNnGHKwRqt6mTGD4qdxigZf20gbvJo6Vv4tDTNzvxQLshvZVRd2rFsFg8jdBQ8DTVu2JtbssyrizsJMtkI3OJNI5YHpUE4C1OX9JIQR2yAaxQ/JqpL/IzY6ayYYgMrH35bGjFmRzk0pA5zjRi5U8/qG4dhMlm9Jl8od2SE6vJi9sljvjANhR0Uf3P11XLqKafImwMHSoa3ULToVZKwYK5c89C6bRvp3aeP7L3fvnLUMceED6JozcFTgE5Zj569wnldZMQv+WI2iTUTJXQ4c27NGWYY1lm3R9gLY9NNNq1cw2N1FqiLxxx9jNx3371hC2a2xi1kgcJykcPlg4bdpc0YU4wodqYUqVyYuDGsCauQTAGy0phGtaGYHHZu0LAxNWkNnDV8Jqf5zSc39oyuYgVZFygXFLvlsT7hTenUJmycD84tHEfLO/HRscK+rvIAMlm4OL0ksT+oT1rVYfkDlGT8TLkuUBb2loTV49pA2vi3sPXF6lacn/qQDGvXGUzWNOK0LQ7yg7HfjQn18KsRI+RVHX1OGDOGAggKPbyypcXIKvY1115LTjj5ZLnhppvkjr/9TW68+U9y6mmnZfecV9hqdd0e64bNn4y6ykrZsHZkNe0Aac5zts2PULdy14IZppVX7phzWUxc/9p1aC8b991Uttiyv6y/fh8pKWa2LOfoNJgWqdzthmeUxAIzRkrWAJipLYSjovI80BqgxsRkoXfPoieDdE3pYIz4PCbpj3iTdmnEZULjbYq1Jog3lo9wprQsTzURy4iB+JxGn46VdTiqw8IYxM0sBsrU0sknF7KbG+c2+9EQ4nzEJPOS5icfyGb5iQ1UFw9uhKXz15B82SxIY0J8mLgu5ZMxLW0rg+rC1ZeKinKZMXO6lC5YKEWs8iYdtS8lnVYlskHfjeRXZ54Z9ovnIyhsM9tx5ZXDYxdG9IBMa6lizr6GuPh61Qb1HXa0I2888urSlbc4co7NGEScN39e5auT8f1lx8prqQfsMFYHnMah2Sl3Lm5azz2+KawyxAaoRHbEjmdlbJBCo2bE/qvD/CAPq8FZnIVyr03Y6ojTj4/sAc5UlVXu+Gjn1YEfppNRHnGYushLJ8iecVdHHDeG8iYcnanapJeUDZnjqXA7Ug8ok2SnysLHpKVL42IyESZO1+pI0o26wkwPSjQtnfoQx0Ne7RrVFR5dxK/QGfbb8oOJ84chPygdu0ewqy3IyrWgo5V2bzYE5IjLgnOTOY1kuZnf+pRnTVBWP878URZouTNSB77BvuNOO8naOho/9PDD5eennCKr83YFikndWRj64MMP5co5G4iOe1ZxZcuu1rJqEYRXx9R/q9atpVWbxY/sqiujpiab7uK6pX+CjOG3/iOX06ZOk8mTswtHyW9qnrHLuTXF9VvRadw7tQFwcWn0uAms0mIXNybcMBirCFa5MDZlSCOGH5QNu2qxYUhSYdW2IuEPQ6/ZVvKabA0lKQM9e5QY9tmGoG6VHn80IkytI2NtwuGHMjfYJc5eo7N8puUXO8o49oPiib8ZXxfIty1YJG2Tnd88r7N1AFYXqkvDwuKHjWLsgzMYm5kw2TH457fVHzoEvIduyj2WpyEQN9BZwfC7LtcZd8qYzgpYfPExzlfSnXuAZ+Y2u1IbSNPuR64Br+DFclrc9SEOa+cWt5VLPtLcGiJLPlDGjMRbtW4VRtCF2gFdt3dPOeCgA+SG66+XQYM+lB90AFGJivXaq6/ImLFjQ3vBlDw1tkP7DupEPcvKiKy1kZd8Wk6LirN7zy97qLf81XunUOuHyqR3Tqh72hNReTNSrIY3QkaOHBXyHUJpdkN+omvHWTA5+9jNaTjNSrlDqCQ1YI2YYTdL3Fh+/fXX4eMgvBpmcZu/OGxN0KjxahQLmeoSLklcceNzQG5G7g29eVGQNvqvraz4Q8FTprx/bQraTFJWwA5jDT/QMUAx1gYLA5zTKYlXqFu6KH3eOSdf5tfSTsPkwZ38sBgKRW11Cnc7YvCHf+Achc7X2myHP5PF/NSHOCxp0FnhWkMcf748GeSBa2OvOhLG8mX5iPMTXxug08ZXAglracXuaeBufrgGtjDKqEnm5R3q4w477CC77LqbrLnOutJhlU5y6WWXyy9+8UvZY4895eSTTpLR2oG0cqKMX3v1Nfn1VVfKLrvtmlWAem911k4RpUh5makL2TCNt4lWQ6HTUlCobYbK1aZje+m3VX9p3UHbx1zeWJdQoHXzheeelYWl2Q2o9L+zlGk2yh3iRpgKwQ0TP8fNVpKqtYQwGKv4nPOcna9/sfsRjRlu2IeKV8sbBL+EYdTON9NRQPWdTjWS8ts5RxqS+mKNC4rdHh/UBgsH5JWtaxnpQlLWGLsWFp6p4i+//LLKKvDaYGmgNFhMSBlbvGAdK3vFztIz9xjcyUMM09Bvvvlm5Tu05h7HQTigXpB3PpeKcjc/5t5YsPkKHRYwGaCmtHBj1M5e+7aZDDJjOI9NEuLmFTy+QmezWPn8JjG5WNDFdeK3yW3Hlgr5691rPbnr7rvl9YED5bbb/hK2TB07dry0adNWR/AHhV31smS/G8C6ma6du8hrr7wWptR59j7oww/lC723tMSDz/qUG3HFbVdtr19TQD7KMhWyTq9e8vA//iGP/+tfctXVV8umW24hrdq1l3KVq7ioUJ55+mkZqXXOWTY0G+VuFZ4KyzmGcxvNxhU52ahxbs9K+cjF7bffLo899lh4v514rFG3uC1cdVi8KBfeP0dhmoz1wfKUPDc5apKnOiw/KHc+92lKsrZY+aA4UNKmAGI508CNMkIZvvfee2HkWx9Y04DCi681cdOZQqmgEC0/1eXLZI1lfu2118L36KkLFjaZJ/LAzMMrr7wSvjFvU9/YNzZsqkMHDFnivCBT0i4Gd64TMwt0XjmP85MMh53lkw4yip3ra3YWxn7nw/ywJbJ1SiytZJotkUJVUjyOoPN56GGHySWXXJJtV/Qf9XNxRzoj7VZqJ0cddaS8/sYbMn3GdCksLpIevXrKj7N+DJ9O/t/772fvrfqUW3MpaqqLyt+5S1e5/IrLZa+999H6vLacfvoZcuttt8mpvzpdeqzfR5V7scya+aP87Y475MNBgyr3dnCWHs1GuRvW2FijwoiDERVTimbYChPDgjm+BY5C59vcf/7zn+XSSy+VBx98sPLd9mR8HGtqlMwvrw7xwQ2mjC2exiBNhtrIVRNMnfbr1y+MsKC2Mlu6dJCeeuqpoAQglsniSh5RMnxUhIWLKJGa8hDHCSzS4qMzvOdsWGeDNLCnw0LHxexqwtLALw0xnb37778/TNPbmgIzNLbk94knnpC77rorKE6jNmnVBGkYxEfHi9ei0qa4a5Meyp2v/nFf4J+y4mgG4niIl47L66+/XmW/B0svliEfdLqoV6wLieOOz1sidO4on1BGFJMet9l2W9luu+0qyy0uP86nTJkmzz73vJTryHYlvR9POvlkueWWP8vGG28kDz70d61fPIfWcqu52JslTL0zHb/vT/aTffbdN2eb3SRpq/5byUUXXyJ/uOYa2WKbraWsvEwHWY/KVVdeIYO1faC+VDG50E7T0OxG7sBNwo3FAqJXX31Vfvvb34bPQF522WXB8MlTetAXXHCBnHXWWXL22WfLr3/969A4v/vuu+EDKobFaxUKiN9MjKULHNnvmg+5mGIxpZMMV1+SMjUE4qER5oMa7CEOaXlMkvSD4vj3v/9duaufyRjLGsNIn3JHgRCPNYj5sHjMDwqD55p0oCB248iong084m1k0+LHzuzjNDiivG/TUQUdPx7XDBw4UP73v/+FKXtmeKg7N910U3gsweyDhW9MTDY6jFtvvbWsv/764XcsN1SXLm5MydMBY4aB33Ge06AzwzXlERUdgiQ15ZP42Vwp7RPAsdwtFctn9l+W4pKqCz8r/WjdH7D77nL11VfL3vvuI+3at5O3335H5sydI2efe66crIq+Y0fWj2iZ16J62bXhSNtTEX7XImATgiyrrLZa+GJdp07ZrwyGYlBD/hlgMCC66U9/kh133TWswxk2dGj48FCptuewuM4t27y0dJrdyB1CRVZDQzt8+HB5/PHHw8gKpWOGxXLPP/98aKg//vjjMIK3HbSoPGZgcWXKYn6SxGEYUfJtaRSl3cSNQZxGY0O8rNLlnVub4ra04jxwbko4locj02eMcp955pmgSAwLH/tn0SK7SzElb+5x2Vo6Br/N4Icj0+6bb755lUcJdsQPaxH4Ehqj3Xja3owRp2vHGGZ/qC8ochrZ448/Phg6iNQnOgDxzEMsQ0OIZeScaVz28O/bt2+t10YYhEce3gChs0IHhXxjbwYoc/yRH2ZU7rjjjvD9eOzMT3X5Mj8cUeh88Q95G1oWLR3Ki8WSP/vZCXLfvffLA/f/PdTtRx5+RCZNnKydum20E9tNy3FxnagtixaWykLtqC3rK6B3v3Tv1k3W5fsLRUsuAKYMqNf9dRRPGfxk/wNlBl+r1I7z9JmLtwF3mp5mOS1vhoaLaVNG8GkGNxowa5TxH8eRRj43wmNwo3Hcdttt5ZhjjqmyI5i5NwaNFQ/EcbGqn0U+PNfF3vJleTDDb8BPrBg5Z2qa2ZJbb701dK7sGTTgzoptnmUzi/KPf/yjch8B4qgpTY6A0mAqb//99w8fNAHiNmPycU5ejjrqqMpV5jFx3DEmi50TD3Iyw8CjHVbRc+Q39uYXLK7YriEQX2x4hovCpGOTxNKuDuo7sw6/+tWvQsd33LhxldeA8JzzGiBrDZjlYpRveaQcOKblzeSzc2DGhM6izV6ZfWOVzfKOlaWVK+VT0qokbDjDivk//PGPct8D94fHGuoY3K0MawR/aoiXZ/hTp0zRBruWYZuKgkJZfY3u4V7kVbhQD3IyBufcOffkOuuuI7ffcbuce+558ulnn8mQT4ZUllPAq1CT0qyUe+VFzxHfBEm3GPxVqTTVYH44YuKbzc6Zjj/33HPDAiLixS7ptzlhcpmcPKM+77zzKhtksPwCebJ8WX7iOHBDYdx4441BgfzhD3+QBx54QB566CH561//Gqa3sX/xxRfDCnluZBQOJBWtpRunjR9+M9271157BTljOcyvQSdgwIAB4VvzjN5jdztPHiE+T8rEb0vLysLcLFwcprEgbjqMO+64Y3jcQN6MmtIzue2cb/efc845cuaZZ8ott9wSHjlwndjTm0dV559/vgwaNKgyf3F4sHzG4G5+GIEdfPDB4XviSQibFn5Fw+p7XK52buVDhzu8K6/XoZLIf03wTfTJEyfJlEm81puzXFZo+jxK41vzVp/YyS+J1Q82+Pnt734nt/35VunVs1dlmOAn/HWaimY5LW/YzVETtfWXhBvTjFU4RirHHXdcGLmjSEwRQfLYmDRmnDQmhx12WKUyjIkbGNLEkPf4HFDWPC9jyh3FwdoGFDojwUcffTSM7nlsgn+bOQHLh5VblQZNwR7/PEs//fTTZbPNNqvij3gsLOdmGOWirJjStuuFAUszDXNL+uE3hrgsPfMTx23HxoS8kh9mhlgjQRrIYORL0+xNZgxrI+hk/U4bUJQ814nOGHa2DoJ8Ja9DTJw+R/wzs8I3+g899NBwrax8MOY/n5wrGlYeVoYQl5EZ8xN+5/xVC2WthnfFx0+cIPN51TR/VW9S7Npnz7Uu5eTgkC+vds4jzu133EE23GjD0B4t9peNw2kamrVyb2qsklmlZaqJkcqxxx5buTI4rtT4ba7EcgKdFEZvW265ZWWjYgYsL8k8WRx2c/KbKV0WZjFK53GIjdIhTjPfOVg6KBlGriiN/fbbL9z45teOSZlMFp5fMiPB64lG0m99sDhQaJTbuuuuWzlDkMxHY0B6jIrt0Q/vRufLez7wj18M14PrwjUyY8qcY5yH6vJjaXPk1S86uSh4ysXSM/hdXVwrKnZN4rIy0uyqI/hXw303evQPoUPABjFLk/g6h3zpccrkyWGRoJHMl/0O/quRNxub01Ss0Mqdhg9DBeTVJBT7aaedFpQHDZo1jLhbY1ldZW0OIK/Jyir0U045JYwOyQ+yW37smAR7MzH4Nf9JN0jaxb/jdFDsvIHAdDKL/8yfyWQmxn7TETjkkEPk1FNPlbXXXjtV/rpC3FYHGE2z2I5ORzxd3thYfuhA2sK+eBe+ZP5jzD0uL8PKg6MZ+23E5zFxnLy5cMQRR4T1EPEre8m08sXlNBJc3wo2iZovY0aPCb+XNnadK6+1yjBtWnabaqsPy0Aspxas0MqdyknDzoidBVsXXnhhmPYFa/BjrDI3t0YNuTAmF0d+swL9gAMOCNPfvEtu4GYjeIMw1eWLMJQJR4Pz+DeYP4jjxJ7R8O677x5WqLMuADvzkzw3OLffyIyyQRkygmcFvY3q64uly/oK4j366KNDB8QeNTQk7jQsTssTMwVMp5M2aw/ivCcxWTF2LWL/5m7nYNc5aR8Tx0n5Hn744XLSSSeFzk7Sf1p4p6nIXhfqIm+xFCyDorfrHY5q+DV9+gyZOmWqdjxqt87JWTY0mXK3xgTi86VNdWmjbGjAeGeeHaRQODbCtXCmPMzeoFLHFbuhlbw6OWvCwnLEILPJzSYwTP2i4Hm32qZYIXlMkk8m/GMsPTsHs7NzwJ1RN++/shiP6XVbC5Dmn6PJFLsD54wsmTK+6qqrwmIvG2XH/moLcnDdeZ5PGTFFzloDGtQ4n7XF5M6HxRcbZiHoWFr6EKcZnxMeJWxKO4mlz9H8QpxeEvPH7MEJJ5xQ2XGirhhWn+J0LS1Iixfy2aeRlD2J5QWS8ab5T5LmpzbhliV8O54PzpSXpW8Qla+sGhOLn798+nbShAky+OPBsrC0VOuD3qv8y8lRadRvecXie6h5l3LLpNGVu11MsJsxVjZNQRwv5xhLM7YDs2eUxIIzNmBh5BRvCWqK3GQ2Y7/B8mhH7O28OuK4wBrQ2oTNB/GlyYwdv1HwvLPP5hqsUOd5rykI/AHpYyws4MfsjeS5/Y7DGRae6ecjjzwyLPpidy/ST/qN5QY7T/oDi5OpY96zRyHRSbPPxqZB/JYGRzoEjJp59n/PPfeExYLx9qpxPHGek5jfuvhPHjE842ZG4+KLLw5va9DpsHJCXru+Fnd1acR+MHYdDKsXJgPnbPFLB4PNongsFbtxns+ApQPYxXGnYW5xvszO2oxYXgM/lpa5p8mXJGkX+02WTXNCcxlkpC60a9c+t4nN0iUuKwyL6SrKyuTZp/4T1gHwW12qXJOAnuPfrqez9Gl05Q52UTkC5019E5EWN7pVMkvT3LI3SLvQiO62225hRTGNOq9i0dATJhlHGha3+TM7jDU01WF+zX8sI3aNCfGZPHRmWFPABjVMuaJAUB4x+DU5krKk2UEcJs4/50zxMkpHYVxzzTXhfXbzY2Vo4S0c8eDG72Sa5mYgP/FzLR955JHw+iIf+SEdRsO8T85KbzoCfHyGDgCjdDp1dOgIw9a0LGyLR/+WrslUHSZfLKdRm/AxdMJYI3HzzTeHd8uR2+pmnG/gdzJNfqfJAchCeaNMmZXgnPJDqfNsnU4u6yBI0+KI40qLFzu7VpZX7NL8xuCOf8JavuyIvbknMTuOZsDqUb60k3ZWdmYfx9Ucod3qu+kmmtFlL6OWlBRrWQ0bNlQuv+wy+XjwxzJ71iwpXVgqC+YvkMmTJsu0adOyb9LoP7s2Wti5GJylRYFW8EYtdbtphgwZEhqLDz74oMqN1FTYzWk3KpWKhpHGnYadURq7zfFuMdt/0vgzVYxfbnb8c0zGk8TyglucJ/LJyOejjz6qbDzSSMZpv1nEde+99wY5G4NYRkycR3byYxMavoDGN+/Zp58VuTT6Bv5iTM44X2ZHvJYeygMlxTP+bbbZJoyu2d2MBspksHAQn4Ola+mYzJD0C2aH7Eyn8x1p++4Am+1ghx/SZzqflfAYpr+Zhk7KQhhmGPg+Qbx5T3VYHMjMIsEnn3wyzFDkw/JmZcYRQ16BtxPYB58d9dg2li1+2ReeTZvwR3kQLk43jsfsY8yONEyps76ENRDUPevsWfg4jrT4AL+APC+99FKYdRgxYkSl/1iumDg+3OgEcu/wGh/n2FlZxFg87CZIh/Ff//rXEh8rSqaVhHjpOF133XWhXiJ7nO9mhWZFr6iU6nX/52OPygXnnCsL58xVlbls0S6ZFOp9vqi8QlbXesQ9vk6PHrJQ25D/aTvYQ++vK3/968pXKKm3lC3l3OzKuAXTZMqdfbppJPmoCA1+U8MiKBaQ0YgzSkXB0IChxGnMeYZIg4572vQtv60oYrekP/OTLDa2wGV0Sr7juGLiuGJ37FEG7G9ue6w3FrG8piRp4FAgfM2N68O77DTKKEW2aWUPcvxiCBfHgayWD46mLBglU94odd5dZ5MW+yCM+bd4LA6zN8wdrKNhfpKNfZwXMNk4EpYGhYafc+xNTkwcl4UzUKLszseGPawIrg0WnrjonLH3O28qJOM2sI+PJncMv7kObCb0zjvvhI8jscUy14gODK++xdcnDm9pcsSQXzqy1C3uB9Ze0PFixiLu5BJHsjzNpGHpwxtvvCHXX3996FTF5WvxxsTxEQf37i9/+Us58cQTw71r4ZPpmkzsLMi9Quc0Ji2tJKTH7M5FF11UuXjW0kmmt8zRvJAb8jT4ow/lXB0sDfvoYykKcsb5XLpy56TKSVAoizIoe71masEnbpkdfVLvgb6bbCKf6CCPAc+2Wt94rZL9552lQ6Mqd4uKI5trcFFpLG3xVFNCA0HDwMp3RmSMAFDkNOYoc2Swm5cbnPPkTY3cGHMz+xjzA7gTFzAVhaLks7Np4cDsk3EAIz4UPA1tYxGnwzHOt6WLkmAlLkqdLVlRHigU8sEIn5EvSoaRPXFQlshI2VLOdJhQ7KxZ4FktI0AUOu400oSJ851MP4nJaecoaDZjIX2uLR04ZIjjhThO3OxodrHfNHfOMXR42KiHbV3pANUW4iE8z+0Zudek3NPcsLMjxpQcnQyuBSNWRvRcH+Tk3uLacX2YZUBe4mTGinKy+4FrRKeDTi6zVzS+3B/4s2tkWD4s/TT5DfxYJ4z6w2wdcsbhLL4Yc8Oea809yiiazqB1vvCTTNvioU5yr9GRiNuWtLTA7EmLI51Q9n/gEQTyJ5/7NxcsLxy5H//w+9/Lg/feKxXacUWfs8ENXrJyL1vZMyRvRa/yHH38cTJg9wFy5513SYGWL4/O6PAjK9fB6rbl0cq+uV2D5ZkmUe7cMJxzEa2hbsqLRlrEbzdp3LiYW5xNszPic/NnlS8J7hYeQ14tj7XJbyxHDLLTsOULV19MXpPZ0rd0+E1ekRtFikHh04Dy4RjbFAXFgV8aUzpSKAZTHvxGdozN0lh6dg78NpMPUxaAPxo19q/ny2Y2I8MIlIaZ89jQ2UCWWDkgj+UP7LqaTLEbdnRumB5++eWXg735S4P4k+7MEPGlOduyNS2vhInDxX6S9pYGBnmYkcDQ2eHrh9bx4hrZ9CedH8oBQ5lYuXDtbNbK0onTTmLp54M47Hrhj7pjZQmWTr44Yhm4DnbdwOpRjPknTTPmP18ahoUF0rFOAfLGHf/mBDJb+ZFXPpZ1xaWXyoQxo8NraJQQi+y09CiAbKBmQlGb1tJB24Y5Wj/PPuccueiii0NH9L777g3T9WeccUZ2/B/l0YzTODS6ck9Gx8WKL15jkya+2Vl6ln6aXyPpF/LJG8fPeTJeUyBJ8qVfmzQbgjW4Jq8Rp2X2Jov5jY1h+Yv92W+DNM0f5+bX/KSFAezxb+6MCHm+ypfbUF7EScOPskLZY5glYDaBc2YRGKWyzoIRK7MhvCFAOsQZp5f2my+uMUXMyNDs8pGMk3PWc7C/u31FLY4fsIvjTLpDde5xWdp1hTgMmJ84vPnBzuSI3WPMPp87WBwWr8FvrpGlk4wjGS5OCyXGNeY8LZwdrX7FYavDwpg/fsdp1BR+WWD5BWSns33JhRfK49p5LC9dGMbq7FhHNWhu8lcUqFA6nC/S+/T0X50uJ550ktx0443yn6ef1vv5Cjnv/Auy1yBMQaS3IU7DaJKRewwXK1zEJrpocZqWFliacfrxzV0TtfUXp2/pQG3C4z9NzsbGZLQ0DDuPlTDE8qTJlLQzv3YE+x3bQRwuGQ9gZw03R6aeeYWP0Tsj1GR8aTCDgLKnA8DmRDxDZ4YB4vSsPlicjH7pRPD+PFPfVh75sHAWJ+dsXczz4Pi1uhj8WJg0NzuaH6AsYrdkuCRWfmkQ3twsLos7SU3pQBw2jo9jdeHT0kzKnQxv1wssfE3pGPiPwxi1kXVZYbLF+ebZO53PUV99LZkyVqRTRymzZia/KneKW3MgrdqtJB06dpSpU6dJmXbQb775T3LKaafLqO9GyX333Ctz581VZX++9O7N57Wbfn3WikJ6C9CIWAWNb67GJL4x4/jjBsyO2Jn/mkxtif1XFzaZfzs3//zOF7ahxPGajLEx2ew3xPKZHSR/g/m1I8TxWJhkuORvMP/A9cLw/DieOrW4zJg/+830MFOALDx74oknwnfPsSNuGkqMxRPb8TEcVqizYt7ATz4sPYPRKiN3ZgyqIxnOMDvyYo8TMFaucbh8RyBMPvAXx2fHNFMTFo9h4Sx93JN+IJkfMzYVnxYGzB/udl4bkunF1CWepQ1yWV7t95b9t5Jf/OLn0ko7r4VFxVKho+PmSPi2TJBdpHTufJk8foIU6D1YqHZ/vf12ueOOO+SkE04Ir32++d//ytgxY8I9yMY3rB9hls5pGEW/UXLnDcZulKSJ3ZqSfGnGdk1JnG6SpAzx76RbU5Avfks7aWK32pxXZ2pL3Ahbo8bzf6bKmSbnPIn5BVMqcZqMxpnaZ5qeZ32sFbApY/NHR+DTTz8N0+mswOZ33KjmA3eLC1h5zt70ttVvnIaRZheTz83s4/Bpx5qM+Wss0uKHNLuYfPbAdawuXNLUhPnJFy4+b47E8nJkH4cJEyfIkKFDpXJLWo7qFu4F/GdtlxlB3CBHVhZW+AcrNTOmTZe33npLxv4wWkq4ZwsLZNvttpO11lpbPh48WJ577tkw68bCRzLGP7D7nFhC/E61NKpyX5Ys6xu0vukvS7mrS7s2cjWF7MSZVKxMzbOPACuxcUs2/pxbOEiGH6OjguHDh4fFeShu3mxA4TP1ziuAr776atjch3e1ecvDwi5uTJbE0kQW/KHk+agNe9OzBsDcGoM4Lw2lOcRVXbj6utVEWljsGhLn0iBNPjqom26yaXiFddz4cTnFmfXHM3g+NrPs87VYJiPcl3rMylgRjoi5QDvtM6ZPl6+/+UbuvPPO0MHeYfsdwrqV8MZK6K9k48oes+Gc6mnUZ+6O0xCoilYduYltNTSvVPL5Wl61ws7c46prv2N7zg0ULavGWVXPwjsaSPwxBYiyR6nbq2SGTd+ngT8zxMPudzxr5zv61vmI43KcxsDqNsdXXn5JzjrzLBk/ZrQUiXYytb6GOqduzbXumfwqYJAzw8K7Ar1fCoukqLhYFuk92HalleT8iy6Unx53fNhsa5111pVdd9s1epvIlXttaDEjd6flYA0AN7IpSjZwYYMgFC6/7Qix//iYhGl9lDgzAePHjw+jdxS7bdoDNtrOF4cRp82ona19+bIb74/XJIfjNATqKvV0nXXXle5rdJehQ4dpvZ4uxaxZSNwLzQ3kCiacI2v2XDMV9qzXrnLopHzx1Vfyzttvy9NP/0cWzJsfdlJs06Yt3rNh/NaqEVfuTrPCGiVT3himuRlpswsa73YDShU3O4IdwcKau52D2dFAWkNpbmDncZg0LN5NN900bLXMznz2/rSBu+M0FlZvOdKpXH/9PrLxRhvJ58M/DxsbFeoomI+5aC1WP9kwnGdZXBfjOt5w0u6RJeON76Vsuvpb7TjnJwY/mHlz5siY0aOz+238OEtW77a6fPX1iPAWDHtcEKZx89DycOXuNBvSbliONGZsXINiZ4re3oU2E3cE4gbEiN3sHPgd+0+Gjf1bGIjt2FmQDTkOOuigyt0FsbcG2HGaCuoXnckePXvI9jvsINOmTZeRP3yvI99ynrdKQfShmUxuVb3VWztvPJL33ZJxJ9PldtM7EBt+4SBFet/gwKp65tD4zazEiy+9GLZ1fuWVV6VL586yfp8+0T1GnvTgVMGVu9Ps4IY1AyhZRu6sQmc6nVfW7FUZU8Ack8o5DYszH3GasV/OY8OoiXfZmYrn2/K8/pZMPw7vOE0FC9O6dl1dBgwYEJT96DHjwlsiZYvKqYRaL/WAR+pj7j5p+rqZHn+VdDlVgx19D35WBFmz95jdT3xDPtiVZ2TWzBkyZtw42bxfP1l11dVC56CoyDvSabhyd5oV3KSxMTjnefYWW2wR9ppnBTyb2pibNVjWm8+naO2YdDeS/oDz2B7Fzh7tvPaGYTGducX+7NxxmpJQk7WqsRCNjwFtvc3WUlpeJlOmTpVZvNYZ3BffE9TKpq+b1cePLOUqWTlyqVeUesbuGTUVGj77W+9ndcuuicGTyLTp08IjCPaxYP1MT70Xk4/DHFfuTjPEFDUkGyHeVeeb7IzkbW91e/89DpMMl4wv6R6T5oZMKHUeD9CAsv/84YcfHqblwcJY56K6+B2nsTHFzYrytdZeW3bcYYfwMScd1gcFP2/+vLBBDMqRkb5W0FT1y0jY7LMxqldsiD84pIVKo6q/cE9zkouKuDuvvrrss9++suuuu8l6fdbP2qt7u5U7ykabbKJ+C2TuvKzc2BcWFmnwgrDL3bfffCtvvf2mfDR4sGyx5ZZhFi3tUVjclqxo+KtwznIB1ZTeO0cMo3c+g8q76XxUhpE8e2/Hr7OlVe34Rjd37Di3o9nZkQV9vELHHvU/+clPZJdddgnn9jqdhTX/du44SwOrs0Ddy/7OaKe3VCZMGC+ff/a5vPfOO+Ftky+/+ELGjR0b/KIqg7LVYTOKkTA8pg91Wn/lanT2hDqePWgaafs3LJYBwvS6xsnzf1vkl41P3fSEcfjaPXrISSefJLvvvod0104yo3E67Hy/no7J6B9Gy6uvvCrPPf+cTBg3Too1b4UabwXKnvQ0fmLdsn9/2fcn+4Xn8AcfdIi0adsmm5CSvDdXJFy5O8sFocGJqirnZWXZz8GyGQ1bzPIe/Jdffhk2q7GvpTGqx9j78dXByNy+qGYfpWHXOT4Pymgdhc5IHXtT4rFM8cI+WNEaE6d5YHWSI3WQuj9HR++zZ88K27x+O3KUvPLKy/LRoA/DyHjRolK9VxaGEfGi0twukBoFYVHMRQVZxb64Nqcp9wTquSLXabD7AoWcuzOyv7Un0b5Tp/Ap4j333EOOPPIo6b1eb1XOK4VwyP3jzB/DmwB/ufVWeffdd2T2j7OkkHuZPGocdDTIbclKbaWXhv3LX/4adrsLqQT3xa/NYlYkXLk7yw35FCnnLLALjYH2/O2753y+lQV4vMuOomfDGl6tYXSPX8LyrI6PyjA6R2mzMA6Fznfp+XwrIwhWwaP48UuYtFvGGg5kwd2n551lCfXQCHUw6EK9V7TeU3uZ6p4zZ7Z2hKeEe4Zn1+E4YYJMnDBRRo4aJaPUjP7u+9ABKNJQQaWHeGpW7qRfqPcMx6LCIlmkI/eyXBx8QaAAxV+kv1TBczuVqR2d6gF77KHKeZvwih8LBFdW5a93UXjX/asRX8q///2E3H3n3TJXlTzv9ZdpPlhwR27bdWgv5114oVx06aXh/uM+JM92v65o96Mrd2e5gypLo2E3qt20cVVGeTOyxx/ngHtsTxhT2qaMOWJnJglxYCztGLM3tzQ/jtPUJOso5zHBXq3CSDqqo/gLU+j6b6F2hmdrR3jsmNHy85//QkZ89lnYB76cj7/oUWPJBspDiAv/ep9VqALffc89ZdN+m8rAgf9VJT1CMqXaGS9blH0MENR3VhkvKKcLgKLuIOdfcL5ccsml4fEXlsi6qKxU3nn7Hbnxhhvkg/ffl/KFpXov5179K9KO+mqrynob9AlvsBx19DHho1MG4eP8tnR8QZ2zXGENld2oGOziI9CwoLRZYMRUO4ZGglE4o3Qz/Mbe/HFEqWcbsKpY3JZuTcZxlhVx/Us910P2TO8b1GuiznLvcH9069ZdOrRrKy+9/EoY9auvbLjIbxrExZ3Ku/acLyhdKIcd9n9y+umnSdfVu8r3Y8fJXO088NnaIEPumXxJUYGU0MHQTsHqq3eTXXfbTRU032rI3vvcmz169JBttt1W5upo/gftfCyYP09H7xpY3Xkcx4zd5KlTZZtttpEuXbuEMMn8rQi4cneWK+wmtRs1edPG7rFbfA6xe03G/NuxJuM4y5J8dXIJe/5V89vo1au3DB06RL79+hvt9Kp9bhRd2ZnWo9qooZtQlRCnWv744ywZ8c3XYd3K8T87UbZVxbtQR+7jJ00KMwTBn4UhPv1fqop/4759pVf4zvtimUiDrzzyeeWOK68sI0eOkhkzZgYR6FIUa7986pQpwa51q9ZB/gIeAQR3S6Xl48rdWW6JGyBI/jby2deWhoZ3nGUNdXiJesxPM5CnmjOb1bnzavLSSy+H6fos2ZE58+pBYep/3kvXRIJJpsf5tGlTZfgXX0jHjh1k5112kZ122lnWWmvNoHh5J5+vw7EzHfGx2G7WnLmyaufOsvVWW1Xu/mgdCky79u2kX79+su66PWTilEkydtw4da+QQg3P47fPPh8eFtkeceQR6rc9IlaRqaXjyt1xHMeplk4rd5JPP/1Uvv7666A8Y8LAHbvs/4RrlvBMXIfwM6dPk0EfDZbvRn0n66yzjuyx516y0847hWfsH3/8sSycrwq+sFAq1D+L/mbOmiXbbbedrMk7+zniR2Z8SW699daX/lv1lxkzZ8oIla+irDzIyPv8k7VDUVxcFPbf79Bh8UedVgRcuTuO4zjVUFC5HuX1116T0oULwkI5dHpJYVEYTYdRO0e1i9e+VKI/scF6/tx5Mnz4cHn77XfCNrnbb7+9bL31NjJl8hT5eMgnISxT+ahw3nThSf+uu+5aOXrPxpWNH7+suu/auatsvc02YRfLL0aMkPnz5gZ5WEn/ydBhMmb0mJAOn31eUXDl7jiO4+SBKXBVtKpAeWV01Hffyaeffx5eU+u8ehf5YcwY1SIFsrBcR8ssXNNRdVY5q3bWY6WiL9RzPZRXoHD1vLxCZs6YLu+//0FYPLfDjjuEEfwjjz0qc+fMDdPzqp3D6v2RmiZuPXr0zMZNfBH4pDPQsePK4QM6bA09aPBgmfXjzNAJyOhI/rvvRqm/grDIrkQ7KgZxISPYMRn/8oord8dxHCeV8Aw7Nw3OyJmR78effCK777mHXHHllfLtyJGyWucu8pdb/xwWxs2Y+aN07dZN5uiIHK1bUFKsf1Th6zG7Y112HwhAh2a0U0B8Ja1by3bbbS/rrddLXnjhhbBvRVCx6mmexjV23FjZZ599ZKV2rJzPKvjY4NlW/ffp0ycsths3cZKMHzNWKsoXSVnZIhk6bJjM0xF93759K+OxV2JjxR7iawG4cnccx3FqhFfKVu/aNShoptXZivmgAw+UaVOnyl6qeHv07BlG92eceaZ06NhRJk6dIocdfrh0X2tN2WuvvcI3IQqLSsKmOAtLF6lCZdDPu+vl8snQoWHb2F122VVH9DPkiy++DBvdaGLhs698CXL+wgVh+n6lldqGEXlMrJzpjLAR1e67D5A5c+fKD6rgF8ydJ4sWLpShmg5Be/deT9p37BBmBgxT6q7cHcdxnBUGFGgrHWEzMraFbGussWZ41r3aap3DNrKbbrqZbLDhhrLjzjuGEfIJJ5wg++73E9lTlTsb2QxQhcvIvqy8ImwLPXvW7KBM2TVy0AeDZPyECTJg113lEx3Nz5r1Y1D+jMlR2MM+/Uw6dVpZNt98i/D8PwbZMLFiZpZhp112lu5rdJOp06bLlMmTwzP+Tz8dJhM0nfY6emcHSt7pNwjfUpS771DnOI7jpBLvBAlJBQrBjuFwbI1WqfI7t+hOYZe7r776Sj4aNEjuu/deGaqKvJBRugYqLSyQjbVzMGXSZJkxbZoU6siduHheL0VFsm7v3vLX22+X3QbsHuIykNOoIq+ely0qlWFDhsijjzwiTz/9dNhel5X0fGjmyKOPlqPUsDGOKXZMnM/kOdjvuhJC6x8Lnh4fdlVlqA8+cnccx3FSQbmkmdgtnPO+e+Qe/qX81j9hFM70/oYbbaSj6u7y6WefhVE17sVSKFP1fKGOsPkCHATFjqLTf3zpjs/DsvI95xwgLPFWppczUFxUKN27d5f+/bcKH6YhrbFjx8m0KVPCc/jhnw8P35TgdTsbxZvSTaMhCj6ETUSd7EBlz6rGXZ+0XLk7juM4daKKMkpTPEmr3G8Owb8aptbXXnsdad++nXw54iuZMWOGajreUS8KyjyLHtU7SpHvufO52HV79gzfgEcRE1fWbfGz85hssij6QmnXfiXp02eD8Fpd585dZPAnn4Sd8/hS3ptvvxU+LsUjB7bdDaFycVv+7NxM/cl+42LmzBna8SiuzAfwcauR346U1157Lbybn7XPmrom6dPyjuM4zjLBRq1v/negnHjCiTJj8hRVfGVhExp0WVahZlVUeYWORrVDsPMeu8vf/vY3WWvttUPY2irapKob/NFgufnmm+WZZ54JH5NC6e6+xx5y2WWXyQ477BAWECYhLeLJ15moCfLL/vd/v/9++cfDD8tGqsA32XSzkNdp02eEz9vypb4TTzxJTv75yUEGxCaLtc2n4crdcRzHWerEqodX3+65+y658667ZdTXX6MFw7Q8+izDV9+CUi0IX5jbdMst5a6775bNNtsshMW+Nro2Tg8li4JG0f7vvfflwYcelPf/9z+ZMH58+JLcHqrkjzv+p7LJJptKly5dpG3uG/Om2OuqaIGwU6dOlXvvuUduveUWmTl9uvABXpYbMIuxzrrryqGHHiInnXRSWKyIxudzuVCf9Fy5O47jOEsdNA/v0QPKCzPogw/ktNNOlRHDv5AilDvT8sEP7oWqDEV69llfblbluOeee4Vn/cSD7st2APIvQotVnZ2Zz5kzZsqgQYPk6aefCtvgfvPNtyEe3pfny3QcN+jTR1ZdbTVp1w5Fv+So3iDuMu2sMPWeHXlnpHThQvlKOy1P/vvfYdQ+k8WCGn9hq1bSpVs32WmnHeVnx/8sbObTtk3brKxRPvLlqTpcuTuO4zjNAkbUjz7yD7lFlfc3X47IfhJWh7am3MpVXa3atatc9Zur5aSTs9PWqOjs1H1V5Z5XyeeO4Sz3A7+EnTVrlnzz9Vfy1ttvy5BPPgkL7iZPniztdDTPO/Z9+24s/fv3D48E1lxjTem0yipSXGyv5WUjI46Bb7who0f/IKt0WkUWlZbK9z98LwPffEu+/PzzsDVuUVGxrNuzh+y48y6y9957hx3/OnXqFOQIX94L1F2hx7hydxzHcZoFKHfeRX/rzTfD1PV777wTHrarokIDhw/KlLRpJWecc45ceeVV0kZHuUkdaCqtPs/FszMJ2Z3rxo4dEz6U88Xw4fLttyPlfx98INN1xM1X7VZRpd6zZ09ZY401VMmvIZ1X7SxtW7eROXPnhO1yH3/8cZk4YULYmKdMR/AsFuTRA1P+fIKWaf899txDtuy/ZfhufTbtxQv2GgNX7o7jOE6zAKWKcmNTm+efe1auvOIKGT3qeynI2Qd1pUp7lz0GyJ/+dHN4nQ6lHxS8OuFuSrJ+yr2qOqyoKJfShaVhFfvkyVPCM/PBH32oo/LvZdLESTJVlf2s2bNk/px5smDewrDNbakanuXzsZ3WfHCnVUlYgb/RRjrq33pr2U1H6Xyjnt38TEZT6Ca7/W4Irtwdx3GcZgHqqFxH6kxNz5w5U6655hq59+67pGzBwvCxGbaiZWxd0qa1nH7GGXLsT4+V4pJWsl7v3mGfe/a/51OyUB8FmU0/+6zcfhMPSpJn5Lixsh7DSHyOKvbZc+bIvLnzZOH8BVnFXFQY/PKKW3GJmqJiadW6lXTu0kXatG4bzlHqSdUb0sml1xi4cnccx3GaBUl19M7bb8tZZ54p344YIcUFqth1VFygirdMvXVfc43w6dkO7TvILbfdKpdccomccOKJctZZZ4WwxGVKFBMUbw2KM00dmtIFW2WvtuE30S0OUnULXEvKwgb7DJbqL9jk7JQqfhqJus9bOI7jOE4TgHKLzeabby6bb7G5FLVqpYq8PGjMTIUqbfU7Yey48Orat998Lcccc2yYCmdVeyDoyuyz8wDhsmfVkkwfE9szos+ehyhzbmaq7pKnNsGwyh8TfgerrHvWT5bk78bAlbvjOI7TLOnQsYOcetppstU2W8siFDVKMqcjUV6t9Leq2/CRmX79+snGG28clDyvs02dMqWqAs0dVxRcuTuO4zjNE1XOfOf93HPPk85du8qiTEUYgaOog7LOZEfxJcXFsvvue0irklbyxutvyJVXXhlWujPdbVPeKxq+t7zjOI7TTMmOt1kkx8dfWK0+SUfkFeVsZ5N1ZSqcPeeZ+v5k6BB59NFHg/0RRx4RdpcL/nIj+Mae+m7O+II6x3Ecp1kSlFNORS1csEC+/PLLsIL+2f/8R4pVTxcGN06KpFBH7xm+TqfK/sILL5RzzjtPJk+aJCO++kr222+/yufhKwo+Le84juM0S0wVszCudZs20neTTeTwww+Xrt26hVfiGLEXFrHIrlwyOpovX7gwKPwRX34hZ515huy///5hJF+5sG4FwkfujuM4TrMlqaLmzJktr7z8ktx8080ybMgQVWIVOkotVAVfEUbtKPJSdporKpRtt91O7rvvPlm/T58VatQOrtwdx3GcZompJ44o5/BbdTSvw737ztty8UUXyefDPg0b3KituhWE0T5fWtu436byxBP/kh49euroPjtJvSIpeF9Q5ziO4zRLTBlXKmWUN+dq1ll7bVl11VVkkSr2dXv2kj4bbhi+2jZvwQJZULpQOnfpLN26dZNuq3eT9h3ah3ArknL3kbvjOI6zXBCUVU5loaj54hrb1LItLAvmJk2aFD7wMnjwYFmgSn6rrbaSIw4/Iih5hvSu3B3HcRxnOSCpwtjzfdq0aUHh8yocH3AxXLk7juM4TjMH9YXC5mjnMabezE92X/gVA38VznEcx1luMEUewwdkCgoT+8frD5S6Kfak4m/puHJ3HMdxliuSipoPuqDvg3XOKVOARdDx4RW5rOOKg0/LO47jOE4Lw0fujuM4jtOiEPl/KHxx0hB6exYAAAAASUVORK5CYII=;" parent="1" vertex="1">
          <mxGeometry x="189.99999999999994" y="852.5" width="273.91" height="110" as="geometry" />
        </mxCell>
        <mxCell id="8XWnLqeAtCPpHr6PN-5Z-64" style="edgeStyle=orthogonalEdgeStyle;rounded=0;orthogonalLoop=1;jettySize=auto;html=1;flowAnimation=1;" parent="1" source="8XWnLqeAtCPpHr6PN-5Z-26" target="8XWnLqeAtCPpHr6PN-5Z-62" edge="1">
          <mxGeometry relative="1" as="geometry" />
        </mxCell>
        <mxCell id="8XWnLqeAtCPpHr6PN-5Z-128" style="edgeStyle=orthogonalEdgeStyle;rounded=0;orthogonalLoop=1;jettySize=auto;html=1;flowAnimation=1;" parent="1" source="8XWnLqeAtCPpHr6PN-5Z-27" target="8XWnLqeAtCPpHr6PN-5Z-28" edge="1">
          <mxGeometry relative="1" as="geometry" />
        </mxCell>
        <mxCell id="8XWnLqeAtCPpHr6PN-5Z-27" value="" style="shape=image;verticalLabelPosition=bottom;labelBackgroundColor=default;verticalAlign=top;aspect=fixed;imageAspect=0;image=https://www.vikingsoftware.com/wp-content/uploads/2024/02/Docker.png;" parent="1" vertex="1">
          <mxGeometry x="625" y="1045" width="145" height="145" as="geometry" />
        </mxCell>
        <mxCell id="8XWnLqeAtCPpHr6PN-5Z-83" style="edgeStyle=orthogonalEdgeStyle;rounded=0;orthogonalLoop=1;jettySize=auto;html=1;entryX=0;entryY=0.5;entryDx=0;entryDy=0;flowAnimation=1;" parent="1" source="8XWnLqeAtCPpHr6PN-5Z-34" target="8XWnLqeAtCPpHr6PN-5Z-10" edge="1">
          <mxGeometry relative="1" as="geometry" />
        </mxCell>
        <mxCell id="8XWnLqeAtCPpHr6PN-5Z-89" style="edgeStyle=orthogonalEdgeStyle;rounded=0;orthogonalLoop=1;jettySize=auto;html=1;flowAnimation=1;" parent="1" source="8XWnLqeAtCPpHr6PN-5Z-34" target="8XWnLqeAtCPpHr6PN-5Z-88" edge="1">
          <mxGeometry relative="1" as="geometry">
            <mxPoint x="110" y="516" as="targetPoint" />
          </mxGeometry>
        </mxCell>
        <mxCell id="8XWnLqeAtCPpHr6PN-5Z-101" style="edgeStyle=orthogonalEdgeStyle;rounded=0;orthogonalLoop=1;jettySize=auto;html=1;entryX=1;entryY=0.5;entryDx=0;entryDy=0;flowAnimation=1;" parent="1" source="8XWnLqeAtCPpHr6PN-5Z-34" target="8XWnLqeAtCPpHr6PN-5Z-100" edge="1">
          <mxGeometry relative="1" as="geometry" />
        </mxCell>
        <mxCell id="8XWnLqeAtCPpHr6PN-5Z-34" value="" style="shape=image;verticalLabelPosition=bottom;labelBackgroundColor=default;verticalAlign=top;aspect=fixed;imageAspect=0;image=https://upload.wikimedia.org/wikipedia/zh/thumb/a/a2/Cloudflare_logo.svg/1200px-Cloudflare_logo.svg.png;" parent="1" vertex="1">
          <mxGeometry x="250.00000000000003" y="451" width="380.49" height="130" as="geometry" />
        </mxCell>
        <mxCell id="8XWnLqeAtCPpHr6PN-5Z-53" value="" style="shape=image;verticalLabelPosition=bottom;labelBackgroundColor=default;verticalAlign=top;aspect=fixed;imageAspect=0;image=https://ssilab.co.jp/wp-content/uploads/2023/05/Ubuntu.png;" parent="1" vertex="1">
          <mxGeometry x="-60" y="855" width="193.63" height="105" as="geometry" />
        </mxCell>
        <mxCell id="8XWnLqeAtCPpHr6PN-5Z-58" style="edgeStyle=orthogonalEdgeStyle;rounded=0;orthogonalLoop=1;jettySize=auto;html=1;entryX=0.622;entryY=0.022;entryDx=0;entryDy=0;entryPerimeter=0;flowAnimation=1;" parent="1" source="8XWnLqeAtCPpHr6PN-5Z-12" target="8XWnLqeAtCPpHr6PN-5Z-2" edge="1">
          <mxGeometry relative="1" as="geometry" />
        </mxCell>
        <mxCell id="8XWnLqeAtCPpHr6PN-5Z-65" style="edgeStyle=orthogonalEdgeStyle;rounded=0;orthogonalLoop=1;jettySize=auto;html=1;entryX=0.5;entryY=0;entryDx=0;entryDy=0;flowAnimation=1;" parent="1" source="8XWnLqeAtCPpHr6PN-5Z-63" target="8XWnLqeAtCPpHr6PN-5Z-62" edge="1">
          <mxGeometry relative="1" as="geometry" />
        </mxCell>
        <mxCell id="8XWnLqeAtCPpHr6PN-5Z-74" style="edgeStyle=orthogonalEdgeStyle;rounded=0;orthogonalLoop=1;jettySize=auto;html=1;entryX=0.526;entryY=-0.008;entryDx=0;entryDy=0;entryPerimeter=0;flowAnimation=1;" parent="1" source="8XWnLqeAtCPpHr6PN-5Z-56" target="8XWnLqeAtCPpHr6PN-5Z-34" edge="1">
          <mxGeometry relative="1" as="geometry" />
        </mxCell>
        <mxCell id="8XWnLqeAtCPpHr6PN-5Z-76" value="前端请求到域名 ： bewin.com&lt;br style=&quot;font-size: 18px;&quot;&gt;1.域名解析&lt;div style=&quot;font-size: 18px;&quot;&gt;2.ddos 防护&lt;/div&gt;&lt;div style=&quot;font-size: 18px;&quot;&gt;3.dns加速&lt;/div&gt;&lt;div style=&quot;font-size: 18px;&quot;&gt;4.流量监控&lt;/div&gt;" style="edgeLabel;html=1;align=left;verticalAlign=middle;resizable=0;points=[];fontStyle=1;fontSize=18;labelBackgroundColor=none;" parent="8XWnLqeAtCPpHr6PN-5Z-74" vertex="1" connectable="0">
          <mxGeometry x="-0.0709" y="1" relative="1" as="geometry">
            <mxPoint x="19" y="1" as="offset" />
          </mxGeometry>
        </mxCell>
        <mxCell id="8XWnLqeAtCPpHr6PN-5Z-77" value="" style="shape=image;verticalLabelPosition=bottom;labelBackgroundColor=default;verticalAlign=top;aspect=fixed;imageAspect=0;image=https://miro.medium.com/v2/resize:fit:640/1*l3n0nRfuq2UrNy7oxYsLtA.png;" parent="1" vertex="1">
          <mxGeometry x="730" y="1720" width="271.32" height="170" as="geometry" />
        </mxCell>
        <mxCell id="8XWnLqeAtCPpHr6PN-5Z-78" value="" style="shape=image;verticalLabelPosition=bottom;labelBackgroundColor=default;verticalAlign=top;aspect=fixed;imageAspect=0;image=https://saviynt.com/hubfs/aws.png;" parent="1" vertex="1">
          <mxGeometry x="308.89" y="1720" width="302.22" height="170" as="geometry" />
        </mxCell>
        <mxCell id="8XWnLqeAtCPpHr6PN-5Z-84" value="1. 反向代理: 保护真实服务器ip&lt;div&gt;2. 负载均衡: 分散流量请求，减轻压力&lt;/div&gt;" style="edgeLabel;html=1;align=left;verticalAlign=middle;resizable=0;points=[];fontStyle=1;fontSize=18;labelBackgroundColor=none;" parent="1" vertex="1" connectable="0">
          <mxGeometry x="640" y="469.9966666666665" as="geometry" />
        </mxCell>
        <mxCell id="8XWnLqeAtCPpHr6PN-5Z-87" value="访问缓存，保护数据库服务器" style="edgeLabel;html=1;align=left;verticalAlign=middle;resizable=0;points=[];fontStyle=1;fontSize=18;labelBackgroundColor=none;" parent="1" vertex="1" connectable="0">
          <mxGeometry x="717.73" y="629.9966666666664" as="geometry" />
        </mxCell>
        <mxCell id="8XWnLqeAtCPpHr6PN-5Z-88" value="" style="shape=image;verticalLabelPosition=bottom;labelBackgroundColor=default;verticalAlign=top;aspect=fixed;imageAspect=0;image=https://miro.medium.com/v2/resize:fit:1400/1*BmvPfSSm2G8C-khX1rhCGg.png;" parent="1" vertex="1">
          <mxGeometry x="-170" y="444" width="276.48" height="144" as="geometry" />
        </mxCell>
        <mxCell id="8XWnLqeAtCPpHr6PN-5Z-90" value="软件内搜索" style="edgeLabel;html=1;align=left;verticalAlign=middle;resizable=0;points=[];fontStyle=1;fontSize=18;labelBackgroundColor=none;" parent="1" vertex="1" connectable="0">
          <mxGeometry x="140.00000000000003" y="479.9966666666665" as="geometry">
            <mxPoint x="-6" y="-4" as="offset" />
          </mxGeometry>
        </mxCell>
        <mxCell id="8XWnLqeAtCPpHr6PN-5Z-100" value="" style="shape=image;verticalLabelPosition=bottom;labelBackgroundColor=default;verticalAlign=top;aspect=fixed;imageAspect=0;image=data:image/png,iVBORw0KGgoAAAANSUhEUgAAATYAAACjCAMAAAA3vsLfAAAAe1BMVEX///8AAACTk5Ofn58qKirk5OTQ0NBaWlq8vLwwMDD39/f6+vqOjo7y8vLr6+uvr69xcXHe3t57e3seHh5GRkY2NjaamppTU1PHx8fX19e/v7+pqaloaGhycnKIiIjNzc09PT0NDQ1LS0sWFhY8PDxiYmIsLCyAgIAkJCQNg38iAAAJZklEQVR4nO1daXeqMBCV+nABEbV1q0tL29f2///Cp6gzk2SCJKXAO8z90tOwxctkMltCrycQCAQCgUAgEAgEAoFAIBAIBAKBgCCJwslDnCRN9+N/wny1Dq44jKZN9+Y/wfZvoODYdIf+CzwEOr43Tfep/XgyWDuh33Sv2o41x1oQrJruV7thYU3krRBvNtaCYNB039qLFztrQRY13bvW4lXhaTaTYVoGVNiOZwchSSlvTXevrSC2x+jWthdxu4NpBgzNsRVH6qS5rrUZcyBIsdJQBpvqWLux4PnZQLM49Rz2rLD1kndD4QkIQIs9qO1Loa0IQpsXgDbNbxfaCgG67U1pHsiUUIgR8KO47ZYJVnDFFvj5iLEVPa43+6WdxgcwNAbekEtxriwgWYTxc94S97GJG6PJaHLGcdPlxGBMOAqeZv3D7J00/DXOfyZ+/rDf3XjcJCjAVjt5M1aPP3Z3ELNpK1azRX/MU56a6XTzGJhc8JREj+xZXU042Hj7jpXTYp61IHhpqN9NY8uyobHGjdArujoxcLx9aWRYs6kd1m+9ncbEqz7yeIns+DDt9cIdUV1vZt3MkLD0vjgcFpS2ZQMdbgvi3pW4Y2wepMK2u5z+LOJ2wZU2LltFfDDMcKE/+1pXF9uIAtqQtS3b2uWwnJ02jCQpB1csmV2DnTaIZmZq2IMZuTXhJU3TXTsMxhK0aXMmVPzuLbdcPVxRZT/Dm6bNVcPL5PKESVjlMxzgThuM0lnxLasMrocYupoqfWjKOf4F2sAjq6yTmP240gZR1YZom14fvzYP2WiDH2AbpJXTNg0IGqct2nzR/uh6wpLgwsIb25RQOW2fLaItMdclLJW8cgTtB9qM7r3NAKmatmelk83S1g847KnEYTNxV7Hu0uqUVk3bATtyPH4lSu/rpS1eBhakt1OmNC0DkXJSrWqtHqyaNnxRYLM1Q1tsDz8GX/kZU7UMOlhvT11ONrRW2urK/xptqEwboW1ulbUbb6nZ/L3fK//b45QV0wY6lmiFRmjLilg78ZbaMggU9g5XTBvM6GNsa4C26FNnwAcFddFutMXTVb+/mjLxvitgIvWmLe5tz8/o2Z9RAgedAR+YqXsER1sIUKy97QLsmfUqVM7MDY3o9Bdi95/Tc3v+21na8BnUHkg2GJTep/nV09tpDqUZWNl8xXCxGOttV2Sh5ciw6AkMbWgDUjFNtRTP+jxT3v7J655Uky2H1W4jIXu0P3XrdHy2FCAY4bCUQJ1Evzbnrsaxno7JcXpEvOAOFJdymbRFaMygmM6H5o1TpG3oSBv5BWhmvphaehhaq3ALQL3i4J0Erwz7d29054Y7i04N2hK8FCvD+AR36ksbSXyAZcS/8yCE5vK0UdtjooxtdfSuQT8kWqHN/l54UqcNK/eDT2DNtsgQTB832ghrKGu2uQ+sz9K0zcnV+shWeKMHkgn4/MP+/cCgThve9Psuawgn2ghrEJeJPsyLNZSmjYjtuxFeprxp+ZUo3q5Wo3JTuEbbEVmDJ9pLd7xoI8KAETDe6/ajjVj6TACDLGp+LntHEyptyBrqNa1QbLxcLt8DDTltYToawQ2+n0ejURoplFxow6vIjKPe7uP0DG/aiHLOmMNE3HY+hF2g0IaK8Q+yRq2C5SL/6clG25UEbJz75i5OycScpO/haZOfN0g1e8qDNnY6RHF7LXlHBpQ2lLU/qBOIFRfMkMyBIoNA213namheo3rVJO41UuwvD9rY+RDtzx9UFBHaiG4iyhJTrVrtJt35oDRt2Gca2ccbPSnaKKGWXFnaSFSePY5GWiW0hfg4GjhGdnRVQCzgsrQha9ThI5pNC3DRmr2ytOGY4WnDGa4C2jLykihrSKYZIMbfVI62OapjJSOE06ixgIzYPu2UNtTKKT2Os4SZYUeVVI42kkRSDEqYNZmsJBph7dRtljcOP/WLudiRNsvvwYg+s1oRSWjnTHpDqh4HT5oLq4O8O9KmSgEqG66D8CvbabddsVAP4xocrtIL5l432rQ3A7RxAu0RAanVS+CfBLTxQTs/2jSdArSxK3bg6t/3SXs7d5/0hkcl0gK08cUQfrRpvAFtrCoCx7+VEZAMXBklhA60MXUnPVfacCZVhkextMGQ84u3qZtRqvG22c/jbY8YEqVvCHUb9wbgmpLmLuZzabeANk2vXgDZFM/o7viXo7toz9AxD1FCLgPiOJNu0RKlS7GLZ1LwfR0KF+vMJZDcIuENBhYnCnBBWecKfQ6iK9HzZCQamXagrdbMFb51QhF68qa47cxH3HPlUb0RRQa6iMlMYsbTpUy21jwpOks4slE+THH7dqeNrMVGnYP0G24CkRsX2urNymOxDVhvEXKjL1giBTvl42046LCmHVX4p/aIJMNnuBVlGwFoFZXWgBC/BE4gilSdlWlssTxtZDZD2wDJIZf1tIJWN9pGhfJWccURjgkgghqPD2QyV9SHA23EiO8bVwXBkph0g8yftnrr25BtcBxp2uC9fxm94Ux9mS60RThzwcxJ7za7ErfRCgFcV07UWk2Jl4AqU5+ZcR1xoY3KlnFZAdwXnNRYuzs3Lylc4HuBE22kW2C9aeOFg8c6nRorxdFQ+7g1KaX9FdBGugU/omAra3/a6lyXgCoRwnh8Vcvpl3jSxuVcLNUMmY9zpaKeVTBky1oQUZ63tWMEBN8olz3id4lJPCqOdNSz5gqtkEdwTjmdPXMNHJGBwG0czGlwr/o2HTWt8EOTDN2yKUk/Xh50thNu/4D8Qz++mT4Q2ohhjSHyUCuRCGYJMYn8N2auaT1pMrk10iBfNCIW7uyiy4/X80ALbm+XkngVu550Ds+gwck5nfqOuXGd3q72/4hL46uX52mOX11Bvskfsatwcb+slfeC7MzgBdkHxAOy64wHlD2ODrLHUTnIjloe+OH+ba9N9Ll5/HC3wI4OUdmb0geyE6oXyu+7mzABnq7uSym7PPtA3VN8P5jd21OcCGeH9xSXHey9IN9L8IF8ncML8i0YL8iXh7wg37nygnxVzQtCmxfki5FekO+TekG+husFUshChqN8e/ke5EvfXpDvyvuBVi4H2Uwt1xRhs6FoY6ass/G0+ygoa+1omqAcrBlQGaKFsPB2Z6mogE1eiazdhbkuIfMvyuwQtlo58LHL+RUXzFeg4g4jceAdkETh5CFORNAEAoFAIBAIBAKBQCAQCAQCgUAg6Bz+ARyRe/cImXjfAAAAAElFTkSuQmCC;" parent="1" vertex="1">
          <mxGeometry x="90" y="630" width="176.87" height="93" as="geometry" />
        </mxCell>
        <mxCell id="8XWnLqeAtCPpHr6PN-5Z-103" value="消息队列&lt;div&gt;给用户发送email&lt;/div&gt;" style="edgeLabel;html=1;align=left;verticalAlign=middle;resizable=0;points=[];fontStyle=1;fontSize=18;labelBackgroundColor=none;" parent="1" vertex="1" connectable="0">
          <mxGeometry x="350" y="639.9966666666664" as="geometry" />
        </mxCell>
        <mxCell id="8XWnLqeAtCPpHr6PN-5Z-104" value="&lt;font color=&quot;#ff1212&quot;&gt;&lt;span style=&quot;font-size: 17px;&quot;&gt;&lt;b&gt;后端 Backend Server&lt;/b&gt;&lt;/span&gt;&lt;/font&gt;" style="text;html=1;align=center;verticalAlign=middle;resizable=0;points=[];autosize=1;strokeColor=none;fillColor=none;" parent="1" vertex="1">
          <mxGeometry x="-148.01999999999998" y="810" width="190" height="30" as="geometry" />
        </mxCell>
        <mxCell id="8XWnLqeAtCPpHr6PN-5Z-105" value="&lt;font color=&quot;#ff1212&quot;&gt;&lt;span style=&quot;font-size: 17px;&quot;&gt;&lt;b&gt;部署 Deploy&lt;/b&gt;&lt;/span&gt;&lt;/font&gt;" style="text;html=1;align=center;verticalAlign=middle;resizable=0;points=[];autosize=1;strokeColor=none;fillColor=none;" parent="1" vertex="1">
          <mxGeometry x="230.00000000000003" y="1670" width="120" height="30" as="geometry" />
        </mxCell>
        <mxCell id="8XWnLqeAtCPpHr6PN-5Z-106" style="edgeStyle=orthogonalEdgeStyle;rounded=0;orthogonalLoop=1;jettySize=auto;html=1;entryX=0.843;entryY=0.031;entryDx=0;entryDy=0;entryPerimeter=0;flowAnimation=1;" parent="1" source="8XWnLqeAtCPpHr6PN-5Z-9" target="8XWnLqeAtCPpHr6PN-5Z-25" edge="1">
          <mxGeometry relative="1" as="geometry">
            <Array as="points">
              <mxPoint x="801" y="730" />
              <mxPoint x="421" y="730" />
            </Array>
          </mxGeometry>
        </mxCell>
        <mxCell id="8XWnLqeAtCPpHr6PN-5Z-107" value="&lt;font color=&quot;#ff1212&quot;&gt;&lt;span style=&quot;font-size: 17px;&quot;&gt;&lt;b&gt;Middleware 中间件&lt;/b&gt;&lt;/span&gt;&lt;/font&gt;" style="text;html=1;align=center;verticalAlign=middle;resizable=0;points=[];autosize=1;strokeColor=none;fillColor=none;" parent="1" vertex="1">
          <mxGeometry x="-159.99999999999997" y="360" width="170" height="30" as="geometry" />
        </mxCell>
        <mxCell id="8XWnLqeAtCPpHr6PN-5Z-108" value="Backend Framework: MVC model(view, controller, model)" style="edgeLabel;html=1;align=left;verticalAlign=middle;resizable=0;points=[];fontStyle=1;fontSize=18;labelBackgroundColor=none;" parent="1" vertex="1" connectable="0">
          <mxGeometry x="110.00000000000003" y="989.9966666666664" as="geometry" />
        </mxCell>
        <mxCell id="8XWnLqeAtCPpHr6PN-5Z-109" value="&lt;font color=&quot;#ff1212&quot;&gt;&lt;span style=&quot;font-size: 17px;&quot;&gt;&lt;b&gt;数据库database&lt;/b&gt;&lt;/span&gt;&lt;/font&gt;" style="text;html=1;align=center;verticalAlign=middle;resizable=0;points=[];autosize=1;strokeColor=none;fillColor=none;" parent="1" vertex="1">
          <mxGeometry x="679" y="822.5" width="150" height="30" as="geometry" />
        </mxCell>
        <mxCell id="8XWnLqeAtCPpHr6PN-5Z-110" style="edgeStyle=orthogonalEdgeStyle;rounded=0;orthogonalLoop=1;jettySize=auto;html=1;entryX=0.009;entryY=0.468;entryDx=0;entryDy=0;entryPerimeter=0;flowAnimation=1;" parent="1" source="8XWnLqeAtCPpHr6PN-5Z-25" target="8XWnLqeAtCPpHr6PN-5Z-98" edge="1">
          <mxGeometry relative="1" as="geometry" />
        </mxCell>
        <mxCell id="8XWnLqeAtCPpHr6PN-5Z-111" value="会有不同功能的server实例, 运行在不同的服务器ip上或者不同的端口&lt;div&gt;1. 专门提供视频播放的server&lt;/div&gt;&lt;div&gt;2. 专门提供直播的server&lt;/div&gt;&lt;div&gt;3. 专门管理用户数据的server&lt;/div&gt;&lt;div&gt;4. 专门提供stock数据查询的server (读)&lt;/div&gt;&lt;div&gt;5. 专门获取爬虫得到股票数据的server(写)&lt;/div&gt;&lt;div&gt;6. 专门处理支付的serve(数据安全加密, sql事务)&lt;/div&gt;&lt;div&gt;7. 专门处理用户消息提醒邮件,短信的server&lt;/div&gt;" style="edgeLabel;html=1;align=left;verticalAlign=middle;resizable=0;points=[];fontStyle=1;fontSize=18;labelBackgroundColor=none;" parent="1" vertex="1" connectable="0">
          <mxGeometry x="-730.0011764705882" y="907.5035294117645" as="geometry" />
        </mxCell>
        <mxCell id="8XWnLqeAtCPpHr6PN-5Z-114" value="" style="group" parent="1" vertex="1" connectable="0">
          <mxGeometry x="-470" y="1010" width="240" height="750" as="geometry" />
        </mxCell>
        <mxCell id="8XWnLqeAtCPpHr6PN-5Z-66" value="" style="rounded=1;whiteSpace=wrap;html=1;shadow=1;strokeColor=#6c8ebf;strokeWidth=1;align=center;verticalAlign=top;fontFamily=Helvetica;fontSize=12;fontColor=default;fillColor=#dae8fc;gradientColor=#FFF5F5;gradientDirection=north;" parent="8XWnLqeAtCPpHr6PN-5Z-114" vertex="1">
          <mxGeometry width="240" height="750.0000000000001" as="geometry" />
        </mxCell>
        <mxCell id="8XWnLqeAtCPpHr6PN-5Z-35" value="" style="shape=image;verticalLabelPosition=bottom;labelBackgroundColor=default;verticalAlign=top;aspect=fixed;imageAspect=0;image=https://mocongtysingapore.com/wp-content/uploads/2023/02/uu-diem-stripe-payment.jpg;" parent="8XWnLqeAtCPpHr6PN-5Z-114" vertex="1">
          <mxGeometry x="33.98000000000002" y="441.7808219178083" width="165.12" height="110" as="geometry" />
        </mxCell>
        <mxCell id="8XWnLqeAtCPpHr6PN-5Z-36" value="" style="shape=image;verticalLabelPosition=bottom;labelBackgroundColor=default;verticalAlign=top;aspect=fixed;imageAspect=0;image=https://developer.apple.com/news/images/og/apple-pay-og.jpg;" parent="8XWnLqeAtCPpHr6PN-5Z-114" vertex="1">
          <mxGeometry x="26.430000000000064" y="71.1472602739726" width="187.14" height="98.25" as="geometry" />
        </mxCell>
        <mxCell id="8XWnLqeAtCPpHr6PN-5Z-40" value="" style="shape=image;verticalLabelPosition=bottom;labelBackgroundColor=default;verticalAlign=top;aspect=fixed;imageAspect=0;image=data:image/png,iVBORw0KGgoAAAANSUhEUgAAAPoAAADHCAYAAAAwCE5OAAAAAXNSR0IArs4c6QAAAARnQU1BAACxjwv8YQUAAAAJcEhZcwAADsMAAA7DAcdvqGQAACg/SURBVHhe7Z0JYBNVGsf/SZr0vuldCuU+BLnkPgVBEbyQ9UBU8EQFFRXXVVdd1wNdEfHE9UIBUVQQBAUFEeSQcsl99KBA7/tumibZ902na5smpWmTJjDfz52l85JMZibv/77vfe97b1RmARiGuahRy/8yDHMRw0JnGAXAQmcYBcBCZxgFwEJnGAXAQmcYBcBCZxgFwEJnGAXAQmcYBcBCZxgFwEJnGAXAQmcYBcBCZxgFwEJnGAXAQmcYBcBCZxgFwEJnGAXAQmcYBcBCZxgFwEJnGAXAQmcYBcBCZxgFwEJnGAXAQmcYBcBCZxgFwEJnGAXAQmcYBcBCZxgFwEJnGAXAQmcYBcBCZxgFwEJnGAXAQmcYBcBCZxgFwEJnGAXAQmcYBcBCZxgFwEJnGAXAQmcYBcBCZxgFwEJnGAXAQmcYBcBCZxgFwEJnGAXAQmcYBcBCZxgFwEJnGAXAQmcYBcBCZxgFwEJnGAXAQmcYBcBCZxgFwEJnGAXAQmcYBcBCZxgFwEJnGAXAQmcYBcBCZxgFwEJnGAXAQmcYBcBCZxgFwEJnGAXAQmcYBcBCZxgFwEJnGAWgMgvkvy9ITMVFMObmQr8vAabcHGkzV1TAbDDArNeLpkwNlVYLlY8P1IFBUIeHQxvfER7tO0ATFCTKfeUjMczFywUpdGNOtiRsw/HjqNqxBcaffwBIrz5+UHkFAh5acWXCWVFrRKG4PJNJfIiEXwFU5AL54uUqQHP77fC+ajI8+w+ER2xbUaiSjs8wFxtuL3Rjfh4MRw6jeu92VB0T/6alw3zkFMxClKpwXyFsP6FY6oHYL1KzQQ9zXh5UFWaoOsXCo2M8PKKjoRs+EdrefaAJbSO/k2EubNxW6NXnzqJ0+eeoXPAMEBYBdWh0jaV25umSRTcahfhFY1KUAd3MpxEw8154tI2T38AwFybuJ3R9JUpWrkDZnTOALiFQR3WUX2h9zLnnYDqYAb/PP4H/zdMArU5+xX1ITk7BH3v2wNvLW+w55qdUiy6Pl5cnAgMCEBAQiLaxMfDz41jGhYxbCd2YmYmczlFAkKhsXS6TS12MsPKmY7uh8tMg6Kvd8OzTT37BPfht63bc8eBc9OnWyUEyN0tOk9FoQqVej/LKSnh5eqJDu7aYct1k9Lm0F6KjxG/EXFC4jdArE3ah9I0XYUxLg0pULKe66PYixG6urIB5zyH4LV0BvxumStF8d2DHzj/wzL9eRru2seKWOfaeqeTgpMlkgsFQjeLSUnjqdBh8WT/87cYb0C6urfQ64/64RW01lxSheN4DMB45AJWoSG4lckKcj8rTC+phA1Ay9WZUbt8qv+B6SNzOulvSsenaheB1Oi3ahATDz9cXO3fvwcz75mDF19+gQlh8xv1xudCrkxKRPW6wNPSlCo+RS90VFTRjB6FwzjSYigrkMmVBRj7A3x9xbaOxZNlXmD7zfpw9lya/yrgrLhW6/uB+5N46mfQDlbe/XOrumKGOiYPKDQNzrQlZ+siIcHh66jD97lnIyMyUX2HcEZcJ3ZB4CgXX94PKQwOVX4Bc6uZQYC5lN/wefu6Cyagjt7u52/kgsWs9PBAXI6z7FytwLi1dfoVxN1wSjKs+dwa53dpB1be31PcVNUZ+xY0RFd90ZDd0dzyKkFf+I/bdIxi3fccuPPPiK2hvJRhH+8mpZ2GmzMAmQkcgkXt7esLf31fqk2vU6vPGAfILizB8yCDMmztHLmHciVYXOqWv5t01Deacc8IqOsFdp8sxGaW0V7NZVHDJOglRajTNFyeJPFGIfNoTCHnpNbnQPbAldPpbq9XigXtnissW123Hz2wymVFaVoozZ85ix64EnEo5jdCgIPj4eNf7jrpQeXpWLr7+4r8IFu9l3ItWF3reY3Ng+GkZ1FGd7Kp8NhEiNFfpRcORIsxKMVRhYVBFdoTKPxAQ3oLZUAWUl8GUfQZIPw34q6EK6VLjejdF+CTy1H3QTpmN0FfekPbdCVtCpyExSnr54O2FUKubf84VFRU4lZiEld+uxp79BxEeFipugfXj0RBcj26d8eTjj8JDuPSM+9CqQi9Z+hlK586ApvfAloucKpsQsSnxgBB1PHzmPQld/4HQBARC5e0lDdOpNB4wG4V1r66GSVRYU3k5qg7shf7H72H44luoekaIRqGd7XMhkR/fDe0tcxD6qhC5OJ670ZjQacz7vUULhGVv+XnT8Tb8vAmvLngH7WKjRONhvZE8mXQab7z8PIYMFr8x4zY005e1n6rjR1E83QEilwSuh2nTbqi8vOG/eDXCEg7Af+Z98Ly0LzziO0ATGQ11SBuoaFpqSCjU4RHwaNceuu494HfLdIR+/g3C83Khm3IHjOI4qDY0tNQk8mPCXZ8xD6Gvv+WWIm9NSNhXTbgCixe9jszs3HqNSl06tIvFkmVfokw0qoz70CpC1+/fi4JbpkI7qk/zRS4+Z0pJgzoyBD4zHkLoyeMIW78NvpOuhdrf/qg9NQDB/3wZbRJPwfuWO8V+MEzpNePB5oJ0wFeLgI9/QMiL86UypoZuXbtg2acfSDnwFRUNk2XIZc/MzJaSaRj3wemuuzE7C7mTRkDl6y/URfPD7URYVnNZCcy7jiF49y54XjZIfsHxlG/8EQUTJsL7qccQ8u/XyIzJr7gvreW6W0IinzN3Hioq9ULc9X9XOo9z6Zn4eunHCA0JkUsZV+L0mlzy6WLRjy6riXrbC4k8LwOqmHiEZWY4VeSEz/irECa8j5B/Cyt+AYjclXh7e2HSxAnILygQP1P9bg+5+VSWkpIqlzCuxrm1uSoNPj2fg+edITBlauXCplJjydVx3RD63ifQRETK5c5FR7PTmuN5KJBBAwcIQasb9Ndp38/HG+fSODXWXXCq0I3Ja6ESXmPgzYfhe3cWjJs9hU8pXrA+OlMfowEm4a6HLvkKmvAIuZBxJ/z9/NA+LkbqJlhCQ3snTyU1aAQY1+A8oVeXwHR6FiCEbirSwmdoEoK/OwpztbAARZS80kgFMJtgStovBcrUQcFyIeNueHp6omOH9tDrq+SSv6CgXE5urtVGgGl9nCZ0U/YWmA30Fy3UWCN2j7B8BD93CB599TBl2HDlaVjrj73wW/gVtB07yYWMO6LRaODr6wsjZSI2QCU1APbYc7L+xSUlyM3Lw7HjJ7Dp19+w/qeN+Hb1Gqz8dhW+X7tOGsvfs28/srNzUFpaJn+SOR9Oi7pX73kC5tz/1KzzVov4JpXWCJXOhJIfu6NyWQjU7YQ1qNPcmMuKoek/Em3efEd0mJU9Q6wpuCrqTtB3vP/hR9iydYcQvI9cWkN1dTXahITgjddekhqExqAI/q7dCTh+4gR2/rEHuQWFqDYY/h/UU0vBPmEAhKdH10ibp84TMVERGD9uDHpd0lN4Fh3IRjQJaoAqKyuhspExaDaZpaWzznfeLYHuXUlJaaPnQDMDvby85JKW4RyhG4pg2BwkmnzasWa5zdAEV6PiQFuULIyFKsAElVeNi1e9OQFhJ49D27mrtM80jiuFXlmpx0uvvo6k06nQaev/zlVVBnTuFI/nnv67JFhbrFm7HqvX/YjTqWcRGhIEH29vSdyErVTbWrHTNRYUFkkNQ7dOHXDbLX/DqBHDpBz/xkhLS0fsgCswpk8XURPrV3+V+C89Jw933ToFT8x9WC51PN98txoP/uPf6BnftuE5iOuOie+AZx65H107d5ZLW4ZTXHezvhCQvDlbN1wFY74WXj3OInj+UaijjTBXiL67vhxez8xjkV8g6PV6nEpKkaaqWlIlLHJsTLRNkWdmZmHBwrfx0ZKlknVt1zYGvj4+9cRdK2jLjaD3kcUNaxMqiZw8iNcXvoP7Zz+KA38ekt5ji+joKDw6/RqEh4UgLiaq3tY2JhIDL+2BLdt2oEA0IM6AGsGfN2/B2EF9pe+zPIeYyHBcOWIQOrRvL3+i5ThH6KXHSMuNI143lWqh8StB8CN7oA42wpReBL+pt8hvYNyd1DNnkFdQZNXylpeXo0sn6zGWI0eO4d6HHsW2nbsREhwkeQO1AraX2s9R8C86MkLqBjzx9PNY8sUyqdwadL6Tr54oeQO13YO6GzUgdNi9Bw7In3AsJ06exOkz5yTX3PK7aSsWLn3P7t3P65nYg1OEjsrTstt+HkT9MOvFTa30gP+dR6EbGQpd7z7yi4y7s37DzwgM8JP3/oIqa2l5BSIiGg6Lrv9pA26+6wEEBwUiKNCxC46Q6HWiu0J996VffYcXX5kv3HvrDciAfn0QGR4muf+W0HGoG7F0+Uq5xLGsXrtOunZbjVu10SiNZjgSxwu9ukgI92TTj0zGwCxa0ZBKBD4YW1PmIPJLzDhx1ojEdNdsJ88ZkVV4cQ4vHT5yFL9t2wk/iyAcQdNVI8LaoFvX+v3LL79aifkL3sGA3j2kxuB8Vpxep2NRmm25aDjIWpPbe77PEbHRkdi1ez9env+6cOsbjgr4+/vjxusmIys7VzoXS8hDOJWUjD8PHpZLHENuXj5Wr/8Z3jaCbGTNJ46/XDo/R+L4YFz5GVSffAHm3CVix452xKSDOu5haLq9JBe0nPW7q3Djcj26BpPrIBe2InkGYGpHDebf4Q2LdHCH4Ypg3I5df2DhOx/AS+cJtfQ4rPrk5hXg8UcexOiRw6X9rOxsvPHW+zguXNYQYcltYRSWrKi4FNFR4YiPj0dYaAjCwkKlxSi1Hlrpmmj4LTsnF8eOn5QWpaQ8+8aCfaVlZYgT9+bpeY8hVByvLhQbmPv3Z1FYUCB5ApZQo0Lf//ILz0rDiC3FYDDg7fcWY/uuBPhbeSAGRdr1hiosWjAf4W0c+zgwh1t0U7VeWHWxnbeTboFWWHMvx0QYa6EFF7w9VQjRik3X+lt7bxWSC0wwXiRGnSr+b9t+x7IVK6FWqa2KnKxu547t0ffS3nIJhJAKkZicIg2T2bIrJEhawWbMqBGYesO1mHbTjfjblOsw4YpxGDViOIYOGYThw4bginGX48brr8XNU6/HlePHSctQk7W3BS2FlZiUgq+/XS2X/AUNXV036SrRuJTIJfWhYyclp+LQ4SNyScvIyMzCjj/2WPWCCIoZjB87WhqWdDQOFzr0uaLpyhF/2Cl0zziofLvIO46DzsLOM3EYHuKLDxQJS2Wjn+h0xPdb8UrthiLo+/88iPseegSL3vtQEhaluFqjUl+JZ/7+OALr9L+7du2C7778DA/df3fNkFhR/QAeJb7cdtNULH5nIR6dfT/GjhktRez9/PwaDNtRhJ/GuPv2uRS3T7sJH777FiaMGyNZeVvXGhoSLPrs30iJNpaMFw1Hr57dpQbKGkFBAfjo089RVtby+fU0dZfO0VpXgbwZg7g3d06/rVEPpbk4/ohG0TrSZicqjSdUHtYrz4UK/Z6nDWZa4MYlUIWiwA6JiyqSPRu5malnzmLjL5vw8qv/wWNPPSdZdHKjbVnlvPxCPPLQ/cJFDpVL6jPu8tF449V/4/KRw5Aijk3nRlase7euuO7aSfK77INEcdeM2zH9lqk4l55lVUR0vm1jorBp8xbpOy256cbrUVhcLP1ellDDci4jS3QVjsslzYPG7nft3gsaQrQGeRUzp98seaHOwOF9dFP6DzAmvSAs+59ySdNQBUyCpuvzUAX+5fK1lJ/2GHDbSj36BAqXUS5rbTYXmpHxlA8igx3fphK2+ugE7ZM3YRQtjX3XT6mo5dIqMZ46D8ki0vPXGqsq9N6I8DC88+brcknjJOzdh4Vvv4+AoGA8POsudOva8tyJN956W8qso8k21s6VVsZZ/ulihIjrqQv11f/xz39JgTlr8Yyqqiqpf//2guYvDErW/MuVq6TRBkvoXMtE1+Xdt96Q7qEzcELtE+arJsndPlSamu0ixGAtFbwVIOtGBoIqr86uTYuw0CDEx8UgJipSCuo1JnL6nhAhWOo7N5XL+vfDf99fhCcenuUQkRP33TUTaZk5VofM6ByNxmocPdbQMlNf/eqrJiArJ8eqR0CBuu2796FQdDmay+fLVyLAylAkQdZ8/NgxThM54Xihq0SfStWMHHWzUANtFyGu6qIT5No2Z6ut8I0JnKD3ZWRmS8GxIYPsWxCS0l07xMfLey2H+u53Cfe3xOpkF7M0pJWUkiLv12fgZf0RFBho83rjoiNw9uw5ec8+0jMyUVZRAQ8b6w6Wiv7/hCvGynvOwSlCV5HY7YW8AFMzPIELAK1zvHaXQgInURw+fgqTJ16BUSOHS5lermaMOA/KwbeE9EvdD5r1Zg1y9/92wzXILyj8fyNXF2oE/jzUvOh7UnIyoiPCrTYi1C0YOWwQYmKi5RLn4Pgq6BFUs9lLtV5oveEPdMEj6oxO27DiXOhkCsGUlVfgrfkv4sH775W8AHcgRPSloyLCYLTivnuIbglF5ykJxxrjhVVNPptuVZAk/pOJSfKefew9cNhqI0jHTD5zDtdcPVFK0HEmDv91VB6BgMb+1EazsVh0Zi+uJ5RSdfHXAN6OS1l2KTTMRhaPtuk3TcEni9+WxrcdBT2CubCwUHKR9+0/gJ83/Yo169bju1Vr8O3q77Hmh/XY9OsW7NlbMx+dkmcsoah2aGgwjFay4Wgcv6K8XPThrXcRyWrfOmWy1XF5En+O+E4aebCX7KxMq14CTcSJbxuLS3v3kkuch+Mz40pTUX3yeZjzl4odeyxZENTtHoem8zx5v+W4OupOffN8YTx2/d1HStxxBo1F3QlrganzQcehI5mMRqliU/9SL1zMju3bYdyYkRg9aqTDAkd0fplZWdj2+3bsP3AIp5JPo7S0nGqmJEwSSK1IpPMSJ2YS/0fJLJRmO2bkMHTr1hW9evaQgmb0nmeff1H0xVOlFXDqYjSaRD9dh7cWvGYzBfXYiROYO+8Zq9dHST2vvPAsOndu+oIo1Bg9+vhTVj0MSoedM+seyZNwNk5w3YX58iA3xc7AmjEXqDwj7zgOPVUM8S+JriWb+J/d0Oc6+Iqb7KSx0fNBlZ7OgVzVKjs2EhMFymhixdVXXoFn5s3Ff999E/997y3cNHWKw0Sel1+Af4pGavrdD2DZ16twNj1DyhqLigwT7ne49Fhm+q5wIWja6O9I4ZaTa06ptDRNduWqtXj4iadxzdTb8NHHS6RVaUng1n4vai9I7NIF2qB7167o16eX5F1YotPqsOKb7+S9pnH8+EkUFAtv1QJq4Ly9PKUFNlsDx1t0UxmMiS/AlPq6OHrTfVa1cKdK/cYjcOiPcknL+THBgIlfVWJ4EAWO5MJmoBE1RCeaRKM4hmxcmkS5sOZDY9WYf6c3PJzUhW0s152y1xYJ69WcaaC1ltSay9lSKCFn3Y8b8NnSL6UpoXUXm2gO9Fm63uLSUnGf1fD39xP7Da+X3kNDjTTW7y2+0xZ79u7DvGdfRLvY6Hr3jf4+cy4dK5d9ijYWefO2mPePf0pRd8s+OCUKXTvpKsy84za5xLk4XugCU+pHMB6/RyikaULXCOv/Z1Uk3q3ohw+nrBFuhmMqV7kw56WiYW6pQaXfaOM+A574oQqdA5reDcioMOOJ4VrMmOC8jL9GJ7V46vD+ogVOD/TYQ4kQ49vvfoCft2xD22jbz3BrLrX3wFrD0VShUx/9iaeeEQ1HmfTI6Lrk5Objoftn4qoJ4+US29DTaO+bPdeqB5Qj3PYPFv0HbWMdO2PTFk6xM6qAy5rguVMfzIRCkz9eKu+BO4qHYm2FCYv32V4wwF58RL84XPTP2whxtmTz8lBh05FqRIm60VSRUz1LKjOjZ7wLk4DEyTq+GW8eNIz00Wdf4IE5j+HgkWNoHxtjU+R0zobqainbjsbEaeomNRCUE0/iq9kvkwRp2fd1hBdCk2senHUv0tKz5JK/aBMajPc+/Oy8a9ZTqu07iz9CQEDD6aYZWTm4f+btrSZywjlC9xEXoKbIu3W1k03UCJGfMkRhflkv/FcInYj28MQHJ5chozRb2ncXzuQYsfGsCT40S6WJkOdYJd4eF3FxZvvZA1nSrdu2Y+26nyQRS+m08mt1IWtMfWPKsw8NDpZWqKEMOprRRpNPxl8htrFjcPnoEaIf3RudOnaQgmrUIFCw0JF07tQRvS/pgUp9/SFfakQow27XHwn/9x6sQSMHCfv+bBD0o3vh7+sr+ubCGLYiTnHdiep9T8Gc/WpNcK4OHioDrTOB14rG4amKCPTVVNZbjKbEqMdg3074YNKr8NK4xySXBz8oR0KmGf525IOUV5kR30aD5Q/ZdhEdgSvmo9vLzl278fC8Z9GzWyeb4iDrnJGdg9n3zcSwoUMQHRXZJMtcXlGBc+fS8OOGn/HtmvXSemueJC4r39NU172WM2fP4p4HH5UCg5ZkCxf+4/feQlRUw1V0aNjstTcW4pDwXOpG/ul60kR//R9PPILRI0fIpa2DUyw6oYmd0CDlXas2INkUhUk5U/BUZTgGaioarDgVoPHCkvyt+GK/c5bxsZffhcv+ZbIJAXa2OWeFgZk+yH36xq6ChqQ+/XwZunaOtypyqvzkivfp3RPff/0F/nbjDYgRffemut8UyOvSuRMefmgWVi79GB3j26HCyjh4c4hr2xbDhwyUrsESrUaDdT9tkPfqk5aejo2//t5gqWYa26cFNIYNGSKXtB5OE7oqdCBU1GgKtashWlIh8q2VfTAydzROmjW4TK0XpQ1/TBrB7e8Tj3sPvYvtqQlyqWuoFt2/GV/qcYm/fVF7emuIuLM92rPbfvzYCWkhRI2VRSoImh7aqWM85j32CEKEu94SIsLD8dSTjyNKWHXq4zuCG2+4VjREDYVOfe/NW7aitLRULvmLn3/5FYH+vg0atsLiEky/dapLPCynCR0aH2jaL4GHsOrVaiOWlY7AqMJLEKauQojKaLWPVgvJ/1LvSAzfdC9Si13zoD46vw9+qBTunhk6O3+XUmHNx7bToF2Y827vhcL2nbukySa2fvC4mBhcM/FKh40MmIwmKfCnctDIDU26GdjvUumYdaElrPILi3Ho8FG5pIaiomL8vvMPK0E4s7DmGowcPlTeb12cWhPV8ZORLu7Pw3nX4LayOOGql0srvTcm8lq0Kg16erfFVWvuRUpR82YNtYR1u6owe3M1Othpzal6JZSZcWV/dttpvPxkUrKUGGINsni9e12C/v0ct/IvRecpn93yme3NheIcNLMsPaN+BJ7OPTQ4CJ8vXyGX1HDoyBFpHoCHxVNeyCsYOZxiD1FySeviXJOjCcbSyM+wuLwYA9XCOtrZynqrdTCpVZi49l7szWh8UX5H8t22Kkz+pgpjI+gxQHJhE6FxhjGBKgzpxkLPzc9HTm6eTWtNw2U9undpUmCsqeTk5KC8wrGToyhCTsFBS1ec1l3fc+AIEkVjVsuHn3wuNQCW76XVdyZffaW81/o43be8o/dkDNYGQ9/MueYBGm+oNR4YsOF+/Jq8XTQWdirPDmi+wqcb9ZjyfRXGhNifTUfxo1PFZtw7XIsAH8e4jhcy+kq9tBabrcBapXCHI62s/d4Sftz4C3x9HTvSQXn1t918o5V15cyIjQrH79t3SHunU8/g6PFE6f11Ic9m9PDBUnDPVThd6JE+IXi41x34syyxyZHUulBwzkdY9n6iz375plvwytZFyNc3f6UPW6QUn8YTXyXggTWeGNumxgW3F7L+aeXA1YObnvp7MUMV3NKy1YWGu3xsrKHWHEpKSrDy+x+lSLyjGTp0MMqtzHMPFH3x79dtkCLzCXv2IjZaNFwWl1xUUoqrJoxzaYZiq0SLplxyNe6JuBIFhuY/5pbSYgcGDsbC1O8RurQvlh9cjQJ9w8kC9pJWmoWXf38bHb4aiDW6UejfdylUlT5QmamP1XSTTm3YiRIzVkzRwt+LrTlxvsk81PAbHJjo8oXoL7ePjXTK3Hiawtq1Uwd5zwLRmK1avQa//rZNEr5lraEFJgfbufqOo2kVoWtVHnhy2Gwklh+wQzoNocfmxutC0c+vL6btfw03rLoPi3Z/gqwy66uG2ILc/0J9CVYc/h5XrJ6J+SmrMCBgJNqYr0ZF0EKUdHwZZnUJVEayNk074wrh9l/qr8LkIe6R5OMOeHp6SYE4W1adJttQ4MwR7E7Yi6+/+6HRVWpbSscO1pe9CgoKxJr1G6UloRp4rWKXlpN2Na0idKJjcBy+HrwYe8tSmuXC10KuPFn3y7xikI8KPHlsCcatvQcf7VmGjclbcTj3JPIrC1FprEK1yQi9+LeoqgTJRWexI20vvjv2I17b9i4mrb4Hd++ZDy+tJ7rqamciiWNXx6Pa+xcUd5gLo08qVIbzu5Z0OTtE3/y56z3h4/rVlNwGeoAirZ5KLrw1aEpqyulU8Xr9fHV7ob7xawsWIS42ymkiJ0iwthal8PXxtupJ0NNX2sfFyXuuo9WETkztNRmPt70OCeXpLRI7QYLXCU/hEq8waITwHzj6ISZsfhC9vp+M0BXD4b30MmiXDYXX0oEIWj4EHb8dj2Hrp2HKzuewKHUNysxV6O4dLT6rFkeqi1lY8jCh3mIUdeiAqrBfoTbQ43Os3yq6jJNFZiwY5oFB3TnSXhdaCIKsoK2HI1DUet+BP3H8xAm5xH7oia533jtbmpLr7OWsunTpjEzpQRFNr7u0wmvPnt3kPdeheV4g/90qjGo/BN114fghbYc0Vq5RtfzHoWNEevgi2rMNonURiNKGIloTIrYARHuIf7VtECO+M9pTbLpABGhEpTjvjyWaAGMPGPw2oCpol9C/Gh76WOH3C9dcRRaqZugtvdyMJ8doMesqrxZPh20ONHli89bfpadz1oWsDI3l0jLGtrLSWgNKZ9205TcpEGVNINk5eVJOOD0UMVh4AE0NWJEV3/DLJrz25juIDA+V5rWfD7ondC8mXjleamTshYJ81YYqHDx8tMFkFWtQdh6tiX/7tJulfrorafUa4KnR4bquEzCr+1SkV6WjyuSYVMW6UFYUVar/b+K/5qIyhcLkkQp96NeoaPMhzNpCIXaN5AUkC5GP7+GBm4bp4EItuTU0/jxi6GDk5ltfD5D68EVFRVj+9bdYsXIVTiUmWk0rJfT6KmRmZWPvvgP44suvpTXlggL8xW9cc/Ppt6bpqxTNdwbkMdDjovKLmhYEphV0aOktmq3napw2e60p5JTlYeoPs3GiKgexwtK6P2aYtDvge+YHbDvdHTvu02GIi931C2H2GkFPQjmVlCL1y61VOWqKaS04WketTLj6tFxU+3Zx8BSWl6aKZmbl4FxGprCoBukpq74WDyokke85eBRffvwuVn67ConJpxtYbXtnr9niu1Vr8dmyFdIz1G3Jh+aj08MwPln8rlziWlxqh8J8Q/HNpHdweUB3pFc3f+it9VBBYxiO40EvYud93i4X+YXEo3MekKZvklUmUVpCcqFyWhuufdsYaWWXlJTTOHbipHDTz0pz1GkKany7tlZFTtH7ubNm4pKePaQ57c40X0OHDhLdIrVtz0GcD1nz22+9SS5wPS53ONv4huDDq+eLPrQf0qry5FL3hCpUTnUJbus0GIO7u6BDfgET1qYNXnr+aSkXnSy0NbETtRaS+uo0zZMsLwXayBLTZywtKJVRbjlNJ71j+jTp2BTlt3F4h0CLVlLeurXpqwStnkvWvH+/fnKJ63GLnqWvhze+GP0KRkX0Rp6w7C3pUzuThJKTGOrXBf8aOEcuYeyhR/dueG/h65IIbD0RxV4SU85gwtjRePLxR2ui7lJD4Pz6M3rkcJSWWp/3XlRUguuvuVpapNJdcAuhE13DOuG9Ef/CFYG9kFCeLAXp3EHwdA751aXYU34an/T7B5ZMXgA/nePSNltOI/fIDdvLtm1j8f6iNzFSuL/n0jNtjrGfD+oG5InGYvZ9M6RFJ5o+tOaYm7J67ToEBloXMjVgV4y9XN5zD9xG6ESwdyDenvgSVgx4DmbR/0mozBB9N7MkttaGvtNgNiKhLBlDA7rh4MSlmNH3Jnio3atfbjBU4UjSWWTn5jXYcvMKpPvnbtDii3MfmY2Xn39aCNYo9Wdr+7skEmuWvracXHfq55PhvumGa6UVaeq+nwJ6xcXF0iOSLe9HlujH5+fnN3D/7YVmq+1O2G81p55m5I0ZNVQaVnQnXBp1b4y8ykKsPboBM/Y/KJqjjujtHQ1PlYeTKy5VJnq6SjmSypIA73D8NuI1jGg32AVNTdOgR/lmZGRKfVjLX5IEQAkr1oTjLmRlZWPnH7vx0ZLlwkIXwEunE/1yLyk9lqw0VU9aTKJC9L1p6Ixeu6xvbzw6+wFEiL6y5bVRg3E6lbLtanIdrEH3pCXJNfP/8yb27j8oNVh1oXM5npiCT99fiG5du8il7oHbCr2W4qpSrDvxC5acWI0NxXsR6RGBcJ0/dA5+lnqpUY/EqkJUm3LxWOwtmNR1PIbFDZDy9BnnQwJNPXMWaWnpKC4pFla5FBWV9KhhjTTDLTAgAOFC2CRSer6aq8jMzMKEG25F354Nn+lO3YmY6Ei89MI/XTpTzRpuL/RaSg1lOJR5AuuTNmN71j78WpGIYI0fojQ+8FJ7/j/DrjGLX7cLYBL/VVRX4aixUArgTAvqh8HR/TA+fiTiQ+NY4IxVli5fgW9Wr5Vms9WFrDmtjffv557CsCGD5VL34YIRel1yKvKRUZiJzWd24vv0rdhSsFcoV7hqatHSe/ggQKWFl7D4WiFscuBo0YsCc7V4jx4wVoitTFqGundwfzzd+Sb0i74EMYHR8HaT5aUZ96SyshJTbr1TStixhDySxNRz+H3jmhZ1C5zFBSl0S7Ir83EqNwXl+jLklxVI89QrqytRIdxxCp6RgIM8AxHk5Q9/b38EeAcgwi8M0T6OeVggowwOHT6Cvz/7L4SHhTaIh9AIwIzbbsYN110jl7gXF4XQrUEXVROxr++yM0xzWbHyW6z/6ecGFpskRNZ+0RvzpQChO+J+PoaDIGnTvHUWOeMotv6+06pbTsN2M26f5rYiJy5aoTOMI6ERgczshs8EpMkrMVGRuGxAf7nEPWGhM8x5oGGzhYvehZ/FsB5F2lPPpmHWPTOleefuDAudYc7DseMn8Me+gw3cdkrKCQoIQL++l8ol7gsLnWEagcS8es0PiIupn9JK1pxSd+fMutsth9MsYaEzTCMkJ6fg9117pNTbulADQCmwAwa4z1TUxmChM0wjfLNqDfytrIpD8+rHjBiG4KAgucS9YaEzjA3OnDkrLbwpPQ3WgooKPa6dPFHec39Y6Axjg3U/bZSevGJJWXk5JowbhejoaLnE/WGhM4wVCgoLsfSrVQ1mylEQjua602qw9PeFAgudYaywafMWBAX4WR1S69apI3r26CGXXBiw0BnGgpycXHz46VJ4e3tKi13QM9Vqt2OnknDn9Jtd+lCM5nDRTmphmOZCK96QRffzozXh/pIHSYWe+T5n9gNOeTSzM2GhM4wCYNedYRQAC51hFAALnWEUAAudYRQAC51hFAALnWEUAAudYRQAC51hFAALnWEUAAudYRQAC51hFAALnWEUAAudYRQAC51hFAALnWEUAAudYRQAC51hFAALnWEUAAudYRQAC51hFAALnWEUAAudYRQAC51hFAALnWEUAAudYRQAC51hFAALnWEUAAudYRQAC51hFAALnWEUAAudYRQAC51hFAALnWEUAAudYRQAC51hFAALnWEUAAudYRQAC51hFAALnWEUAAudYRQAC51hFAALnWEUAAudYRQAC51hFAALnWEUAAudYRQAC51hFAALnWEueoD/AZMsP7Cs7ohNAAAAAElFTkSuQmCC;" parent="8XWnLqeAtCPpHr6PN-5Z-114" vertex="1">
          <mxGeometry x="50.90000000000009" y="195.20547945205482" width="138.19" height="110" as="geometry" />
        </mxCell>
        <mxCell id="8XWnLqeAtCPpHr6PN-5Z-41" value="" style="shape=image;verticalLabelPosition=bottom;labelBackgroundColor=default;verticalAlign=top;aspect=fixed;imageAspect=0;image=https://getsby.com/wp-content/uploads/2023/01/Visa-Mastercard-1-1024x378.png;" parent="8XWnLqeAtCPpHr6PN-5Z-114" vertex="1">
          <mxGeometry x="35.51999999999998" y="339.041095890411" width="176.09" height="65" as="geometry" />
        </mxCell>
        <mxCell id="8XWnLqeAtCPpHr6PN-5Z-42" value="" style="shape=image;verticalLabelPosition=bottom;labelBackgroundColor=default;verticalAlign=top;aspect=fixed;imageAspect=0;image=https://upload.wikimedia.org/wikipedia/commons/thumb/1/1b/UnionPay_logo.svg/800px-UnionPay_logo.svg.png;" parent="8XWnLqeAtCPpHr6PN-5Z-114" vertex="1">
          <mxGeometry x="26.539999999999964" y="586.6438356164384" width="180" height="112.5" as="geometry" />
        </mxCell>
        <mxCell id="8XWnLqeAtCPpHr6PN-5Z-67" value="&lt;b&gt;&lt;font style=&quot;font-size: 17px;&quot;&gt;支付子系统&lt;/font&gt;&lt;/b&gt;" style="text;html=1;align=center;verticalAlign=middle;resizable=0;points=[];autosize=1;strokeColor=none;fillColor=none;" parent="8XWnLqeAtCPpHr6PN-5Z-114" vertex="1">
          <mxGeometry x="65" y="20.547945205479454" width="110" height="30" as="geometry" />
        </mxCell>
        <mxCell id="8XWnLqeAtCPpHr6PN-5Z-116" value="" style="group" parent="1" vertex="1" connectable="0">
          <mxGeometry x="-730" y="1010" width="240" height="360" as="geometry" />
        </mxCell>
        <mxCell id="8XWnLqeAtCPpHr6PN-5Z-112" value="" style="rounded=1;whiteSpace=wrap;html=1;shadow=1;strokeColor=#6c8ebf;strokeWidth=1;align=center;verticalAlign=top;fontFamily=Helvetica;fontSize=12;fontColor=default;fillColor=#dae8fc;gradientColor=#FFF5F5;gradientDirection=north;" parent="8XWnLqeAtCPpHr6PN-5Z-116" vertex="1">
          <mxGeometry width="240" height="360" as="geometry" />
        </mxCell>
        <mxCell id="8XWnLqeAtCPpHr6PN-5Z-113" value="&lt;span style=&quot;font-size: 17px;&quot;&gt;&lt;b&gt;用户通知子系统(邮件，短信)&lt;/b&gt;&lt;/span&gt;" style="text;html=1;align=center;verticalAlign=middle;resizable=0;points=[];autosize=1;strokeColor=none;fillColor=none;" parent="8XWnLqeAtCPpHr6PN-5Z-116" vertex="1">
          <mxGeometry y="20" width="240" height="30" as="geometry" />
        </mxCell>
        <mxCell id="8XWnLqeAtCPpHr6PN-5Z-115" value="&lt;span style=&quot;font-size: 17px;&quot;&gt;&lt;b&gt;TODO&lt;/b&gt;&lt;/span&gt;" style="text;html=1;align=center;verticalAlign=middle;resizable=0;points=[];autosize=1;strokeColor=none;fillColor=none;" parent="8XWnLqeAtCPpHr6PN-5Z-116" vertex="1">
          <mxGeometry x="85" y="180" width="70" height="30" as="geometry" />
        </mxCell>
        <mxCell id="8XWnLqeAtCPpHr6PN-5Z-117" value="" style="group" parent="1" vertex="1" connectable="0">
          <mxGeometry x="-740" y="1380" width="250" height="386.5" as="geometry" />
        </mxCell>
        <mxCell id="8XWnLqeAtCPpHr6PN-5Z-69" value="" style="rounded=1;whiteSpace=wrap;html=1;shadow=1;strokeColor=#6c8ebf;strokeWidth=1;align=center;verticalAlign=top;fontFamily=Helvetica;fontSize=12;fontColor=default;fillColor=#dae8fc;gradientColor=#FFF5F5;gradientDirection=north;movable=1;resizable=1;rotatable=1;deletable=1;editable=1;locked=0;connectable=1;" parent="8XWnLqeAtCPpHr6PN-5Z-117" vertex="1">
          <mxGeometry x="10" width="240" height="380" as="geometry" />
        </mxCell>
        <mxCell id="8XWnLqeAtCPpHr6PN-5Z-70" value="&lt;b&gt;&lt;font style=&quot;font-size: 17px;&quot;&gt;数据获取子系统&lt;/font&gt;&lt;/b&gt;" style="text;html=1;align=center;verticalAlign=middle;resizable=1;points=[];autosize=1;strokeColor=none;fillColor=none;movable=1;rotatable=1;deletable=1;editable=1;locked=0;connectable=1;" parent="8XWnLqeAtCPpHr6PN-5Z-117" vertex="1">
          <mxGeometry x="58" y="20" width="140" height="30" as="geometry" />
        </mxCell>
        <mxCell id="8XWnLqeAtCPpHr6PN-5Z-73" value="" style="shape=image;verticalLabelPosition=bottom;labelBackgroundColor=default;verticalAlign=top;aspect=fixed;imageAspect=0;image=data:image/png,iVBORw0KGgoAAAANSUhEUgAAALAAAABvCAYAAABM30qkAAAAAXNSR0IArs4c6QAAAARnQU1BAACxjwv8YQUAAAAJcEhZcwAADsMAAA7DAcdvqGQAACyjSURBVHhe7X0HfFVV9vUKKaT33khPSCCB0ENXUECwYKMI6ghK0bGCoyOOqIgFRwQxUgUREKQrXaR3SA/pvfeevFT+e5+8R156gPB98/Su+d0h3vNuefeus/fa++xznppMJrsFCRJUFD3k/0qQoJKQCCxBpSERWIJKQyKwBJWGRGAJKg2JwBJUGhKBJag0JAJLUGlIBJag0pAILEGlIRFYgkpDIrAElYZEYAkqDYnAElQaEoElqDQkAktQaUgElqDSkAgsQaUhEViCSkMisASVhkRgCSoNicASVBoSgSWoNCQCS1BpSASWoNKQCKziaGhoQG1tbeNWVyff+/eBtLSUiiMoNBKh4bHo0UMN+no6ePKxh+Utfw/87Qgsk1Xj1Nkr0NbWQn19Pfz7+cDUxFje2j7SM7IRFRMPdXV1aGlqwru3W5eOi4yKQ05uPtTof3pEsMED/eQt3YPvN+7Clm0HoKWlCRsrc+zaskLe8vfA305CaGioY8PmPVj1/XZ8vXorgkOjcetW53348PGzWLN2J1YFbsfqtTsQFhEjb2kfpWXl2LXvOFau2Yavv9tKljJK3tJ94M6kq9MTutQhNTU15Hv/PrhjAjfQyy6tqblvW1lNrfxK9wcaGhrw7eOGotIyssY1iE9MEZa4I9TW1uFqUBQqZTJUVsmQk1eI1PTcTo/LyclHZmaOOCavoAT+ft7yFgndhTuWEEcSM7A6LF783d3aQ403NTUMtjTB+4N9oKl+fxzE3oPHsGL1z9DuqQVfb1d8/vHbJCl6yltbIz4hGe9/vAbFJSXiHmtq6vDQg0OxcO4MGBrqN36oDZw6dxWrA7ehorIK5ZXVOLYvkHSqrry1e7Dhp33YtvM3ssQaMDc3xbYNn8tb/h64I4YUVVVjW3QKdEgH6hC5XOnl+ZoZw68bNncjfeiRe9ft0QPxxeW4lJUvv2r3o69Pb/SgjqJJ14uISoCsWiZvaRsxcUmorqpCQ30DjOg7q1HAlJaWjfKKSvknWoOzAkkpmSgoKkV9QwMCBvbpdvJKuEMCr49IQHldPXoSyerJ/PYzN8TiAZ54d+C9bwHWZiLQ0SVSlZPLPpWWg7yKjol1tzA3M4KHq50gVlm5DMkpGfKW1mCZEBOfigqSD9Ukb0YF9MethluITUxDfmGJ/FOtUVFZidTUdKgT2SuravDQuGHyFgndiS4T+HJGHs6TVTQit/uMuz2sKHA4lZ4vZISJjvY9bbK6BoSRRqwgsszt64a+RLDQ/BKE5BdTR+luoQKSDj3h09sddbXUGXtqIjQsWt7SGkXFJcjMykMDkdbOxgID/H1RS/dZJatGekZWuwFgaVkl6es0ETRyJxg6uL+8RUJ3oksElpHV3ZOYSR9WwwhrY0xxc4Av6dQycpNrQmLln7o71BMxLmQVIJys2QAzQwTYmWOqhwNqyTruiklBIcmW7oaWlhZcnB1FQKpD0fvJs9fkLa2RSwFbXn6hCOQG9vOABelMYq3QnFFRcfxnmyik75NCMqOWnl3AQG8Y6OvJW9pGQWExzl64ih2kZ387/AeCQiJQSdr5XsCd7PLVIOzZfxj7SPdfDwrrNPBUNXRKYH7JR5MykVpSjp6kfWf3dhZucYKjFWz0dHAltwgXyToz0e5mi6IXfTo1Gz3VeuC5Pi5Cm7qRHp7QyxqZ1H4yJVt+J90HddLvNtaWFIA1kio0MoGkRIX4WxlsXdMycpGVnYc60r9DB/sTEXXg7mIv7jM4PEaMhLUFRcqslqz8oIG+4u+WYJ0cFh6NhW99gklPLsB7H32HNRt/xfJvtmD+m8vxyNML8cPGX1BY1L5UaQkmaFJyOpZ9GYhRE17E6//6GisDd+Kb77fj1UVfImDcbKzbuFOcsyvpw/91qH/wwQcfyf9uExnkCvckZCC7SobF/p7oZWIo9puShMgqr0RCSQWCcgtxheTFydQcoV3vZLuYmY/0ShkmOlljpK2lyDxoUUfRIILEFJTiKp17OOljI7KU3YmGhjpE3Iwj61osLOrA/l6ws7WWtzaiuqYGZ85dR2hEjMg+vDZvpsi7RscmIjk1C7kkc6ZMHNWmdd20dTdZ4VIhIWZPexRWVubylkZwjnjnnuP4/JuNdA9FMDc1hlMvW7oHK1iam0CD4owaIviN0Giy9LHw8nSBqYmR/OgmBFF7eGSs6JQGBnpwc3bApyvW49K1cNhYmJLssYSRga6QetzpOGccGhmH8IhYuNJnzSiA5syPqqJDC1xDVocJFk2R9DBrUwywMZO3NEKbiEbGGHUkA4qqa4l0oAff9a2YgqL86ho46utitL0ldJUS8d6kgwdZm9CDv4XA8ARxL90JHkWzsDAXgZympjpuBN+UtzShijptXFyiyBd6kmwyNNCHDml2BwcOAG8J0oRHth6c4OxEcHi8GN51c7aHpWXz58ZWcvPPB7Bhyx701NKEt5cr5s95FksWv4KP3psv/n1t/gz4+ngIiRMdn4Z1P+5GUSeWWEYea9PW/cjOyceUCaPwykvP4J3XX8Ai2hbMnYYHRg9CNUkhlj+x8SnYSNfPzS2QH62a6NAC59MD+S40TmQGnvdxgTVJBkVfTSouw864dJTX1KGW3rAFPejpnr0wycUWAbYWXdrOpOcJIowl8o62txLSRAG2QDa62jifWYD0iipY0/ldjA3krfcOTbKknH3gFBlbpkr6ro8+Mlbe2oh8ss7rt+wlS1iHRx4aiQH9fcRQcg699Gs3IoS80ibyjxoxWH5EI66R1jz+52X6Sw3Dh/ohYEg/MdSrwJlzV7F15+/QoA5gZmaKf78zFwP9fWBsbAg9XR3RUZx62cGvrwcuXAmFTCZDAZHXjCwwW2JlKFvgajIGbNlnPDUBs6c/hr7UAawszWFtZQF3116iQxiTbDp3KUR0nAySRlYUy3i6k3RTevaqBLKD7WNXdJKwkGwdPYg8iq/IAdahlCxkErGGWBhhvJ0FUunvzMpqWJM1dTDU73S7Se43l4IMcyIp6922Bi1sySVOdbZBNVnfQyk5KCCp0V1gt+nj6Szcvxrp75y8YuQXFMlbGxEVG49yuiZLxT59vOglUxhLx3E2wtLChCyZOnb/fk7+6SZcvBwsyMka07mXI/SU8r9lZRX4/dgFsu7VomPMff4JuLo4iHO3BBPvpVmPUTBWQwGdjKx6NEpKy+StbcOP7nPms1NgZNS6sxsZGeLpqRMx4YEhQptzHvzXfSeEVFJVtEvgWAqujqTlwoVINNzWDD3pyzLoXSKSXnZQdiG0qNfO9/fC4+6O0NfQxIGEdCSQZe4MBeSafyVdzRZ3kqMlrEmjtYfHyarbk1VKK63ACdLY3ZlWs7OzglZPHoHjc9YjPiFF7FcgJjqBLJUGyQBbWFuayveCyGsqLBvfihY9l+SUdHkLyam6Ohw7eVloZQfq2K5ONvKWRiQmpSI3L09YPPYCY0cNkbe0jeFDB4hOxM8qOysXeXmF8pbWqKu/hWlPPSy8RHtQp44ye+ZUMezJHSwhOVMUKqkq2iRwKenZwNB4MeI2lHSvh2lT8FBBVuNsZh5Zzxo8w7pQSwtWetp4wtVWDHIcTcoS2QUetWtryyNLfTA+HYVkfZ3J+j3kYic/c6NljyooEddXxuv+HkQv4Ep2AVKJyN0FCwszmJDb5rfJgxSRUY1D5AzWqeevhAuL6+xkDxMli2ZmagJT2lifcx45PKIpj8xkLqPvyG02VlawtbGStzQSJpFkC0uQWpJeEx4cLPRyRxsf40AWny00a1tOt7UHXdLnnh7NJUZbMDHSh6+3m8isaNP9R0S2nwf/X0ebBD6clImk8kpYknuf2MKCsOtn7dqbXvxIkhYcwHJ6bTAR3ZX01XkK+taQbmbt3Na2JiwOpzLy6cJqWNjPTRyrwE2y7CuDYrCfCK4MT1NDjCNLHV9SjlNkhTkv3R1gKzmwn5cgG4+uxSSkiXJLRmZ2LpLTskSazNbWmmRAU6aBq748XO1FLQUHRNeCmwK5MCID72NLZ2drCWOlzEEd3XdhUZkIpDRIfsTEpeGrbzd3vK3eIkjMKCNLXCVrv9jJgDyZpkbnFWk9yet4uDuJ76ZBzz8puf2RyP91tCJwckkZzmXkoZZ652yvXkKjKmPzzSQw5UY7WMBCqc2QyGBA7raByBCcV4QbnB8mi6m8Xc4pQBh1ALbidfQ5TyXLzjAka8Ba+kxGLiI5vSWHJpHhQQeyZjo9cSw1Gzn3mOBXBlem1ZAeZBKXlpajuLhU7L8RFC40oomhATxIo7YsVfRwJW2rqyvSZPFEAK44Y1y5dlNYNTHa5+UiCKJAbV0tKioqRCzB+2/GJOGPU5c73I4eP48S0s0y8krVtLWXd2Z0NR3GEsOYPAqPLjJ4oEZV0YzA7MKPUrCUXF6BPiaGGGprIW9pxJ6oZKRQm6eZIYbbmDfLGvDQLw8H8zPh7XEnaxyYMhK/TByGnx8eIv5eOrQvkV9NkKWOrrX6evPUlRMFio+Qpc0iS/Nnem4zS8sZiOFk8atoX2BIk6u/V3h5uvObF5mI0tJSZGXniP0nT1+BjnZPWFubo5ejrdinDAd7W6jLSV1ZIUNGZjbKyWulZuYKd8/a2osIrAw2pAoCyig4DhjkgxdnTMbsZyd1uM148mGxvTD9EQoKW9/LneLWrQYhmRRvT5XriJsRmNNCnDKzoaBp0eDeQh4okE0v56f4NBiQixpPRDIha6hADlnNw4kZREtgLAV8bM/OZRchvaxc1E6YkTZjrh9LykA1Pbz+5kYwJe18IrOgWdDHl5vr5yGs+bUsstZkyeXeU1jhMRQUuRORwyjAvEI6vDvAJB1CMoLBBMwkT1FOnTQ4MpH23IKJiTGRuHlHZpia0n5zU/HMbjXUI43kRkJiMuooomfLZkoGwMGuufziTsLSQoC+14iAAZjz4jN4Zc60Lm1z//Gs0OP3inryrmXkbRQvmAdOVBXNCMx69AnSditG+AnSKcCWcFdsikj6+1oYY6idpbylETzYEUP6dATp4Bf6umGAubEI0o6mZAuLyQgi+XAhuxCeRMDnvV2EZmZ2bo5MQrlSETsTdaanI4pJZhxLyWpW4O5IwcdIW3PoqWuIwY3uSquNGNpf5IFLy6uQnVuI+ESSSfRuWR5wBoLlQFsIII/Cbp2lQSzp50SSElUymbCuY4a3Lt7hGgwzMxNhoTlve+lqmLyle1BD98LvqDPUUCdj3csSiT/fx6exA6siWmlgA9JvxmRdlYwvguml3sgtgYZaDzzv5QQtpZwtZxV+pWDEkizZAw7WwuLO83WnztAD18kKRxeWooj04frwROiT9R5lawF7CvamezjCgFwXB2bcARRgKzWEyO1nZoSrOUWC+Mp4wNEKLkZ6YhRvf0L3BB/+A/pQ8FYrUlt5+fkICYsWf6tTR+HBhPbQx9tTVKZV19QhIyuXSJwqcru8DRncT/6pJjBpbW0sYKjfqJ0v37iJ/ILu058l5PGyKfjsDFk5+YiMpU7KuWr6795ebo0NKohWBG4JtnJ/puWggKzKCxTU2ckLYBRYGRyLSrKy/a2M4UOkY1jr62AmEZ3rJ06lZmFTRAJyZDVwpCh5LBGQSWpGAeBLPs4ora3FGdK7mWVNxeEcOI4iucByZiNZaA76FDCkDvI8HcdDy5xWu0m6+15ha21J2tJa3FcBBY9h4XGN0byaOjzcXOWfag1XZ0doktdiecRDsjyyd4ssmomRLhxJI7cFdwr+LC3NhRvvoXYLv+w+Im/pBpBH27P/hPw/2sePW/cJHcxZkeGDfOWpRNVEpwQOJwt6hVy/m4EeJpG8UMZV0qGhRCAzsr5PuzrcHuxgcP6YreifGXm4RJaYByBe6uMCfaUh1dFksUdYmSKkoBhBRBzWkwwmEqfo+pBWLiXy/hjWvGST6ySecrEVHeR0i2CvPXBp4ZXrIfh8RSCmv7gIT0xbgGdmvYm33/0MBw/9gd4ezqgja3ozNgFRcclCHnL5JBfItAceHh7o5yksbmp6FpJTM8XfT04ZJyxsW+CCIR5eFjKCtsPHz+PAb3/IW+8N/B3/oODz+Mnz8j2tsW7TDly+Hi6uzdmXyZPGCmmjqlDLLi65teRCOArJwjKUFRTnH7lQh+UE1yY00xUEtoLcA5hw2hr0QORpGQWYkIpUDUOfJIOspUaj5hr5Pta/TBwFuE6C74EDP70W+U3+GF+fz/n2QC/0Jd3dFjg1dpRe6Kq1vwg331NTHVp0Lj4vn4OzIdy5jA10YGzUdI4K8jyfLlmAMSOHyve0jd+I/F+t/lkU3TBKyJNsDlwKL4/2LTcT7f2PViEssrHKjRckGT18AKZMGgNzUxNBfrol0aF46Dg6JoE6RwYWzJnRbIiYB1vWbt6DX/ceFdb06UcfxIGjZ8WxUyaMxITxI8XgBr+H7Jw87D14AteDo4R34e/96ITRmPP8VOh3Uqv8vwy1pPzCW6+fDhYvVJsenAlpYAWHmFbFRGyWCEwgY6U2RiEFDWz9mMBWus11M/O2mIKFqroGsZ/PZaen3ewzTG0uBiomGcHZDc4DK1wCt3GFm8K62tKxyuDgkOs0dEmnLhrUG34UXLYEj2Qt+3ojft1/FHpsZejirEF5FI0tYH1DPSrKKpCTV0CErYaVpdntLAET8eieNTA2bl3CqAyelTF15tvkhvVFikyTrPL+7auaFe+0BZ4g+tWqrQgKjhBBHz8XLn43oo6kr6cnzlVBHobvg2eO8H0vfX8e+vp4Np6AwEX2gRt2Ye9vJ+i7yrBz8xc4c+4adh88iaLiMjEMbmpkKIJMPg8PsHAKs0cPdYwfOxSzp08R9RaqDDEreRNF9PuTMuBmqI8Zno4w0m58+NyTr+UUYl98BozphbCl4zJIBaILyrDxZhIMqe0lbyfY0sNXoISCol+iU5BAD46tah2d7NU+rnA2aZrFSwYU34fEIpUe/lRXOxG8KVLLVTX12BaTiqjiUoy1tcBk1+aacmtkMkJJ3oyxtyBp4iruoSWWf70O67cegBF1LkOyXJMnjsGoYf700swFwbigvKioFClpWbgRFoXo6CQ6irwG3ZiNtRlWrfig8USd4Lk574oMAFtBzky88/oceUvHYEv85+nLuHg1hHR3DIpKKxo9Az8wevZMNq7fdXWyhZ+vNyaTxXSwa6pZrqFAdsv2gzh6/Cwq6Fw/rV0mZlefvXBDyIjQiHhhxXmuIZ9Lh+KH/n09RfpuzMiBorhH1SEIzEHSwj+uoZJe3D9Ip05QGj7OragSQ8NBecV4xdsZk90d5C3swuvx/rlQJBJJH6YgiI9lGcDgWRorgqLhS3q1tv4WIogoA61MsGRIH9HOOE/B4ZfBMfCiIOK1fu5wUAoQz5K2XUcdiwdX1o0bJLIbCiQSqRedCxMegY/rp1RoowC73elz3oM62X6u4X1x1lRMe3IidHWbOpkyeEYGTwNiArH1Z+JwwU5XkJGZI7Qv93gjI/0urdijAFtalgl87fzCYnEfleQ5dHR0YGJiRO5dl6yyHowMDcT3UB5t43stomdRQjKJ/3a0txHyg6UF10wU0jNPz8wW59PX1xdF9Zzz5VoOVS2fbInb60KE55dg8fkQ+JsZ45/9PWCl3/SiT6VkYX1kEoqox++aFAADJWtXQu5v+pFLcCBiLOjnBj85mWYcviiqoxYQwZjEM49fhgkdt9DXTYyoMSbuPwNjTU3M9OpFFrapqIeLfgLD4nAuqwBv0fHjyQIp4+0zwUgsKUeArRkWDWx7sZD1m3/FBtq4bLCXcy+s/eZ9WFp0jZASVAe3BYGToS5GWJuSWy7BtdzC2xkBRgARztPUQLj3zeHxok5CAbaMM9wckFZZhUvZpCXJEv0UkSCyBwOsTdCftKkpufC5vZ1EB+Ah4gIi6KaweHFxJyM9kVpTgK8aSdLgYnYh+lNnGmzdRDq2MieTs5BCupWzGS94OctbWiMmNlkEkGyxrCxM7ht52YKyFuWaWpYQdwM+B8sBTq21B/7uiutw0MfHdBf4vju7flfB1l/xLPie7xWKe2vvXLctMLdfzynAdyFxIqD4YoRfMyvMZY4fXAwXgd4b/TwwiEfS5MgmmfHJlUjkUSA0jTT05qgksrZaeJWs5yDSkgzuEG+cCkIekfcBB0tcJOtaRF/03wN707mayMUWfcmFMORU1eBVP7LWdhYiSGRwrvib4FhEFpVgno8LHqWO0x7eeu9LnDl/VfSIvr69sXblEgpquiddxETi2oeo2CRkUKflGRO8j6u8zKmjuzrZwc2lVzONmZqWibiEVNGhenu6kMa2EC+FZ4TcCItGVno+aVM/DB3cfPG/rOxcJCSlITU9W1SyMXm5jphXovR0c4Q3nasjLcvVdRevhIi/bemaXIXGASyPGMbFJ4s1L7LziihQrIU2eVEH+oxfH3fYk9buanEQf/eExBREk9HIIONXU10tngUHtt50PR4oaS+o5fuLiU1EIUkhvt6YkY2zW0pKyhBMzyUyLhk1pTI888xDYr5gSzRbWoqt55abiTiWkiOGhRcNau6et0YmYld8OoZT23w/99u6lFMyR5KysJWIy6N1ldQLxzlY4GVfj2ajdhdIF3O5JBcBcTptJJH77RbX+CmCrpGQjlF25pjX111kJhistw/QtXfFpol6iKUBfTtceipwww6SEXvooQDW1pZYtuRV9KNA6F6RmZWDrbt+F1N50lMzUMg1BUrQpU7CBUD9B/jh0/fmy/cCh4+dwn8+Xyc06jv/fBFTJz+A3fsOY/OuY8hMz0J+fineeXU6Xn/1BfH5nJw8bNtzDDdCIlGQl0/XzYeMSMbgTAmnNW1tLeHbxwNzn39KTBlqi3C8LMDTs98Uwdzkh0firVdfFJr7+w2/IDg0CmnUMcplNcK7MhHMSMPbO9rhkXEj8PyMxxpP0gEKSWsHbtol5hRyJ80nacchIw9T6xI/7O2tMaCfN16f95yoH2kJ1uorVm3GhctBosz0ysntIuW3ZsNOnD1/DdkFxaivrMf2zcvaXNmzGQP0NDWIeFaw1tXG2cx8BJN1UcZTHo4wpZ4UlFuMazlN02/4YQ62MoWniSGqG8jkEzlnebs0Iy+D6yhGEDGrqV2bjplDelgZHJztT8qEubYWxtlb3SYvI728EidTc1FDVuuFPs6drps2MsAfpTWNKb6sLAoIN+8mEnQ+zNoRwiKiMY0Cwz17jyEmhqwGvawy8jo8IMDBaxl5jTzaFxadBLMWI5Y8rSiPXgZPZ+fZxoeOnsLHX21CWko66uvIfaurUcDaJEHSKTA8euIcrl4PQ3B0CgwMdDBiUF+MDehPgZgxSiplyM3Jx4mTF7H4g69RXNJYBtoSbOW5cKe4mAJFuj5bvBcXfIADv/2J0JsJKKD71dPSQDl5Rh5FrCYy80yU1Wu3Yenn38vP0jZS0zMxccZb2HfgBHmjRJEGfGiUP56e8iD69/FEJXnT5JRM/Hb4NKY+v0hMp2oJfj88i4XvL406KT+b79dvp2NOCSvME4UrbzW0G3S2YgHPvhhqZSJeyJrwBCEtFNAhgr85wAvldMHjyZnIKW+qy+WBDK5/4EzG631dm2UNFODgbxjJBa6BKKNzaChpLr7MquB48cD7mRvBXy49GDygcSkjHykUTT/mbIteHYyOKcB1Ck8+NFSkl9jin70QhJlzFuH8pWtC692pPgsLj8KoCfNQVUZunCwFF8DPf3Eqgk/vQELwIYRd3o/EoN9wYu/3mPXkeIwb3XyipyHdMxvInhoayCYr/snXP9Lf9PIa1DB5whh8uvglDOrflKFxI4tqbGiMuc89gaiLu3DhxHZs+mE51q7+BGeO/IRDO76FDhka/m4xCSn47oet8iObg61yTzII2kRSXu5q/psfi3XdtPV1sWrZW4i+th/BF/cige59+ZKF0DPQFy9DjZ7Pgd9PYf2Pv8rP1Bw8eXTmgqXk3ouFHh8/ZjBO7F+Ldas/xZefvoOdW77Gwe3fwsnJQbSXFBRgySerWz13UXNC1polpoFOT1y7EYZ12w6hkksPHKyx8KVnsPy9uTBrw3oz2pyV7EoumusTiqtJF9EFPEwNb7snnvqeTwEbL2jCtQ1uJgbi4hycHaEAy4le1KtE8rb7C2Cpp41c6u08NYgzCSMoQOTPnuY1JTJyRSdYNKA3WYUm68trU3xF0sOWXhh7ARslbd4ReLZwNFnK9Mw84SLZumzdfRzBweGioJyHUHmkqr1hXwV4ztiCRV+QSyTnSN/V3c0Z//1sER6bPE7MIlaAC8XNzUzw4NiAVim47Jxc7Nx3Aob0/Tm1VU4E8O7tii2BH+OJR8ejfz8fOPVqGqrnCrjHJ4/FyOED6B5bf19LCzMxm/iP05fJA6rh3NUIPD99iki1KYO17r6Df4iquYxMXqQlH3ZOjvhpzVIMHtSvseaDwM/D28sdg/19EBQWQxaxhHh8C9n5RfD39RTfSwHuwGwlQ4MihKwJGNofXy9b3EqL82qZfbxccPZSEAViNcghD+Dp3ouI2ZRV4pnU5y8HI5b0uA6985tRCdQpKYZZOAsfvb8QAUP8Sfr1Jj3d9oBSm36YXffLfVyElmUpwRMqFeABg/G9bIWb/yUmFUXkyjirwCvoqBPJZ3iRFpN/ti2wZZ/UyxomZKGDCkpxhYI5DgKPEYHZsj/r7gBLJYJyxuOHsHhR3sillK6k0boKDtq+XrYIzz37CEzpBVTT+S2MdBF5Mx7vfrQSbyxejjXrf0FUTIL8iNbgl7Vr3zHSoQXCgupRB337tdnw8737EsQcCnT4JQau/A8FS81rhpXBhebtBVK8393VAf79epPrbqDOo4aQ0Eh5a3No8MMj8DEaFAB+99lbzUikDB9vdyLPTFTR9+aZ1akpGTh3OURkFxRISErF5WvhIvetrq6JJYteaXd5Wt++Xnhw9CDIampRUV6B46eviGeqAH89DioZXB3Hcwaffnw8Zk2jzqjdvDO2hXaF5BBbCwy3NkUS6acLRGLlghlPsrpDqI1LGn+mwO0MkS+OrCnnZb3J/XcGJyMDTHKyETUIO6kTiNnMpHf6kXyZpDTJk3GW3F0w9Vxb0pBjSZ8rFwx1BTxwMW/Os1j+n3+KFXJ4aLigQoae9CLZsm7auhf/+uhbbKPArK00GFvOoLAo8QJZ002hQGigf5OrvxuUkifge7rX5Va5LsLSylLU9PYkssdSxN4RZDV1mDZ1HMkTJ/metjF82EAMG9hHlIny92a9z5KBwXIgJDIOcYlpJH/qMX3qA21mB5QxcfxwESuwRedlukra0euMHuQJXpj5hPBmXUG7BGZM93ISWQWWBhxEKcAyYpKTLazIXV3IKsTehAxYk34ZbWfZbJCjIzxCRLUiK85rS3BwxmSe5dM8OMuntt3xGXQPanjIwQJ2HUy/7wjckwcP8MVr82bgx8Bl+G75Irg426GCCMnaMDU1A6sCf8YPG3fKj2gCDzNnpGeRq+2BwtIqTH30odsW427AEsSOglkP0rh3Au5caXQfZ85dxpZt+/DN6o1Y9kUgQkNugtenYOtaVNL+jGUGZxsmTWi+eEtbYEv43DOPUFAqE+dOSkohSdFIOnb5KfS8amprSJ7UYsqkcWJ/R3Cwt0c1BbrsoUtJmhQUtX2fHJsM8HNvJlc6Q7M0Wktwtde+2FRsiUnBZHL7L/t5CL2lwIawOBxKzhYEY/BUIi7i6QrqKLLU6dHYy2rppbJFnuXtDB25haVd2BgejyMkTYyoU2x6uOP1E+4UnGzfs/8YVq3dgVr6m24dRqT9P3x3HsaMbLrW3t9O4t+ffAt9cpEVJJVuXjsob7kzBIdGYOrsRTAlCeLt5YwVn73b6VA1k53d7Z4DR7Fm4y7EJGXRfWiKtSiYsJxO06Znw4EQZxFmPf0w3l+8UH50I3ixlukvvCVyyEVkhM4f3SLywZ2B01u+I5+FjamBIPT67z4VKTu2np+tWIcjJy6IYqE7AXsKe7LWny55jaRFb7GvtLQMn6/8EQcP/UncacDLs6fiDXkqsSvo0JRwGsyfpAKvnn6IZAKvJKmMmUQ4J2pjzcwb61ozsqpd2dh68zFszdm1cFmkUt9AJMmG6xQo8q5FA7t/ygvr4xnPTMEyepga9Df3wcycAhw7dU3MjWOw1SsoLhO1HGwdPFzufT4ar8XQg54rE7Aj8NKqvx87g5ETZmPpF+vIcpXDy8laDJC4urlg2KC+FOD4wsq6sTi+u8HBoMJY8U8q8Lw/8Td1qPzCIpH+YnAn68rGnawHeXPFMe1BS+vOJGKHFpjBrv1AXBp+iU0j0mnhy9H+t60ko4yiW2V5cafIpSDw56gUuk4D3hvcG+4mRmKFdh5QOULW/QlnW7zUIl/c3fjmu81Yt2WvsGa+fdzJQrxObs9GEPjH7Qfx1apN0KfOaWNjgUO7f5AfdWdQWGBD0uT9fN3x1aeLRSahLXDEvu/3P/Hlqp9QXy0TaaYxo4Zg7AiOyL3FGsU96X54cGLF6p+wdccBoU270wKz5vUZ9hSsTPSFpV+/ptEC88pAiz9cgeCQaFRRUDx39hNk6LpmiTlbxStsPjxu+G3v09ICvzrnaSx4eZZo6wo6FXOsW8ZQ8GSvr4vk8ipBZmXwHLreZkZ3vQ21NcdoewsxZWk3dRLuTXH0sC9mFIh1ICYQge83Jj00UgQZnFPlqjBeh4zBrpMXC2FryRYkIj69WQR9v5CWkYMduw6jtrpKzCd85R9P48PFL2PyxAfEEC+Tl8G56O6siVBGbh7/tl0jzMxNbmcZuDNx8Mnrf/Azm/HUJPxzwawubW8snI3ZMx7rcpVfV9ClaITXAn7aw0G8yBNpuWKx6+4Cz4QeRQR2o4j6Uk6hGP3bS0TmuXJc68Dz6+43eIXIpuIl/rfxb/6+1rwOmnwBFtbKMbHtp9y6A+xeb0YnIiIuWQS0A31c8fyMxzusd+gqeECIl4ztCkJCb4oAt66OdCt1Gh6IYXBNA3sO1rOsx6/fCBX7/3+hy+H0MLKUnoZ6KJBVY39ihqjT5RqI7thsyboPtTKFNgV1H1+9KdZ94N/J8KdonT3A/UZcfJIgC+tTAwP9ZjlNG0szsS4EV7ZZGetj+69H7pvVY/C5M7I4p35LRO4jhvnftrgtwZ9tLFjvGnTJW1670VjY0xH4vN9v/BX6ZLhqSPu6uTnfnvjJgyoOTvwTEBS30HNa++Pu+/o8OkOXCcx4w99D/ELRNbKSK65GYvWN6G7boom0fDOaRFiefs9VaLZ3mTZjVFRUipfbGbiw5acdB0mbaotgyIWCJC4kV8DR0VYETTw3kEfsjp66RBH4OZIS7a9Rdq/gmgTWnRwo8RrF7YFnQUeER4vCma6ACfzNdz93uBolP4NDR0+LKjv+OTFe1JAXAlR0IpZS/Xq7wNOZAlrqOeGxqdj/+x//T6RVW7gjAtsZ6uNJNzvxMsMKSnE5p6jbtptF5WKUjgPEfhZGGKFUYnk3OHj4T3y//heEhUW1+WMpnKDn35JYuXY7Tl8MEaNe+vSyRpLF4wWmFeAc8rOPPUi6zazR0tTX4b+B27Dv0Ekx3NoWeK0xRSbjTsE5ZnsKINlFcw72jzOXkZLWev0LvsZPO39DVEyiGDETk247AZ+bF3BZ8ulq8VO5LTu4rLoaJ+l6K+n7Ger2FB6Jf110yMC+8k80woMsckDAACJwDwryDPAVBZJ7Dh7vcICisqpKlIZ2NzrNQrQEr5QTQ0HW/QK7Q16Z/Z6sLxH2lTc/oUg5Eq697GFKms3F0Ub8OIueji5KysoQRZYjNiEF8YmpouKpgr7XizOmYP5L01r95gWT/QAR9vUlK2FpoEPkAvTp/pycHEWFGP+2Bdcu8AsMiYjFjZB4vD7vKTw4drj8DHeWheC6gLfe/wIZGbmCRF6erpjz3KNwd3MS98JVcTsOnEJaciq5dgPhRWRVNZg4PgCfLX1HfpZGKGch2Hr2JU197kqEKL8MGOKH4YP7ig6bm1uIM5eCcPlaGErlgxb8+xkrv/iX+EmylmAyfrjsO7GCvA5Zdm0dbVEjMpyeR18fd+GtuP6Cf6YsNj4V1yITYG9piq8+flN+hkbcaxbijgmsCoiJS8ScOR8jtywf+tQZOEBjK8UukbsI61l20/T/4FLIjMxifPafeWL8vb0p5iwZrtyIwNv/+lwsOM1JfI77tEQyv/G8bAR5cieP+z86cRSWL31bHMu4EwJzeeEvuw/jv2u2iqowcf9cdEMX4CFWXn+tuKwSj00YhWFDfBG4YafInvT388SmwOXyszRCmcCldN/H9/2Adz/8BldDomBJmr4HEU0sMEDX4KJ2jl9LKqrgaGeFtd9+BDeXxuC9LXBp6EfLvsWuIxdgS+diqNE9apA3o4M4byZIeYs6YRXds4GBCQ5sX9EsC3Hf02iqCK7S2rvnv1j40lPQ1dNBkayWiNpAFqFOLFPKyXgZEbeS9o0K6IfrZ7Zg/pxpHa6PwLMgeA21Ewc3YPa0SahTUwf/QCMvScU/AcB1thWVNcinjet1ffs0TX9nsKatKqhEXmk13UfHQQ+T9blpj2Lpv16BjK7Dcwt5Wk0NXYMncLIH+OyD+fh6+WKxqlAV2aDcilpcD+FZ1e1D1EyQp/gx8FMseOFxVNP9l5RXoYqIzT95UEnP5xbJgvkvTMXx/evFKkIdDbhwTnfVig+xI3AprOxsUFTFz7ZenEtxTk615ZTL4GhvjdfmPtlm/UcDeY/C4ioUZlRS/7kzSv4lLbAy+KWlpWWK8Xu2Rjw4wev32tpaCZdsbNR58VFb4AVT4hOT6bzpRK56oaF5gIFLInkQpC2UyXUxewPOdHREDgW4CJwlAxcVsfXlFd95MEMxRYd1LNcnsFfhoE+POqwyOhrIyM3NF5V4vGI8eyc7OrdPb7e7StlxEMfPguMKtsz81XjlT15Gy5UC4/bqG/i+WXsrRhPZo93J1K+/PIH/7rjbkThVwV9SQkj4+0AisASVhkRgCSoNicASVBoSgf/i4OIg/nmu/LJKVBRXiDzvXwlSFuIvDs5Pnzp/XeSqUVePiQ+PaDVzWZUhEfhvAOUZEF3JPasSJAnxNwCTVrH91SARWIJKQyKwBJWGRGAJKg2JwBJUGhKBJag0JAJLUGlIBJag0pAILEGlIRFYgkpDIrAElYZEYAkqDYnAElQaEoElqDQkAktQaUgElqDSkAgsQaUhEViCSkMisASVhkRgCSoNicASVBoSgSWoNCQCS1BpSASWoNKQCCxBpSERWIIKA/g/qfDnn8jZmG4AAAAASUVORK5CYII=;movable=1;resizable=1;rotatable=1;deletable=1;editable=1;locked=0;connectable=1;" parent="8XWnLqeAtCPpHr6PN-5Z-117" vertex="1">
          <mxGeometry x="40.00000000000023" y="89.5" width="176" height="111" as="geometry" />
        </mxCell>
        <mxCell id="8XWnLqeAtCPpHr6PN-5Z-46" value="" style="shape=image;verticalLabelPosition=bottom;labelBackgroundColor=default;verticalAlign=top;aspect=fixed;imageAspect=0;image=https://www.privateequitywire.co.uk/wp-content/uploads/2023/05/Nasdaq-logo_RGB-300x232-1.png;movable=1;resizable=1;rotatable=1;deletable=1;editable=1;locked=0;connectable=1;" parent="8XWnLqeAtCPpHr6PN-5Z-117" vertex="1">
          <mxGeometry y="200.5" width="240.52" height="186" as="geometry" />
        </mxCell>
        <mxCell id="8XWnLqeAtCPpHr6PN-5Z-30" value="" style="shape=image;verticalLabelPosition=bottom;labelBackgroundColor=default;verticalAlign=top;aspect=fixed;imageAspect=0;image=https://gregberge.com/static/a15f8dc6cde9d6dc9e94a2edb43b6108/2ceb4/banner.png;" parent="1" vertex="1">
          <mxGeometry x="-42.12388747208921" y="1060" width="260" height="130" as="geometry" />
        </mxCell>
        <mxCell id="8XWnLqeAtCPpHr6PN-5Z-31" value="" style="shape=image;verticalLabelPosition=bottom;labelBackgroundColor=default;verticalAlign=top;aspect=fixed;imageAspect=0;image=https://miro.medium.com/v2/resize:fit:1400/1*OvaSRk5EFxb_mN_M_QpUNg.png;" parent="1" vertex="1">
          <mxGeometry x="240.00006936652045" y="1060" width="329.27" height="90" as="geometry" />
        </mxCell>
        <mxCell id="8XWnLqeAtCPpHr6PN-5Z-118" value="&lt;font color=&quot;#ff1212&quot;&gt;&lt;span style=&quot;font-size: 17px;&quot;&gt;&lt;b&gt;开发阶段&lt;/b&gt;&lt;/span&gt;&lt;/font&gt;" style="text;html=1;align=center;verticalAlign=middle;resizable=0;points=[];autosize=1;strokeColor=none;fillColor=none;" parent="1" vertex="1">
          <mxGeometry x="-145.53186666213287" y="1060" width="90" height="30" as="geometry" />
        </mxCell>
        <mxCell id="8XWnLqeAtCPpHr6PN-5Z-119" value="&lt;font color=&quot;#ff1212&quot;&gt;&lt;span style=&quot;font-size: 17px;&quot;&gt;&lt;b&gt;vscode 插件 格式化代码，静态错误检查， xcode 使用instrument进行代码优化&lt;/b&gt;&lt;/span&gt;&lt;/font&gt;" style="text;html=1;align=center;verticalAlign=middle;resizable=0;points=[];autosize=1;strokeColor=none;fillColor=none;" parent="1" vertex="1">
          <mxGeometry x="-55.53188593061083" y="1200" width="630" height="30" as="geometry" />
        </mxCell>
        <mxCell id="8XWnLqeAtCPpHr6PN-5Z-123" value="在docker 容器下开发&lt;div&gt;避免因开发环境不一致导致的问题&lt;div&gt;创建docker file&lt;/div&gt;&lt;/div&gt;" style="edgeLabel;html=1;align=left;verticalAlign=middle;resizable=0;points=[];fontStyle=1;fontSize=18;labelBackgroundColor=none;" parent="1" vertex="1" connectable="0">
          <mxGeometry x="810" y="1124.9966666666664" as="geometry" />
        </mxCell>
        <mxCell id="8XWnLqeAtCPpHr6PN-5Z-129" style="edgeStyle=orthogonalEdgeStyle;rounded=0;orthogonalLoop=1;jettySize=auto;html=1;entryX=0.78;entryY=0.011;entryDx=0;entryDy=0;entryPerimeter=0;flowAnimation=1;" parent="1" source="8XWnLqeAtCPpHr6PN-5Z-29" target="8XWnLqeAtCPpHr6PN-5Z-97" edge="1">
          <mxGeometry relative="1" as="geometry" />
        </mxCell>
        <mxCell id="8XWnLqeAtCPpHr6PN-5Z-131" value="部署前(crhome)后端(server)项目到云服务器" style="edgeLabel;html=1;align=left;verticalAlign=middle;resizable=0;points=[];fontStyle=1;fontSize=18;labelBackgroundColor=none;" parent="1" vertex="1" connectable="0">
          <mxGeometry x="510" y="1619.9966666666664" as="geometry" />
        </mxCell>
        <mxCell id="8XWnLqeAtCPpHr6PN-5Z-133" style="edgeStyle=orthogonalEdgeStyle;rounded=0;orthogonalLoop=1;jettySize=auto;html=1;entryX=1;entryY=0.579;entryDx=0;entryDy=0;entryPerimeter=0;exitX=0.999;exitY=0.379;exitDx=0;exitDy=0;exitPerimeter=0;flowAnimation=1;" parent="1" source="8XWnLqeAtCPpHr6PN-5Z-98" target="8XWnLqeAtCPpHr6PN-5Z-96" edge="1">
          <mxGeometry relative="1" as="geometry">
            <Array as="points">
              <mxPoint x="1190" y="887" />
              <mxPoint x="1190" y="1160" />
            </Array>
          </mxGeometry>
        </mxCell>
        <mxCell id="8XWnLqeAtCPpHr6PN-5Z-134" style="edgeStyle=orthogonalEdgeStyle;rounded=0;orthogonalLoop=1;jettySize=auto;html=1;flowAnimation=1;" parent="1" source="8XWnLqeAtCPpHr6PN-5Z-62" edge="1">
          <mxGeometry relative="1" as="geometry">
            <mxPoint x="960" y="220" as="sourcePoint" />
            <mxPoint x="1080" y="1160" as="targetPoint" />
            <Array as="points">
              <mxPoint x="1191" y="190" />
              <mxPoint x="1191" y="1160" />
            </Array>
          </mxGeometry>
        </mxCell>
      </root>
    </mxGraphModel>
  </diagram>
</mxfile>
